<?xml version="1.0" encoding="utf-8"?>
<svg width="292px" height="61px" viewBox="0 0 292 61" version="1.1" xmlns:xlink="http://www.w3.org/1999/xlink" xmlns="http://www.w3.org/2000/svg">
  <g id="Group-4" transform="translate(0.25 0.25)">
    <g fill="#FFFFFF" stroke="none" id="Bible-Notify" transform="translate(48.57129 0)">
      <path d="M197.251 44.4298L197.251 27.1827L194.059 27.1827L194.059 22.98L197.251 22.98L197.251 21.1562Q197.251 17.5482 199.322 15.5558Q201.394 13.5635 205.121 13.5635Q206.31 13.5635 208.035 13.96L207.976 18.4006Q207.262 18.2222 206.231 18.2222Q203 18.2222 203 21.2553L203 22.98L207.262 22.98L207.262 27.1827L203 27.1827L203 44.4298L197.251 44.4298ZM69.6299 41.9419Q71.8304 39.0574 71.8304 33.9031L71.8304 33.586Q71.8304 28.3524 69.6002 25.4679Q67.3699 22.5835 63.4447 22.5835Q60.2134 22.5835 58.231 24.903L58.231 13.9798L52.5018 13.9798L52.5018 44.4298L57.6561 44.4298L57.9138 42.15Q59.9953 44.8263 63.4844 44.8263Q67.4294 44.8263 69.6299 41.9419ZM81.6055 44.4298L75.8565 44.4298L75.8565 13.9798L81.6055 13.9798L81.6055 44.4298ZM41.4976 17.4292Q41.4976 16.1407 42.3599 15.308Q43.2223 14.4754 44.7091 14.4754Q46.1761 14.4754 47.0484 15.308Q47.9206 16.1406 47.9206 17.4292Q47.9206 18.7376 47.0384 19.5702Q46.1563 20.4029 44.7091 20.4029Q43.2619 20.4029 42.3797 19.5702Q41.4976 18.7376 41.4976 17.4292ZM185.543 15.308Q184.68 16.1407 184.68 17.4292Q184.68 18.7376 185.563 19.5702Q186.445 20.4029 187.892 20.4029Q189.339 20.4029 190.221 19.5702Q191.103 18.7376 191.103 17.4292Q191.103 16.1406 190.231 15.308Q189.359 14.4754 187.892 14.4754Q186.405 14.4754 185.543 15.308ZM15.8036 44.4298L15.8036 15.5657L25.914 15.5657Q31.1674 15.5657 33.8833 17.5779Q36.5992 19.5901 36.5992 23.4756Q36.5992 25.5968 35.5089 27.2125Q34.4186 28.8282 32.4758 29.5815Q34.6961 30.1365 35.9748 31.8216Q37.2534 33.5067 37.2534 35.945Q37.2534 40.1081 34.597 42.2491Q31.9405 44.3902 27.0241 44.4298L15.8036 44.4298ZM142.628 44.4298L136.681 44.4298L125.103 25.4382L125.103 44.4298L119.156 44.4298L119.156 15.5657L125.103 15.5657L136.701 34.597L136.701 15.5657L142.628 15.5657L142.628 44.4298ZM177.661 17.7068L177.661 22.98L181.328 22.98L181.328 27.1827L177.661 27.1827L177.661 37.8878Q177.661 39.0773 178.117 39.5927Q178.573 40.1081 179.861 40.1081Q180.813 40.1081 181.546 39.9694L181.546 44.3109Q179.861 44.8263 178.077 44.8263Q172.051 44.8263 171.932 38.7403L171.932 27.1827L168.799 27.1827L168.799 22.98L171.932 22.98L171.932 17.7068L177.661 17.7068ZM21.7509 27.6585L26.1519 27.6585Q30.652 27.5792 30.652 24.0703Q30.652 22.1077 29.5121 21.2454Q28.3722 20.383 25.914 20.383L21.7509 20.383L21.7509 27.6585ZM88.7142 41.932Q91.6779 44.8263 96.3961 44.8263Q99.0724 44.8263 101.273 43.8053Q103.473 42.7844 104.762 40.9606L101.947 37.8085Q100.083 40.2073 96.7728 40.2073Q94.6318 40.2073 93.2341 38.9385Q91.8365 37.6698 91.559 35.5684L105.218 35.5684L105.218 33.2291Q105.218 28.1343 102.69 25.3589Q100.163 22.5835 95.7617 22.5835Q92.8277 22.5835 90.538 23.9613Q88.2484 25.3391 86.9994 27.8865Q85.7505 30.4339 85.7505 33.6653L85.7505 34.2203Q85.7505 39.0376 88.7142 41.932ZM147.982 27.8171Q146.753 30.315 146.753 33.5067L146.753 33.7644Q146.753 38.879 149.519 41.8527Q152.284 44.8263 156.923 44.8263Q161.562 44.8263 164.317 41.8428Q167.073 38.8592 167.073 33.923L167.033 32.456Q166.716 27.8964 163.97 25.24Q161.225 22.5835 156.883 22.5835Q153.83 22.5835 151.521 23.9514Q149.211 25.3193 147.982 27.8171ZM41.8346 44.4298L41.8346 22.98L47.5836 22.98L47.5836 44.4298L41.8346 44.4298ZM185.017 22.98L185.017 44.4298L190.766 44.4298L190.766 22.98L185.017 22.98ZM222.409 22.98L218.445 36.3217L214.46 22.98L208.295 22.98L215.808 44.4893L215.134 46.2536Q214.678 47.4034 213.875 47.899Q213.072 48.3947 211.447 48.3947L210.574 48.3748L210.574 52.7163Q211.863 53.093 213.112 53.093Q217.533 53.093 219.456 48.8903L219.931 47.7603L228.555 22.98L222.409 22.98ZM92.9764 28.3575Q94.037 27.2026 95.7419 27.2026Q97.5657 27.2026 98.5569 28.248Q99.5482 29.2934 99.5878 31.2049L99.5878 31.663L91.6185 31.663Q91.9158 29.5124 92.9764 28.3575ZM153.632 38.5891Q152.482 36.9709 152.482 33.9134Q152.482 30.4785 153.632 28.8405Q154.782 27.2026 156.883 27.2026Q159.005 27.2026 160.174 28.8505Q161.344 30.4983 161.344 33.4964Q161.344 37.0106 160.174 38.6089Q159.005 40.2073 156.923 40.2073Q154.782 40.2073 153.632 38.5891ZM65.0703 28.7389Q66.1012 30.2357 66.1012 33.4868Q66.1012 36.1631 65.6849 37.4715Q64.8126 40.2073 62.0372 40.2073Q59.2817 40.2073 58.231 37.9473L58.231 29.4823Q59.2618 27.2422 61.9976 27.2422Q64.0395 27.2422 65.0703 28.7389ZM21.7509 31.8613L21.7509 39.6522L26.8457 39.6522Q28.9471 39.6522 30.1266 38.6511Q31.3062 37.6499 31.3062 35.8856Q31.3062 31.9207 27.2026 31.8613L21.7509 31.8613Z" />
    </g>
    <path d="M4.999 5.71411L43.5724 5.71411Q43.6951 5.71411 43.8177 5.72013Q43.9403 5.72615 44.0624 5.73818Q44.1845 5.75021 44.3059 5.76822Q44.4273 5.78622 44.5477 5.81017Q44.668 5.83411 44.7871 5.86392Q44.9061 5.89374 45.0236 5.92937Q45.141 5.96499 45.2565 6.00633Q45.3721 6.04767 45.4855 6.09464Q45.5988 6.1416 45.7098 6.19407Q45.8207 6.24654 45.9289 6.30439Q46.0372 6.36224 46.1424 6.42533Q46.2477 6.48842 46.3497 6.55659Q46.4518 6.62477 46.5503 6.69788Q46.6489 6.77098 46.7438 6.84883Q46.8386 6.92668 46.9296 7.0091Q47.0205 7.09151 47.1073 7.17828Q47.194 7.26506 47.2764 7.35599Q47.3589 7.44692 47.4367 7.54178Q47.5146 7.63664 47.5877 7.73521Q47.6608 7.83378 47.7289 7.93582Q47.7971 8.03785 47.8602 8.14311Q47.9233 8.24837 47.9811 8.3566Q48.039 8.46483 48.0915 8.57576Q48.1439 8.6867 48.1909 8.80008Q48.2379 8.91345 48.2792 9.029Q48.3205 9.14454 48.3562 9.26198Q48.3918 9.37941 48.4216 9.49845Q48.4514 9.61749 48.4754 9.73785Q48.4993 9.85821 48.5173 9.97961Q48.5353 10.101 48.5474 10.2231Q48.5594 10.3453 48.5654 10.4678Q48.5714 10.5904 48.5714 10.7131L48.5714 49.2865Q48.5714 49.4093 48.5654 49.5318Q48.5594 49.6544 48.5474 49.7765Q48.5353 49.8987 48.5173 50.02Q48.4993 50.1414 48.4754 50.2618Q48.4514 50.3821 48.4216 50.5012Q48.3918 50.6202 48.3562 50.7377Q48.3205 50.8551 48.2792 50.9706Q48.2379 51.0862 48.1909 51.1996Q48.1439 51.3129 48.0915 51.4239Q48.039 51.5348 47.9812 51.643Q47.9233 51.7513 47.8602 51.8565Q47.7971 51.9618 47.7289 52.0638Q47.6608 52.1659 47.5877 52.2644Q47.5146 52.363 47.4367 52.4579Q47.3589 52.5527 47.2764 52.6437Q47.194 52.7346 47.1073 52.8214Q47.0205 52.9081 46.9295 52.9906Q46.8386 53.073 46.7438 53.1508Q46.6489 53.2287 46.5503 53.3018Q46.4518 53.3749 46.3497 53.443Q46.2477 53.5112 46.1424 53.5743Q46.0372 53.6374 45.9289 53.6953Q45.8207 53.7531 45.7098 53.8056Q45.5988 53.858 45.4855 53.905Q45.3721 53.952 45.2565 53.9933Q45.141 54.0347 45.0236 54.0703Q44.9061 54.1059 44.7871 54.1357Q44.668 54.1655 44.5477 54.1895Q44.4273 54.2134 44.3059 54.2314Q44.1845 54.2494 44.0624 54.2615Q43.9403 54.2735 43.8177 54.2795Q43.6951 54.2855 43.5724 54.2855L4.999 54.2855Q4.87628 54.2855 4.75371 54.2795Q4.63114 54.2735 4.50901 54.2615Q4.38688 54.2494 4.26549 54.2314Q4.1441 54.2134 4.02374 54.1895Q3.90338 54.1655 3.78434 54.1357Q3.6653 54.1059 3.54787 54.0703Q3.43043 54.0347 3.31489 53.9933Q3.19934 53.952 3.08597 53.905Q2.97259 53.858 2.86165 53.8056Q2.75072 53.7531 2.64249 53.6953Q2.53426 53.6374 2.429 53.5743Q2.32374 53.5112 2.2217 53.4431Q2.11967 53.3749 2.0211 53.3018Q1.92253 53.2287 1.82767 53.1508Q1.73281 53.073 1.64188 52.9906Q1.55095 52.9081 1.46417 52.8214Q1.3774 52.7346 1.29499 52.6437Q1.21257 52.5527 1.13472 52.4579Q1.05687 52.363 0.983765 52.2644Q0.910662 52.1659 0.842483 52.0638Q0.774305 51.9618 0.711215 51.8565Q0.648125 51.7513 0.590276 51.643Q0.532426 51.5348 0.479957 51.4239Q0.427489 51.3129 0.380526 51.1996Q0.333564 51.0862 0.292221 50.9706Q0.250879 50.8551 0.215255 50.7377Q0.179632 50.6202 0.149814 50.5012Q0.119996 50.3821 0.0960544 50.2618Q0.0721132 50.1414 0.0541066 50.02Q0.0361001 49.8987 0.0240715 49.7765Q0.012043 49.6544 0.00602151 49.5318Q0 49.4093 0 49.2865L0 10.7131Q0 10.5904 0.00602151 10.4678Q0.012043 10.3453 0.0240715 10.2231Q0.0361001 10.101 0.0541066 9.97961Q0.0721132 9.85821 0.0960544 9.73785Q0.119996 9.61749 0.149814 9.49845Q0.179632 9.37941 0.215255 9.26198Q0.250879 9.14454 0.292221 9.029Q0.333564 8.91345 0.380526 8.80008Q0.427489 8.6867 0.479957 8.57576Q0.532426 8.46483 0.590276 8.3566Q0.648125 8.24837 0.711215 8.14311Q0.774305 8.03785 0.842483 7.93582Q0.910662 7.83378 0.983765 7.73521Q1.05687 7.63664 1.13472 7.54178Q1.21257 7.44692 1.29499 7.35599Q1.3774 7.26506 1.46417 7.17828Q1.55095 7.09151 1.64188 7.0091Q1.73281 6.92668 1.82767 6.84883Q1.92253 6.77098 2.0211 6.69788Q2.11967 6.62477 2.2217 6.55659Q2.32374 6.48842 2.429 6.42533Q2.53426 6.36224 2.64249 6.30439Q2.75072 6.24654 2.86165 6.19407Q2.97259 6.1416 3.08597 6.09464Q3.19934 6.04767 3.31489 6.00633Q3.43043 5.96499 3.54787 5.92937Q3.6653 5.89374 3.78434 5.86392Q3.90338 5.83411 4.02374 5.81017Q4.1441 5.78622 4.26549 5.76822Q4.38688 5.75021 4.50901 5.73818Q4.63114 5.72615 4.75371 5.72013Q4.87628 5.71411 4.999 5.71411L4.999 5.71411Z" id="Rectangle-10" fill="#FFFFFF" fill-rule="evenodd" stroke="none" />
    <g id="Group-3" transform="translate(8.571289 31.836914)">
      <path d="M0.478656 1.06592L15.3713 1.66971L15.0015 13.9655C15.0015 13.9655 9.05435 13.5028 5.29357 13.5028C1.53279 13.5028 3.94746e-07 13.9655 3.94746e-07 13.9655L0.478656 1.06592Z" id="Rectangle-15" fill="#031932" fill-rule="evenodd" stroke="#031932" stroke-width="0.25" stroke-linecap="round" stroke-linejoin="round" />
      <path d="M16.2297 1.6785L22.7456 1.41433L31.1223 1.07471L31.5712 14.4761C31.5712 14.4761 27.2879 13.4705 23.5647 13.6215C19.8416 13.7724 16.5995 13.9743 16.5995 13.9743L16.2297 1.6785Z" id="Rectangle-15-Copy" fill="#031932" fill-rule="evenodd" stroke="#031932" stroke-width="0.25" stroke-linejoin="round" />
      <path d="M1.74979 0.587569C1.74979 0.587569 3.25261 -0.12239 6.81333 0.0185036C10.3742 0.159397 15.9933 1.15114 15.9933 1.15114L15.6144 13.4469C15.6144 13.4469 10.0483 12.2649 6.48741 12.124C2.92653 11.9831 1.37085 12.8833 1.37085 12.8833L1.74979 0.587569Z" id="Rectangle-12" fill="#FFFFFF" fill-rule="evenodd" stroke="#031932" stroke-width="0.5" />
      <path d="M15.6118 1.1511C15.6118 1.1511 17.0673 0.324085 20.628 0.183191C24.1889 0.0422974 29.8553 0.587521 29.8553 0.587521L30.2343 12.8833C30.2343 12.8833 24.6089 12.1441 21.048 12.285C17.4871 12.4259 15.9908 13.4469 15.9908 13.4469L15.6118 1.1511Z" id="Rectangle-12-Copy" fill="#FFFFFF" fill-rule="evenodd" stroke="#031932" stroke-width="0.5" />
      <path d="M15.0502 13.5316C15.0502 13.5316 15.3809 13.6324 15.7329 13.6107C16.085 13.589 16.4583 13.4448 16.4583 13.4448L16.8297 16.7347L15.8031 15.994L14.8428 16.7347L15.0502 13.5316Z" id="Rectangle-13" fill="#FFFFFF" fill-rule="evenodd" stroke="#031932" stroke-width="0.5" stroke-linejoin="round" />
    </g>
    <path d="M12.4277 16.7346L32.3037 16.7346Q32.4021 16.7346 32.4986 16.7538Q32.5951 16.773 32.686 16.8107Q32.7769 16.8483 32.8587 16.903Q32.9405 16.9576 33.0101 17.0272Q33.0796 17.0968 33.1343 17.1786Q33.189 17.2604 33.2266 17.3513Q33.2643 17.4422 33.2835 17.5387Q33.3027 17.6352 33.3027 17.7336L33.3027 22.2328Q33.3027 22.3312 33.2835 22.4277Q33.2643 22.5242 33.2266 22.6151Q33.189 22.7061 33.1343 22.7879Q33.0796 22.8697 33.0101 22.9392Q32.9405 23.0088 32.8587 23.0635Q32.7769 23.1181 32.686 23.1558Q32.5951 23.1935 32.4986 23.2127Q32.4021 23.2318 32.3037 23.2318L12.4277 23.2318Q12.3293 23.2318 12.2328 23.2127Q12.1363 23.1935 12.0454 23.1558Q11.9545 23.1181 11.8727 23.0635Q11.7909 23.0088 11.7213 22.9392Q11.6517 22.8697 11.5971 22.7879Q11.5424 22.7061 11.5048 22.6151Q11.4671 22.5242 11.4479 22.4277Q11.4287 22.3312 11.4287 22.2328L11.4287 17.7336Q11.4287 17.6352 11.4479 17.5387Q11.4671 17.4422 11.5048 17.3513Q11.5424 17.2604 11.5971 17.1786Q11.6517 17.0968 11.7213 17.0272Q11.7909 16.9576 11.8727 16.903Q11.9545 16.8483 12.0454 16.8107Q12.1363 16.773 12.2328 16.7538Q12.3293 16.7346 12.4277 16.7346Z" id="Rectangle-11" fill="#FFFFFF" fill-rule="evenodd" stroke="#031932" stroke-width="0.5" />
    <path d="M13.4697 19.7208C13.4697 18.9732 14.0757 18.3672 14.8233 18.3672C15.5709 18.3672 16.1769 18.9732 16.1769 19.7208C16.1769 20.4683 15.5709 21.0744 14.8233 21.0744C14.0757 21.0744 13.4697 20.4683 13.4697 19.7208Z" id="Ellipse-2" fill="#FFFFFF" fill-rule="evenodd" stroke="#031932" stroke-width="0.5" />
    <path d="M17.5508 19.3168L30.5452 19.3168" id="Line-2" fill="#031932" fill-rule="evenodd" stroke="#031932" stroke-width="0.5" stroke-linecap="round" />
    <path d="M17.1426 20.9494L29.0542 20.9494" id="Line-2-Copy" fill="#031932" fill-rule="evenodd" stroke="#031932" stroke-width="0.5" stroke-linecap="round" />
    <path d="M23.4482 11.4285L34.6535 11.4285Q34.7519 11.4285 34.8484 11.4477Q34.9449 11.4669 35.0358 11.5045Q35.1267 11.5422 35.2085 11.5968Q35.2903 11.6515 35.3599 11.7211Q35.4294 11.7906 35.4841 11.8725Q35.5388 11.9543 35.5764 12.0452Q35.6141 12.1361 35.6333 12.2326Q35.6525 12.3291 35.6525 12.4275L35.6525 14.3512Q35.6525 14.4496 35.6333 14.5461Q35.6141 14.6426 35.5764 14.7335Q35.5388 14.8244 35.4841 14.9063Q35.4294 14.9881 35.3599 15.0576Q35.2903 15.1272 35.2085 15.1819Q35.1267 15.2365 35.0358 15.2742Q34.9449 15.3118 34.8484 15.331Q34.7519 15.3502 34.6535 15.3502L23.4482 15.3502Q23.3498 15.3502 23.2533 15.331Q23.1568 15.3118 23.0659 15.2742Q22.975 15.2365 22.8932 15.1819Q22.8114 15.1272 22.7418 15.0576Q22.6722 14.9881 22.6176 14.9063Q22.5629 14.8244 22.5253 14.7335Q22.4876 14.6426 22.4684 14.5461Q22.4492 14.4496 22.4492 14.3512L22.4492 12.4275Q22.4492 12.3291 22.4684 12.2326Q22.4876 12.1361 22.5253 12.0452Q22.5629 11.9543 22.6176 11.8724Q22.6722 11.7906 22.7418 11.7211Q22.8114 11.6515 22.8932 11.5968Q22.975 11.5422 23.0659 11.5045Q23.1568 11.4669 23.2533 11.4477Q23.3498 11.4285 23.4482 11.4285Z" id="Rectangle-16-Copy-2" fill="#FFFFFF" fill-rule="evenodd" stroke="#031932" stroke-width="0.5" />
    <path d="M23.6733 13.0622C23.6733 12.6109 24.0391 12.2451 24.4904 12.2451C24.9416 12.2451 25.3074 12.6109 25.3074 13.0622C25.3074 13.5134 24.9416 13.8792 24.4904 13.8792C24.0391 13.8792 23.6733 13.5134 23.6733 13.0622Z" id="Ellipse-Copy-2" fill="#FFFFFF" fill-rule="evenodd" stroke="#031932" stroke-width="0.25" />
    <path d="M26.1221 13.1533L33.9656 13.1533" id="Line-2-Copy-4" fill="#031932" fill-rule="evenodd" stroke="#242424" stroke-width="0.25" stroke-linecap="round" />
    <path d="M26.1221 13.9695L33.312 13.9695" id="Line-2-Copy-5" fill="#031932" fill-rule="evenodd" stroke="#242424" stroke-width="0.25" stroke-linecap="round" />
    <path d="M22.6318 24.49L38.452 24.49Q38.5504 24.49 38.6469 24.5092Q38.7434 24.5284 38.8343 24.566Q38.9252 24.6037 39.007 24.6583Q39.0888 24.713 39.1584 24.7826Q39.2279 24.8522 39.2826 24.934Q39.3373 25.0158 39.3749 25.1067Q39.4126 25.1976 39.4318 25.2941Q39.451 25.3906 39.451 25.489L39.451 28.7835Q39.451 28.8819 39.4318 28.9784Q39.4126 29.0749 39.3749 29.1658Q39.3373 29.2567 39.2826 29.3385Q39.2279 29.4203 39.1584 29.4899Q39.0888 29.5595 39.007 29.6142Q38.9252 29.6688 38.8343 29.7065Q38.7434 29.7441 38.6469 29.7633Q38.5504 29.7825 38.452 29.7825L22.6318 29.7825Q22.5334 29.7825 22.4369 29.7633Q22.3404 29.7441 22.2495 29.7065Q22.1586 29.6688 22.0768 29.6142Q21.995 29.5595 21.9254 29.4899Q21.8558 29.4203 21.8012 29.3385Q21.7465 29.2567 21.7089 29.1658Q21.6712 29.0749 21.652 28.9784Q21.6328 28.8819 21.6328 28.7835L21.6328 25.489Q21.6328 25.3906 21.652 25.2941Q21.6712 25.1976 21.7089 25.1067Q21.7465 25.0158 21.8012 24.934Q21.8558 24.8522 21.9254 24.7826Q21.995 24.713 22.0768 24.6583Q22.1586 24.6037 22.2495 24.566Q22.3404 24.5284 22.4369 24.5092Q22.5334 24.49 22.6318 24.49Z" id="Rectangle-16-Copy-3" fill="#FFFFFF" fill-rule="evenodd" stroke="#031932" stroke-width="0.5" />
    <path d="M23.2656 26.817C23.2656 26.208 23.7593 25.7144 24.3682 25.7144C24.9772 25.7144 25.4708 26.208 25.4708 26.817C25.4708 27.4259 24.9772 27.9196 24.3682 27.9196C23.7593 27.9196 23.2656 27.4259 23.2656 26.817Z" id="Ellipse-Copy-3" fill="#FFFFFF" fill-rule="evenodd" stroke="#031932" stroke-width="0.5" />
    <path d="M26.5303 27.0308L37.1153 27.0308" id="Line-2-Copy-6" fill="#031932" fill-rule="evenodd" stroke="#031932" stroke-width="0.5" stroke-linecap="round" />
    <path d="M26.5303 28.2549L36.2333 28.2549" id="Line-2-Copy-7" fill="#031932" fill-rule="evenodd" stroke="#031932" stroke-width="0.5" stroke-linecap="round" />
  </g>
</svg>