<?xml version="1.0" encoding="utf-8"?>
<svg width="197px" height="53px" viewBox="0 0 197 53" version="1.1" xmlns:xlink="http://www.w3.org/1999/xlink" xmlns="http://www.w3.org/2000/svg">
  <defs>
    <filter id="filter_1">
      <feColorMatrix in="SourceGraphic" type="matrix" values="0 0 0 0 1 0 0 0 0 1 0 0 0 0 1 0 0 0 1 0" />
    </filter>
    <path d="M0 0L197 0L197 53L0 53L0 0Z" id="path_1" />
    <clipPath id="mask_1">
      <use xlink:href="#path_1" />
    </clipPath>
  </defs>
  <g id="logo" filter="url(#filter_1)">
    <path d="M0 0L197 0L197 53L0 53L0 0Z" id="Background" fill="none" fill-rule="evenodd" stroke="none" />
    <g clip-path="url(#mask_1)">
      <g id="Group-9" transform="translate(0.28808594 1.1647949)">
        <g id="EliYah" transform="translate(49.151054 1.069277)">
          <path d="M23.8234 25.9757L23.8234 0L18.7396 0L18.7396 25.9757L23.8234 25.9757L23.8234 25.9757ZM31.7275 4.99105C29.8721 4.99105 28.9444 4.15921 28.9444 2.49553C28.9444 0.831843 29.869 0 31.7182 0C33.5674 0 34.492 0.82875 34.492 2.48625C34.492 3.29026 34.257 3.90873 33.787 4.34166C33.317 4.77459 32.6305 4.99106 31.7275 4.99105L31.7275 4.99105ZM98.8189 25.9757L98.8189 13.8043C98.8189 11.5902 98.2469 9.89552 97.1029 8.72039C95.9587 7.54532 94.2981 6.95779 92.1211 6.95779C89.6348 6.95779 87.8289 7.87312 86.7033 9.70379L86.4435 9.70379C86.592 7.69995 86.6662 6.22799 86.6662 5.28792L86.6662 0L81.5824 0L81.5824 25.9757L86.6662 25.9757L86.6662 17.1997C86.6662 15.0226 86.9847 13.4517 87.6217 12.4869C88.2587 11.5221 89.2885 11.0397 90.711 11.0397C92.7148 11.0397 93.7167 12.3818 93.7167 15.0659L93.7167 25.9757L98.8189 25.9757L98.8189 25.9757ZM14.0454 25.9757L14.0454 21.7083L5.1766 21.7083L5.1766 15.3999L13.4332 15.3999L13.4332 11.1696L5.1766 11.1696L5.1766 5.80744L14.0454 5.80744L14.0454 1.55855L0 1.55855L0 25.9757L14.0454 25.9757L14.0454 25.9757ZM45.0122 16.643L45.0122 25.9757L50.1703 25.9757L50.1703 16.476L58.2598 1.55855L52.6936 1.55855L47.5912 11.6149L42.526 1.55855L36.9226 1.55855L45.0122 16.643L45.0122 16.643ZM76.3501 25.9757L72.7877 25.9757L71.8043 23.4338L71.6745 23.4338C70.8087 24.5223 69.9242 25.2738 69.0212 25.6882C68.1183 26.1025 66.937 26.3097 65.4774 26.3097C63.6715 26.3097 62.2552 25.7933 61.2285 24.7605C60.2019 23.7276 59.6885 22.2526 59.6885 20.3353C59.6885 18.418 60.3719 16.9832 61.7387 16.0308C63.1056 15.0783 65.2053 14.5526 68.0379 14.4537L71.2848 14.3609L71.2848 13.5445C71.2848 11.652 70.3138 10.7057 68.3718 10.7057C66.8999 10.7057 65.1496 11.151 63.121 12.0416L61.4326 8.60909C63.5725 7.48348 65.932 6.92068 68.511 6.92068C71.09 6.92068 73.0413 7.47422 74.3648 8.58129C75.6884 9.68836 76.3501 11.3428 76.3501 13.5445L76.3501 25.9757L76.3501 25.9757ZM34.2508 7.31032L34.2508 25.9757L29.167 25.9757L29.167 7.31032L34.2508 7.31032L34.2508 7.31032ZM71.2848 18.8695L71.2848 17.3295L69.3181 17.3852C67.8214 17.4347 66.7143 17.7037 65.9969 18.1923C65.2795 18.6809 64.9208 19.4262 64.9208 20.4281C64.9208 21.8629 65.7434 22.5803 67.3885 22.5803C68.576 22.5803 69.5222 22.2432 70.2272 21.5691C70.9323 20.895 71.2848 19.9951 71.2848 18.8695L71.2848 18.8695Z" id="Shape" fill="#8A2121" fill-rule="evenodd" stroke="none" />
        </g>
        <g id="Ministries" transform="translate(52.513596 32.888573)">
          <path d="M3.22435 0.0219994L3.00435 0C2.68169 7.62939e-06 2.39569 0.0513458 2.14637 0.154011C1.89704 0.256676 1.76871 0.392342 1.76138 0.561001C1.75404 0.729675 1.69904 1.09634 1.59637 1.661C1.49371 2.22567 1.41304 2.79034 1.35437 3.355C1.29571 3.91967 1.11237 5.46701 0.804375 7.99702C0.496376 10.527 0.309372 12.1624 0.243374 12.903C0.177376 13.6437 0.118706 14.168 0.0673752 14.476C0.0160408 14.784 -0.00595856 15.0187 0.00137329 15.18C0.00870514 15.3414 0.0490417 15.444 0.122375 15.488C0.195709 15.532 0.415707 15.5467 0.782375 15.532C1.14903 15.5173 1.40203 15.4477 1.54137 15.323C1.68071 15.1984 1.77237 14.8574 1.81638 14.3C1.94837 12.7894 2.05104 11.616 2.12437 10.78C2.19771 9.94402 2.3407 8.51035 2.55335 6.47901C2.76602 4.44767 2.87235 3.39533 2.87235 3.322C2.94569 3.48333 3.38569 4.34867 4.19235 5.91801C4.99902 7.48735 5.75802 8.97969 6.46935 10.395C7.18069 11.8104 7.59502 12.6574 7.71235 12.936C7.82969 13.2147 7.99469 13.519 8.20735 13.849C8.42002 14.179 8.58502 14.344 8.70235 14.344C8.81969 14.344 9.02502 14.1277 9.31835 13.695C9.61169 13.2624 9.97102 12.683 10.3964 11.957C10.8217 11.231 11.17 10.6554 11.4414 10.23C11.7127 9.80469 12.3434 8.73035 13.3334 7.00702C14.3234 5.28368 14.943 4.21667 15.1924 3.806C15.2364 4.18733 15.3794 5.92534 15.6214 9.02002C15.8633 12.1147 15.9844 13.7574 15.9844 13.948C16.0137 15.0187 16.2484 15.554 16.6884 15.554C17.495 15.5394 17.957 15.488 18.0744 15.4C18.1917 15.312 18.2504 15.103 18.2504 14.773C18.2504 14.443 18.0524 12.342 17.6564 8.47002C17.3337 5.41934 17.1614 3.78034 17.1394 3.55301C17.1174 3.32568 17.077 2.80134 17.0184 1.98C16.9597 1.15868 16.879 0.572006 16.7764 0.220001C16.6884 0.117332 16.4757 0.0696678 16.1384 0.0769997C15.801 0.0843391 15.5664 0.132008 15.4344 0.220001L14.7744 1.43C14.2904 2.25134 13.524 3.58968 12.4753 5.445C11.4267 7.30035 10.7484 8.48469 10.4404 8.99802C10.1324 9.51135 9.94169 9.83402 9.86835 9.96602C9.79502 10.098 9.72902 10.2117 9.67036 10.307C9.61169 10.4024 9.54202 10.505 9.46135 10.615C9.38069 10.725 9.30735 10.813 9.24136 10.879C9.17535 10.945 9.11302 10.978 9.05435 10.978C8.99569 10.978 8.87102 10.7947 8.68035 10.428C8.48969 10.0614 8.26969 9.62135 8.02036 9.10802C7.77102 8.59469 7.51435 8.05569 7.25035 7.49102C6.98635 6.92634 6.61235 6.21867 6.12835 5.368C4.69102 2.596 3.82569 0.945999 3.53236 0.417999C3.50302 0.359333 3.48469 0.319 3.47736 0.297001C3.47002 0.275009 3.45169 0.242008 3.42236 0.198002C3.39302 0.153999 3.37102 0.128334 3.35635 0.121002C3.34169 0.113674 3.31969 0.0953407 3.29035 0.0660019C3.26102 0.0366669 3.23902 0.0219994 3.22435 0.0219994L3.22435 0.0219994ZM22.1254 2.409C22.3234 2.66567 22.4957 2.816 22.6424 2.86C22.789 2.904 22.976 2.926 23.2034 2.926C23.4307 2.926 23.6874 2.816 23.9734 2.596C24.2594 2.37601 24.4024 2.03867 24.4024 1.584C24.4024 0.938667 24.065 0.616001 23.3904 0.616001C22.9357 0.616001 22.5654 0.737 22.2794 0.979C21.9934 1.221 21.8467 1.45567 21.8394 1.683C21.832 1.91034 21.9274 2.15234 22.1254 2.409L22.1254 2.409ZM40.3254 2.409C40.5234 2.66567 40.6957 2.816 40.8424 2.86C40.989 2.904 41.176 2.926 41.4034 2.926C41.6307 2.926 41.8874 2.816 42.1734 2.596C42.4594 2.37601 42.6023 2.03867 42.6023 1.584C42.6023 0.938667 42.265 0.616001 41.5904 0.616001C41.1357 0.616001 40.7654 0.737 40.4794 0.979C40.1934 1.221 40.0467 1.45567 40.0394 1.683C40.032 1.91034 40.1274 2.15234 40.3254 2.409L40.3254 2.409ZM70.3894 2.409C70.5874 2.66567 70.7597 2.816 70.9064 2.86C71.053 2.904 71.24 2.926 71.4674 2.926C71.6947 2.926 71.9514 2.816 72.2374 2.596C72.5234 2.37601 72.6664 2.03867 72.6664 1.584C72.6664 0.938667 72.329 0.616001 71.6544 0.616001C71.1997 0.616001 70.8294 0.737 70.5434 0.979C70.2574 1.221 70.1107 1.45567 70.1034 1.683C70.096 1.91034 70.1914 2.15234 70.3894 2.409L70.3894 2.409ZM56.4244 13.695C56.219 13.3797 56.1164 12.9214 56.1164 12.32L56.1604 9.15202C56.1604 8.31602 56.175 7.76602 56.2044 7.50202C56.263 7.47269 56.4097 7.45802 56.6444 7.45802L58.0744 7.54602C58.8664 7.54602 59.2624 7.14268 59.2624 6.336C59.2624 6.05734 59.145 5.91801 58.9104 5.91801L57.1504 6.05001C56.7543 6.05001 56.4684 6.04268 56.2924 6.028L56.3584 3.608C56.3584 3.32934 56.2264 3.19001 55.9623 3.19001C54.9797 3.19001 54.4004 3.23401 54.2244 3.322C54.2097 3.38068 54.2024 3.60067 54.2024 3.982L54.2024 5.346C54.2024 5.84467 54.0997 6.094 53.8944 6.094L53.0364 6.028C52.7724 6.028 52.5927 6.11234 52.4974 6.28101C52.402 6.44968 52.3544 6.73935 52.3544 7.15002C52.3544 7.38469 52.5377 7.50202 52.9044 7.50202L53.7624 7.43602C53.9237 7.43602 54.0337 7.46169 54.0924 7.51302C54.151 7.56435 54.1804 7.69269 54.1804 7.89802L54.1364 9.74602L54.0924 12.298C54.0924 13.1047 54.2317 13.8014 54.5104 14.388C55.0824 15.312 55.8817 15.774 56.9084 15.774C58.727 15.774 59.6364 15.2827 59.6364 14.3C59.6364 14.2033 59.6126 14.1265 59.565 14.0697C59.4393 13.9196 59.1478 13.9084 58.6904 14.036C58.353 14.124 57.9424 14.168 57.4584 14.168C56.9743 14.168 56.6297 14.0104 56.4244 13.695L56.4244 13.695ZM28.5084 5.984L29.5424 5.962C29.5424 6.03534 29.5864 6.21868 29.6744 6.51201C29.7624 6.48268 30.0117 6.39468 30.4224 6.248C31.3904 5.91068 32.1934 5.74201 32.8314 5.742C33.4694 5.74201 34.0304 5.84101 34.5144 6.039C34.9984 6.237 35.3724 6.48634 35.6364 6.78702C35.9004 7.08769 36.113 7.48735 36.2744 7.98602C36.509 8.79269 36.6264 9.86335 36.6264 11.198L36.5163 14.96C36.5163 15.2534 36.4907 15.422 36.4394 15.466C36.388 15.51 36.1827 15.532 35.8234 15.532C35.464 15.532 35.0497 15.5027 34.5804 15.444C34.5364 15.092 34.5144 14.476 34.5144 13.596L34.5364 10.78C34.5364 9.60669 34.3384 8.72302 33.9424 8.12902C33.5463 7.53502 32.868 7.23802 31.9074 7.23802C30.9467 7.23802 30.217 7.37735 29.7184 7.65602L29.7624 10.604C29.777 11.924 29.7844 12.9507 29.7844 13.684L29.8284 14.982C29.8284 15.2167 29.7697 15.367 29.6524 15.433C29.535 15.499 29.2857 15.532 28.9044 15.532L27.7604 15.488L27.6724 10.89L27.7604 7.54602L27.7604 6.75402C27.7604 6.24068 28.0097 5.98401 28.5084 5.984L28.5084 5.984ZM45.0584 14.432L45.8503 14.52C46.437 14.52 46.965 14.3917 47.4343 14.135C47.9037 13.8784 48.1384 13.508 48.1384 13.024C48.1384 12.848 48.1054 12.661 48.0394 12.463C47.9734 12.265 47.7387 11.979 47.3354 11.605C46.932 11.231 46.5617 10.802 46.2244 10.318C45.887 9.83402 45.7184 9.29136 45.7184 8.69002C45.7184 8.10336 45.9824 7.48735 46.5104 6.84202C46.7597 6.53401 47.1337 6.27367 47.6324 6.061C48.131 5.84834 48.6187 5.74201 49.0954 5.742C49.572 5.74201 49.8653 5.79701 49.9753 5.907C50.0854 6.01701 50.1257 6.17468 50.0964 6.38001L49.9204 7.01802C49.7004 6.95935 49.4473 6.93002 49.1614 6.93002C48.8754 6.93002 48.5784 7.04369 48.2704 7.27102C47.9623 7.49835 47.8084 7.78802 47.8084 8.14002C47.8084 8.49202 47.9404 8.84769 48.2044 9.20702C48.4684 9.56635 48.7617 9.87802 49.0844 10.142C49.407 10.406 49.7004 10.7654 49.9644 11.22C50.2284 11.6747 50.3604 12.166 50.3604 12.694C50.3604 13.706 49.913 14.4724 49.0183 14.993C48.1237 15.5137 47.0604 15.774 45.8284 15.774C45.5057 15.774 45.271 15.7117 45.1244 15.587C44.9777 15.4624 44.9044 15.2644 44.9044 14.993C44.9044 14.7217 44.9557 14.5347 45.0584 14.432L45.0584 14.432ZM83.4824 10.076L78.4444 10.098C77.9017 10.098 77.5864 10.142 77.4983 10.23C77.425 10.3327 77.3884 10.5014 77.3884 10.736C77.3884 11.88 77.7147 12.7564 78.3674 13.365C79.02 13.9737 79.7644 14.278 80.6004 14.278C81.4364 14.278 82.089 14.168 82.5584 13.948C82.573 13.948 82.7197 13.8527 82.9983 13.662C83.277 13.4714 83.4714 13.376 83.5814 13.376C83.6914 13.376 83.7757 13.42 83.8343 13.508C83.893 13.596 83.9224 13.684 83.9224 13.772C83.9224 14.3294 83.5117 14.8024 82.6904 15.191C81.869 15.5797 80.912 15.774 79.8194 15.774C78.7267 15.774 77.6854 15.334 76.6954 14.454C75.7053 13.574 75.2104 12.386 75.2104 10.89C75.2104 9.39402 75.676 8.16202 76.6074 7.19402C77.5387 6.22601 78.789 5.74201 80.3584 5.742C81.5024 5.74201 82.4264 6.07935 83.1304 6.75402C83.8783 7.45802 84.2524 8.30869 84.2524 9.30602C84.2524 9.81936 83.9957 10.076 83.4824 10.076L83.4824 10.076ZM87.2143 14.52L86.4224 14.432C86.3197 14.5347 86.2684 14.7217 86.2684 14.993C86.2684 15.2644 86.3417 15.4624 86.4884 15.587C86.635 15.7117 86.8697 15.774 87.1923 15.774C88.4244 15.774 89.4877 15.5137 90.3823 14.993C91.277 14.4724 91.7244 13.706 91.7244 12.694C91.7244 12.166 91.5924 11.6747 91.3284 11.22C91.0644 10.7654 90.771 10.406 90.4484 10.142C90.1257 9.87802 89.8324 9.56635 89.5684 9.20702C89.3043 8.84769 89.1724 8.49202 89.1724 8.14002C89.1724 7.78802 89.3263 7.49835 89.6344 7.27102C89.9423 7.04369 90.2393 6.93002 90.5254 6.93002C90.8114 6.93002 91.0644 6.95935 91.2844 7.01802L91.4604 6.38001C91.4897 6.17468 91.4494 6.01701 91.3393 5.907C91.2294 5.79701 90.936 5.74201 90.4593 5.742C89.9827 5.74201 89.495 5.84834 88.9964 6.061C88.4977 6.27367 88.1237 6.53401 87.8744 6.84202C87.3464 7.48735 87.0824 8.10336 87.0824 8.69002C87.0824 9.29136 87.251 9.83402 87.5884 10.318C87.9257 10.802 88.296 11.231 88.6994 11.605C89.1027 11.979 89.3373 12.265 89.4033 12.463C89.4694 12.661 89.5024 12.848 89.5024 13.024C89.5024 13.508 89.2677 13.8784 88.7984 14.135C88.329 14.3917 87.801 14.52 87.2143 14.52L87.2143 14.52ZM62.2684 8.29402C62.283 8.17669 62.2904 7.97136 62.2904 7.67802C62.2904 7.38469 62.3014 7.16469 62.3234 7.01802C62.3454 6.87135 62.3784 6.69535 62.4224 6.49C62.5104 6.12334 62.723 5.94001 63.0604 5.94C63.7937 5.94001 64.1604 6.10134 64.1604 6.424C64.1604 6.67335 64.1677 6.84935 64.1824 6.95202C64.2704 6.95202 64.6957 6.75401 65.4584 6.358C66.221 5.962 66.8737 5.764 67.4164 5.764C67.6364 5.764 67.7867 5.819 67.8674 5.929C67.948 6.039 67.9884 6.29201 67.9884 6.68802C67.9884 7.08402 67.937 7.38469 67.8344 7.59002C67.7464 7.60469 67.5887 7.62669 67.3614 7.65602C67.134 7.68536 66.9654 7.70736 66.8554 7.72202C66.7454 7.73669 66.5877 7.76235 66.3824 7.79902C66.177 7.83569 66.0157 7.86502 65.8984 7.88702C65.781 7.90902 65.638 7.93835 65.4694 7.97502C65.3007 8.01169 65.1614 8.05202 65.0514 8.09602C64.9414 8.14002 64.8277 8.18402 64.7104 8.22802C64.4757 8.31602 64.3144 8.43335 64.2264 8.58002L64.2264 10.01L64.2704 13.75L64.2704 14.443C64.2704 14.6264 64.2667 14.7767 64.2594 14.894C64.252 15.0114 64.219 15.1287 64.1604 15.246C64.043 15.4367 63.7387 15.532 63.2474 15.532C62.756 15.532 62.4664 15.5027 62.3784 15.444C62.2024 15.3267 62.1144 14.5714 62.1144 13.178L62.2684 8.29402L62.2684 8.29402ZM24.0723 15.092L24.0064 10.736L24.0064 7.56802C24.0064 7.20135 23.9917 6.69535 23.9624 6.05001C23.6984 6.006 23.3794 5.984 23.0054 5.984C22.6314 5.984 22.3783 6.02067 22.2464 6.094C22.1144 6.16734 22.0484 6.40935 22.0484 6.82002L21.9824 8.11802C21.9677 8.49936 21.9604 9.39402 21.9604 10.802L22.0484 14.828C22.0484 15.1654 22.1034 15.367 22.2134 15.433C22.3234 15.499 22.613 15.532 23.0824 15.532C23.5517 15.532 23.8597 15.4954 24.0064 15.422C24.0504 15.378 24.0723 15.268 24.0723 15.092L24.0723 15.092ZM42.2724 15.092L42.2064 10.736L42.2064 7.56802C42.2064 7.20135 42.1917 6.69535 42.1624 6.05001C41.8984 6.006 41.5794 5.984 41.2054 5.984C40.8314 5.984 40.5784 6.02067 40.4464 6.094C40.3144 6.16734 40.2484 6.40935 40.2484 6.82002L40.1824 8.11802C40.1677 8.49936 40.1604 9.39402 40.1604 10.802L40.2484 14.828C40.2484 15.1654 40.3034 15.367 40.4134 15.433C40.5234 15.499 40.813 15.532 41.2824 15.532C41.7517 15.532 42.0597 15.4954 42.2064 15.422C42.2504 15.378 42.2724 15.268 42.2724 15.092L42.2724 15.092ZM72.3364 15.092L72.2704 10.736L72.2704 7.56802C72.2704 7.20135 72.2557 6.69535 72.2264 6.05001C71.9624 6.006 71.6434 5.984 71.2694 5.984C70.8954 5.984 70.6423 6.02067 70.5104 6.094C70.3784 6.16734 70.3124 6.40935 70.3124 6.82002L70.2464 8.11802C70.2317 8.49936 70.2244 9.39402 70.2244 10.802L70.3124 14.828C70.3124 15.1654 70.3674 15.367 70.4774 15.433C70.5874 15.499 70.877 15.532 71.3464 15.532C71.8157 15.532 72.1237 15.4954 72.2704 15.422C72.3144 15.378 72.3364 15.268 72.3364 15.092L72.3364 15.092ZM77.7624 8.99802C80.549 8.99802 82.1623 8.98335 82.6023 8.95402C82.5584 8.36736 82.3347 7.88335 81.9314 7.50202C81.528 7.12069 81.0184 6.93002 80.4024 6.93002C79.7864 6.93002 79.2107 7.14635 78.6753 7.57902C78.14 8.01169 77.8357 8.48469 77.7624 8.99802L77.7624 8.99802Z" id="Shape" fill="#8A2121" fill-rule="evenodd" stroke="none" />
        </g>
        <path d="M2.22038 9.61155L4.97174 8.60392C5.03338 8.58134 5.09597 8.56186 5.15952 8.54545C5.22307 8.52904 5.28728 8.5158 5.35214 8.50572C5.41699 8.49564 5.48219 8.48876 5.54772 8.48511C5.61326 8.48145 5.67881 8.48101 5.74439 8.48381C5.80996 8.48661 5.87524 8.49262 5.94023 8.50185C6.00521 8.51108 6.06958 8.52348 6.13335 8.53904C6.19711 8.55461 6.25995 8.57328 6.32188 8.59504C6.3838 8.61679 6.44451 8.64154 6.50399 8.66928C6.56348 8.69702 6.62146 8.72761 6.67793 8.76106C6.73441 8.79451 6.7891 8.83066 6.84201 8.8695C6.89492 8.90833 6.9458 8.94967 6.99464 8.99352C7.04348 9.03737 7.09005 9.08352 7.13434 9.13195C7.17864 9.18038 7.22045 9.23088 7.25977 9.28344C7.29908 9.33599 7.33573 9.39035 7.3697 9.44651C7.40366 9.50267 7.43479 9.56037 7.46307 9.61959C7.49135 9.67883 7.51666 9.7393 7.53899 9.80102L18.8254 41.0027C18.8476 41.064 18.8667 41.1264 18.8829 41.1897C18.899 41.253 18.9119 41.3169 18.9218 41.3815C18.9316 41.446 18.9383 41.5109 18.9417 41.5761C18.9452 41.6413 18.9455 41.7065 18.9426 41.7718C18.9397 41.837 18.9336 41.902 18.9243 41.9666C18.915 42.0312 18.9026 42.0953 18.8871 42.1587C18.8715 42.2221 18.8529 42.2846 18.8312 42.3462C18.8095 42.4078 18.7849 42.4682 18.7573 42.5274C18.7297 42.5866 18.6993 42.6443 18.666 42.7005C18.6328 42.7567 18.5969 42.8112 18.5583 42.8639C18.5197 42.9165 18.4786 42.9672 18.4351 43.0159C18.3915 43.0645 18.3457 43.1109 18.2976 43.1551C18.2494 43.1992 18.1993 43.2409 18.1471 43.2802C18.0949 43.3195 18.041 43.3561 17.9852 43.39C17.9294 43.424 17.8721 43.4552 17.8132 43.4835C17.7544 43.5118 17.6943 43.5372 17.633 43.5597L14.8816 44.5673C14.82 44.5899 14.7574 44.6094 14.6939 44.6258C14.6303 44.6422 14.5661 44.6554 14.5013 44.6655C14.4364 44.6756 14.3712 44.6825 14.3057 44.6861C14.2402 44.6898 14.1746 44.6902 14.109 44.6874C14.0435 44.6846 13.9782 44.6786 13.9132 44.6694C13.8482 44.6602 13.7838 44.6478 13.7201 44.6322C13.6563 44.6167 13.5935 44.598 13.5315 44.5762C13.4696 44.5545 13.4089 44.5297 13.3494 44.502C13.2899 44.4742 13.2319 44.4436 13.1755 44.4102C13.119 44.3767 13.0643 44.3406 13.0114 44.3017C12.9585 44.2629 12.9076 44.2216 12.8588 44.1778C12.8099 44.1339 12.7634 44.0877 12.7191 44.0393C12.6748 43.9909 12.633 43.9404 12.5937 43.8878C12.5543 43.8353 12.5177 43.7809 12.4837 43.7247C12.4497 43.6685 12.4186 43.6108 12.3903 43.5516C12.362 43.4924 12.3367 43.4319 12.3144 43.3702L1.02803 12.1686C1.00581 12.1072 0.986657 12.0448 0.970553 11.9815C0.954452 11.9183 0.941481 11.8543 0.931642 11.7898C0.921805 11.7252 0.915146 11.6603 0.911665 11.5951C0.908186 11.5299 0.907903 11.4647 0.910816 11.3995C0.91373 11.3342 0.919825 11.2693 0.929102 11.2046C0.938379 11.14 0.950795 11.076 0.966348 11.0125C0.981901 10.9491 1.00052 10.8866 1.0222 10.825C1.04388 10.7634 1.06851 10.703 1.09611 10.6438C1.12371 10.5846 1.15414 10.5269 1.18739 10.4707C1.22064 10.4145 1.25656 10.3601 1.29515 10.3074C1.33374 10.2547 1.37481 10.2041 1.41836 10.1554C1.46192 10.1067 1.50775 10.0603 1.55585 10.0162C1.60396 9.97199 1.6541 9.93028 1.70629 9.89103C1.75848 9.85178 1.81246 9.81517 1.86825 9.78121C1.92402 9.74725 1.98133 9.7161 2.04016 9.68775C2.09899 9.65941 2.15906 9.63401 2.22038 9.61155L2.22038 9.61155Z" id="Rectangle-2" fill="#8A2121" fill-rule="evenodd" stroke="none" />
        <path d="M26.0681 4.54854L28.8951 3.78635C28.9585 3.76928 29.0225 3.75535 29.0872 3.74458C29.1519 3.7338 29.217 3.72623 29.2824 3.72187C29.3479 3.7175 29.4134 3.71636 29.479 3.71844C29.5445 3.72052 29.6098 3.72582 29.6749 3.73433C29.7399 3.74285 29.8044 3.75453 29.8683 3.76939C29.9322 3.78425 29.9952 3.80221 30.0573 3.82327C30.1194 3.84433 30.1804 3.86839 30.2401 3.89545C30.2999 3.92251 30.3582 3.95245 30.415 3.98524C30.4718 4.01804 30.5269 4.05355 30.5802 4.09177C30.6335 4.12999 30.6848 4.17074 30.7341 4.21401C30.7834 4.25728 30.8305 4.30287 30.8753 4.35077C30.9201 4.39868 30.9624 4.44867 31.0023 4.50074C31.0422 4.55281 31.0795 4.60672 31.1141 4.66246C31.1486 4.7182 31.1804 4.77551 31.2094 4.83437C31.2383 4.89324 31.2643 4.95339 31.2873 5.01481C31.3103 5.07623 31.3303 5.13864 31.3472 5.20203L39.8883 37.2759C39.9051 37.3391 39.9188 37.403 39.9294 37.4674C39.9399 37.5319 39.9473 37.5967 39.9515 37.6619C39.9557 37.7271 39.9567 37.7924 39.9545 37.8577C39.9523 37.923 39.9469 37.988 39.9384 38.0528C39.9298 38.1176 39.918 38.1818 39.9032 38.2454C39.8883 38.309 39.8703 38.3718 39.8493 38.4337C39.8283 38.4955 39.8043 38.5562 39.7773 38.6157C39.7503 38.6752 39.7205 38.7333 39.6879 38.7899C39.6552 38.8465 39.6198 38.9013 39.5818 38.9545C39.5437 39.0075 39.5031 39.0586 39.4601 39.1078C39.417 39.1569 39.3717 39.2039 39.324 39.2486C39.2763 39.2933 39.2266 39.3355 39.1748 39.3753C39.123 39.4152 39.0694 39.4523 39.0139 39.4869C38.9585 39.5215 38.9014 39.5532 38.8429 39.5822C38.7843 39.6111 38.7245 39.6372 38.6633 39.6603C38.6022 39.6834 38.5401 39.7034 38.477 39.7205L35.65 40.4826C35.5867 40.4997 35.5227 40.5137 35.458 40.5244C35.3932 40.5351 35.3282 40.5427 35.2627 40.5471C35.1973 40.5515 35.1318 40.5527 35.0662 40.5506C35.0006 40.5485 34.9353 40.5431 34.8703 40.5346C34.8052 40.5261 34.7408 40.5144 34.6769 40.4996C34.613 40.4847 34.55 40.4668 34.4878 40.4457C34.4257 40.4246 34.3648 40.4006 34.305 40.3735C34.2453 40.3465 34.187 40.3165 34.1302 40.2837C34.0733 40.2509 34.0183 40.2154 33.965 40.1772C33.9117 40.139 33.8604 40.0982 33.811 40.0549C33.7617 40.0117 33.7147 39.9661 33.6699 39.9182C33.6251 39.8703 33.5827 39.8203 33.5428 39.7683C33.5029 39.7162 33.4657 39.6622 33.4311 39.6065C33.3965 39.5507 33.3647 39.4934 33.3358 39.4346C33.3068 39.3757 33.2809 39.3156 33.2578 39.2542C33.2348 39.1928 33.2149 39.1303 33.198 39.0669L24.6568 6.99303C24.64 6.92988 24.6263 6.86607 24.6158 6.80159C24.6052 6.73711 24.5978 6.67226 24.5936 6.60706C24.5894 6.54185 24.5884 6.4766 24.5906 6.4113C24.5928 6.34599 24.5982 6.28096 24.6068 6.21618C24.6154 6.1514 24.6271 6.0872 24.642 6.02358C24.6569 5.95995 24.6748 5.89721 24.6958 5.83534C24.7169 5.77348 24.7409 5.71279 24.7678 5.65328C24.7948 5.59377 24.8246 5.53572 24.8573 5.47913C24.89 5.42255 24.9253 5.36769 24.9634 5.31457C25.0014 5.26145 25.042 5.21032 25.0851 5.16118C25.1281 5.11204 25.1735 5.06512 25.2211 5.02042C25.2688 4.97573 25.3185 4.93348 25.3704 4.89366C25.4222 4.85384 25.4758 4.81665 25.5312 4.7821C25.5867 4.74754 25.6437 4.71577 25.7023 4.68681C25.7608 4.65784 25.8207 4.63181 25.8818 4.60871C25.9429 4.58561 26.005 4.56555 26.0681 4.54854L26.0681 4.54854L26.0681 4.54854Z" id="Rectangle-2-Copy" fill="#8A2121" fill-rule="evenodd" stroke="none" />
        <path d="M6.72458 13.3733C6.72458 13.3733 11.9173 10.7999 17.0285 9.91266C22.1398 9.02538 26.262 9.65946 26.262 9.65946L33.9245 38.35C33.9245 38.35 30.0723 37.5765 26.0151 38.4157C24.6814 38.6916 18.0281 41.7266 18.0281 41.7266L6.72458 13.3733L6.72458 13.3733Z" id="Rectangle" fill="#8A2121" fill-rule="evenodd" stroke="none" />
        <path d="M24.3986 4.51896L30.0685 2.99028C30.1319 2.97317 30.1964 2.96243 30.262 2.95805C30.3276 2.95368 30.393 2.95576 30.4582 2.96428C30.5233 2.97281 30.587 2.98763 30.6493 3.00873C30.7115 3.02983 30.7711 3.05681 30.828 3.08968C30.8849 3.12254 30.9381 3.16065 30.9875 3.204C31.0369 3.24736 31.0816 3.29512 31.1216 3.3473C31.1615 3.39947 31.196 3.45505 31.225 3.51403C31.254 3.57301 31.277 3.63426 31.2939 3.69777L31.3499 3.90798C31.3667 3.97124 31.3772 4.03553 31.3814 4.10086C31.3857 4.1662 31.3835 4.23131 31.3749 4.29621C31.3663 4.36111 31.3514 4.42455 31.3304 4.48654C31.3093 4.54851 31.2824 4.60785 31.2497 4.66455C31.2169 4.72124 31.179 4.77421 31.1359 4.82344C31.0927 4.87268 31.0452 4.91724 30.9933 4.95714C30.9414 4.99703 30.8861 5.03149 30.8274 5.06051C30.7687 5.08953 30.7078 5.11257 30.6446 5.12961L24.9746 6.65829C24.9112 6.67539 24.8467 6.68614 24.7811 6.69051C24.7155 6.69489 24.6501 6.69281 24.585 6.68429C24.5198 6.67576 24.4561 6.66094 24.3938 6.63984C24.3316 6.61874 24.272 6.59176 24.2151 6.5589C24.1582 6.52603 24.105 6.48792 24.0556 6.44457C24.0062 6.40121 23.9615 6.35345 23.9216 6.30127C23.8816 6.2491 23.8471 6.19352 23.8181 6.13454C23.7891 6.07556 23.7662 6.01431 23.7492 5.9508L23.6933 5.74059C23.6764 5.67733 23.6659 5.61303 23.6617 5.5477C23.6575 5.48237 23.6597 5.41726 23.6683 5.35236C23.6769 5.28746 23.6917 5.22402 23.7128 5.16204C23.7338 5.10005 23.7607 5.04072 23.7935 4.98402C23.8262 4.92733 23.8641 4.87436 23.9073 4.82512C23.9504 4.77589 23.9979 4.73132 24.0498 4.69143C24.1018 4.65154 24.157 4.61708 24.2157 4.58806C24.2744 4.55903 24.3354 4.536 24.3986 4.51896L24.3986 4.51896Z" id="Rectangle-3" fill="#8A2121" fill-rule="evenodd" stroke="none" />
        <path d="M24.8741 1.58286C24.8741 0.708669 25.5785 0 26.4474 0C27.3164 0 28.0208 0.708669 28.0208 1.58286C28.0208 2.45704 27.3164 3.16571 26.4474 3.16571C25.5785 3.16571 24.8741 2.45704 24.8741 1.58286L24.8741 1.58286Z" id="Ellipse" fill="#8A2121" fill-rule="evenodd" stroke="none" />
        <path d="M26.7974 2.32663L26.7993 2.32611C26.8491 2.31269 26.8997 2.30426 26.9512 2.30083C27.0026 2.2974 27.0539 2.29903 27.105 2.30572C27.1561 2.31241 27.2061 2.32403 27.2549 2.34058C27.3037 2.35713 27.3505 2.3783 27.3951 2.40407C27.4398 2.42985 27.4815 2.45974 27.5202 2.49375C27.559 2.52776 27.594 2.56522 27.6254 2.60615C27.6567 2.64707 27.6838 2.69067 27.7065 2.73693C27.7293 2.7832 27.7473 2.83124 27.7605 2.88106L27.9261 3.50285C27.9394 3.55279 27.9477 3.60354 27.951 3.6551C27.9544 3.70666 27.9526 3.75805 27.9459 3.80928C27.9391 3.8605 27.9274 3.91057 27.9107 3.95949C27.8941 4.00841 27.8729 4.05524 27.847 4.09999C27.8212 4.14474 27.7913 4.18654 27.7572 4.2254C27.7232 4.26427 27.6856 4.29944 27.6447 4.33092C27.6037 4.36241 27.5601 4.38961 27.5138 4.41252C27.4674 4.43543 27.4193 4.4536 27.3694 4.46705L27.3675 4.46757C27.3177 4.48099 27.2671 4.48942 27.2157 4.49285C27.1643 4.49628 27.113 4.49465 27.0619 4.48796C27.0107 4.48127 26.9608 4.46966 26.9119 4.4531C26.8631 4.43655 26.8164 4.41538 26.7717 4.38961C26.7271 4.36383 26.6854 4.33394 26.6466 4.29993C26.6079 4.26592 26.5728 4.22846 26.5415 4.18753C26.5101 4.14661 26.4831 4.10301 26.4603 4.05675C26.4376 4.01049 26.4196 3.96244 26.4063 3.91262L26.2407 3.29082C26.2274 3.24089 26.2191 3.19015 26.2158 3.13858C26.2125 3.08702 26.2142 3.03563 26.221 2.98441C26.2278 2.93318 26.2395 2.88311 26.2561 2.83419C26.2727 2.78527 26.294 2.73843 26.3198 2.69369C26.3456 2.64894 26.3756 2.60714 26.4096 2.56828C26.4437 2.52942 26.4812 2.49424 26.5222 2.46276C26.5631 2.43127 26.6068 2.40407 26.6531 2.38117C26.6994 2.35826 26.7475 2.34008 26.7974 2.32663L26.7974 2.32663L26.7974 2.32663Z" id="Rectangle-4" fill="#8A2121" fill-rule="evenodd" stroke="none" />
        <path d="M0.655457 9.85195L6.02411 7.88579C6.08586 7.86318 6.14922 7.84682 6.21421 7.83672C6.27919 7.82661 6.34453 7.82296 6.41023 7.82577C6.47594 7.82857 6.54073 7.83777 6.60462 7.85337C6.66851 7.86897 6.73025 7.89066 6.78985 7.91846C6.84945 7.94625 6.90576 7.9796 6.95877 8.01851C7.01179 8.05743 7.06048 8.10115 7.10486 8.14968C7.14924 8.19821 7.18845 8.25061 7.22248 8.30688C7.25652 8.36315 7.28472 8.4222 7.30709 8.48405L7.32703 8.5392C7.34929 8.60072 7.36535 8.66383 7.37521 8.72851C7.38506 8.79319 7.38853 8.85821 7.38561 8.92358C7.38269 8.98894 7.37344 9.05339 7.35786 9.11694C7.34227 9.18048 7.32066 9.2419 7.29301 9.3012C7.26536 9.3605 7.2322 9.41654 7.19354 9.46932C7.15488 9.52211 7.11145 9.57063 7.06326 9.61488C7.01506 9.65913 6.96302 9.69827 6.90714 9.73229C6.85126 9.76632 6.79259 9.79458 6.73116 9.81708L1.3625 11.7832C1.30075 11.8059 1.23739 11.8222 1.1724 11.8323C1.10742 11.8424 1.04208 11.8461 0.976376 11.8433C0.910673 11.8405 0.845879 11.8313 0.781994 11.8157C0.718108 11.8001 0.656365 11.7784 0.596764 11.7506C0.537161 11.7228 0.480853 11.6894 0.42784 11.6505C0.374824 11.6116 0.326127 11.5679 0.281747 11.5194C0.237367 11.4708 0.19816 11.4184 0.164128 11.3622C0.130095 11.3059 0.101894 11.2468 0.0795254 11.185L0.0595753 11.1298C0.0373203 11.0683 0.0212644 11.0052 0.0114077 10.9405C0.00155067 10.8758 -0.00191849 10.8108 0.0010002 10.7455C0.00391898 10.6801 0.0131697 10.6156 0.0287524 10.5521C0.0443351 10.4885 0.0659517 10.4271 0.0936022 10.3678C0.121253 10.3085 0.15441 10.2525 0.193072 10.1997C0.231733 10.1469 0.275161 10.0984 0.323355 10.0542C0.37155 10.0099 0.423589 9.97076 0.479474 9.93674C0.535358 9.90271 0.594019 9.87445 0.655456 9.85195L0.655457 9.85195L0.655457 9.85195Z" id="Rectangle-3-Copy" fill="#8A2121" fill-rule="evenodd" stroke="none" />
        <path d="M13.3064 43.5133L18.2315 41.7096C18.2932 41.687 18.3566 41.6706 18.4216 41.6605C18.4866 41.6504 18.5519 41.6467 18.6176 41.6495C18.6833 41.6524 18.7481 41.6616 18.812 41.6772C18.8759 41.6928 18.9376 41.7144 18.9972 41.7422C19.0568 41.77 19.1131 41.8034 19.1662 41.8423C19.2192 41.8812 19.2679 41.9249 19.3123 41.9735C19.3566 42.022 19.3958 42.0744 19.4299 42.1307C19.4639 42.1869 19.4921 42.246 19.5145 42.3078L19.6959 42.8093C19.7181 42.8708 19.7342 42.9339 19.744 42.9986C19.7539 43.0633 19.7574 43.1283 19.7544 43.1937C19.7515 43.259 19.7423 43.3235 19.7267 43.387C19.7111 43.4506 19.6895 43.512 19.6618 43.5713C19.6342 43.6306 19.601 43.6866 19.5624 43.7394C19.5237 43.7922 19.4803 43.8407 19.4321 43.885C19.3839 43.9292 19.3319 43.9684 19.276 44.0024C19.2201 44.0364 19.1614 44.0647 19.1 44.0872L14.1749 45.8909C14.1131 45.9135 14.0498 45.9299 13.9848 45.94C13.9198 45.9501 13.8545 45.9537 13.7888 45.9509C13.7231 45.9481 13.6583 45.9389 13.5944 45.9233C13.5305 45.9077 13.4688 45.886 13.4092 45.8582C13.3496 45.8304 13.2932 45.7971 13.2402 45.7582C13.1872 45.7193 13.1385 45.6755 13.0941 45.627C13.0498 45.5785 13.0106 45.5261 12.9765 45.4698C12.9425 45.4135 12.9143 45.3545 12.8919 45.2926L12.7105 44.7912C12.6883 44.7296 12.6722 44.6665 12.6624 44.6019C12.6525 44.5372 12.649 44.4722 12.652 44.4068C12.6549 44.3414 12.6641 44.277 12.6797 44.2134C12.6953 44.1499 12.7169 44.0885 12.7446 44.0292C12.7722 43.9699 12.8054 43.9138 12.844 43.861C12.8827 43.8083 12.9261 43.7597 12.9743 43.7155C13.0225 43.6712 13.0745 43.6321 13.1304 43.5981C13.1863 43.564 13.245 43.5358 13.3064 43.5133L13.3064 43.5133L13.3064 43.5133Z" id="Rectangle-3-Copy-2" fill="#8A2121" fill-rule="evenodd" stroke="none" />
        <path d="M34.1284 39.0812L39.3173 37.584C39.3805 37.5658 39.4448 37.554 39.5103 37.5484C39.5758 37.5429 39.6412 37.5438 39.7066 37.5512C39.7719 37.5586 39.8358 37.5723 39.8984 37.5923C39.9611 37.6123 40.0211 37.6383 40.0786 37.6701C40.1361 37.702 40.1899 37.7392 40.2401 37.7817C40.2902 37.8242 40.3357 37.8712 40.3766 37.9226C40.4175 37.9741 40.4529 38.0291 40.483 38.0876C40.513 38.146 40.537 38.2069 40.555 38.2701L40.6146 38.4792C40.6326 38.5421 40.6442 38.6062 40.6495 38.6715C40.6549 38.7367 40.6538 38.8018 40.6464 38.8669C40.6389 38.9319 40.6252 38.9956 40.6052 39.0579C40.5852 39.1203 40.5593 39.1801 40.5276 39.2373C40.4959 39.2945 40.4589 39.3482 40.4166 39.3981C40.3743 39.4481 40.3276 39.4935 40.2764 39.5343C40.2252 39.5751 40.1705 39.6105 40.1124 39.6405C40.0542 39.6706 39.9937 39.6947 39.9308 39.7128L34.7419 41.21C34.6787 41.2282 34.6144 41.2401 34.5489 41.2456C34.4834 41.2511 34.418 41.2502 34.3527 41.2428C34.2874 41.2354 34.2234 41.2217 34.1608 41.2017C34.0982 41.1817 34.0381 41.1557 33.9806 41.1239C33.9231 41.092 33.8693 41.0548 33.8192 41.0123C33.769 40.9698 33.7235 40.9228 33.6826 40.8714C33.6417 40.8199 33.6063 40.7649 33.5763 40.7065C33.5462 40.648 33.5222 40.5871 33.5042 40.5239L33.4446 40.3148C33.4267 40.2519 33.415 40.1878 33.4097 40.1225C33.4044 40.0573 33.4054 39.9922 33.4129 39.9271C33.4204 39.8621 33.4341 39.7984 33.4541 39.7361C33.474 39.6738 33.4999 39.614 33.5316 39.5567C33.5634 39.4995 33.6004 39.4458 33.6426 39.3959C33.6849 39.3459 33.7316 39.3005 33.7828 39.2597C33.834 39.2189 33.8887 39.1835 33.9469 39.1535C34.005 39.1234 34.0655 39.0993 34.1284 39.0812L34.1284 39.0812L34.1284 39.0812Z" id="Rectangle-3-Copy-3" fill="#8A2121" fill-rule="evenodd" stroke="none" />
        <path d="M1.03202 7.16188C0.734809 6.34023 1.15584 5.43174 1.97241 5.13268C2.78897 4.83363 3.69187 5.25727 3.98908 6.07891C4.28629 6.90055 3.86526 7.80905 3.04869 8.1081C2.23212 8.40716 1.32922 7.98352 1.03202 7.16188L1.03202 7.16188Z" id="Ellipse-Copy" fill="#8A2121" fill-rule="evenodd" stroke="none" />
        <path d="M2.76707 7.393L2.76895 7.39231C2.81736 7.37458 2.86704 7.36176 2.91798 7.35384C2.96892 7.34592 3.02015 7.34306 3.07165 7.34526C3.12316 7.34745 3.17395 7.35467 3.22403 7.3669C3.27412 7.37912 3.32252 7.39613 3.36924 7.41792C3.41597 7.43971 3.46011 7.46585 3.50167 7.49636C3.54323 7.52686 3.58141 7.56114 3.6162 7.59918C3.65099 7.63722 3.68173 7.6783 3.70841 7.72242C3.73509 7.76653 3.75719 7.81283 3.77473 7.86131L3.99321 8.46531C4.0108 8.51393 4.02349 8.56379 4.03128 8.6149C4.03906 8.66601 4.0418 8.7174 4.03949 8.76905C4.03719 8.8207 4.02989 8.87163 4.01757 8.92184C4.00526 8.97206 3.98817 9.0206 3.96632 9.06745C3.94447 9.11431 3.91827 9.1586 3.88772 9.2003C3.85717 9.24202 3.82285 9.28036 3.78477 9.31532C3.74669 9.35029 3.70556 9.38122 3.6614 9.4081C3.61724 9.43499 3.57089 9.45733 3.52234 9.47511L3.52046 9.4758C3.47205 9.49353 3.42238 9.50635 3.37144 9.51427C3.32049 9.52218 3.26927 9.52504 3.21776 9.52285C3.16625 9.52065 3.11546 9.51344 3.06538 9.50121C3.01529 9.48898 2.96689 9.47197 2.92017 9.45019C2.87344 9.4284 2.8293 9.40226 2.78774 9.37175C2.74618 9.34124 2.70801 9.30697 2.67321 9.26893C2.63842 9.23088 2.60769 9.1898 2.58101 9.14568C2.55433 9.10157 2.53222 9.05528 2.51468 9.0068L2.2962 8.40279C2.27861 8.35418 2.26593 8.30431 2.25814 8.2532C2.25035 8.20209 2.24761 8.15071 2.24991 8.09906C2.25222 8.04741 2.25953 7.99647 2.27184 7.94626C2.28416 7.89604 2.30124 7.84751 2.32309 7.80065C2.34494 7.75379 2.37114 7.70951 2.40169 7.6678C2.43224 7.62609 2.46656 7.58775 2.50464 7.55278C2.54273 7.51781 2.58385 7.48689 2.62801 7.46C2.67217 7.43311 2.71852 7.41078 2.76707 7.393L2.76707 7.393L2.76707 7.393Z" id="Rectangle-4-Copy" fill="#8A2121" fill-rule="evenodd" stroke="none" />
        <path d="M15.6974 48.467C15.6974 47.3306 16.6131 46.4093 17.7427 46.4093C18.8723 46.4093 19.788 47.3306 19.788 48.467C19.788 49.6035 18.8723 50.5248 17.7427 50.5248C16.6131 50.5248 15.6974 49.6035 15.6974 48.467L15.6974 48.467Z" id="Ellipse-Copy-2" fill="#8A2121" fill-rule="evenodd" stroke="none" />
        <path d="M16.5634 44.4963L16.5653 44.4958C16.6201 44.481 16.6757 44.4717 16.7323 44.468C16.7889 44.4642 16.8453 44.466 16.9016 44.4733C16.9578 44.4807 17.0128 44.4935 17.0665 44.5117C17.1202 44.5299 17.1716 44.5532 17.2207 44.5816C17.2699 44.6099 17.3157 44.6428 17.3584 44.6802C17.401 44.7176 17.4395 44.7588 17.474 44.8039C17.5085 44.8489 17.5383 44.8968 17.5633 44.9477C17.5883 44.9986 17.6082 45.0515 17.6227 45.1063L17.87 46.0348C17.8846 46.0897 17.8938 46.1455 17.8974 46.2022C17.9011 46.259 17.8992 46.3155 17.8917 46.3719C17.8842 46.4282 17.8714 46.4833 17.8531 46.5371C17.8348 46.5909 17.8114 46.6424 17.783 46.6917C17.7546 46.7409 17.7216 46.7869 17.6842 46.8296C17.6467 46.8724 17.6054 46.9111 17.5604 46.9457C17.5153 46.9804 17.4673 47.0103 17.4163 47.0355C17.3654 47.0607 17.3125 47.0807 17.2576 47.0955L17.2557 47.096C17.2009 47.1108 17.1452 47.1201 17.0886 47.1238C17.032 47.1276 16.9756 47.1258 16.9194 47.1184C16.8632 47.1111 16.8082 47.0983 16.7545 47.0801C16.7008 47.0619 16.6493 47.0386 16.6002 47.0102C16.5511 46.9819 16.5052 46.949 16.4626 46.9116C16.42 46.8742 16.3814 46.833 16.3469 46.7879C16.3124 46.7429 16.2827 46.695 16.2576 46.6441C16.2326 46.5932 16.2128 46.5403 16.1982 46.4855L15.951 45.557C15.9363 45.5021 15.9272 45.4463 15.9235 45.3895C15.9199 45.3328 15.9218 45.2763 15.9293 45.2199C15.9367 45.1636 15.9496 45.1085 15.9679 45.0547C15.9862 45.0009 16.0095 44.9493 16.038 44.9001C16.0664 44.8509 16.0993 44.8049 16.1368 44.7621C16.1743 44.7194 16.2155 44.6807 16.2606 44.646C16.3057 44.6114 16.3537 44.5815 16.4046 44.5563C16.4556 44.5311 16.5085 44.5111 16.5634 44.4963L16.5634 44.4963L16.5634 44.4963Z" id="Rectangle-4-Copy-2" fill="#8A2121" fill-rule="evenodd" stroke="none" />
        <path d="M36.308 43.6106C36.308 42.4742 37.2237 41.5529 38.3533 41.5529C39.4829 41.5529 40.3986 42.4742 40.3986 43.6106C40.3986 44.7471 39.4829 45.6684 38.3533 45.6684C37.2237 45.6684 36.308 44.7471 36.308 43.6106L36.308 43.6106Z" id="Ellipse-Copy-3" fill="#8A2121" fill-rule="evenodd" stroke="none" />
        <path d="M37.1752 39.6389L37.1771 39.6384C37.2319 39.6236 37.2876 39.6143 37.3442 39.6106C37.4007 39.6068 37.4572 39.6086 37.5134 39.6159C37.5696 39.6233 37.6246 39.6361 37.6783 39.6543C37.732 39.6725 37.7834 39.6958 37.8326 39.7241C37.8817 39.7525 37.9276 39.7854 37.9702 39.8228C38.0128 39.8602 38.0514 39.9014 38.0859 39.9465C38.1204 39.9915 38.1501 40.0394 38.1751 40.0903C38.2002 40.1412 38.22 40.1941 38.2346 40.2489L38.4818 41.1774C38.4964 41.2323 38.5056 41.2881 38.5092 41.3448C38.5129 41.4016 38.511 41.4581 38.5035 41.5145C38.4961 41.5708 38.4832 41.6259 38.4649 41.6797C38.4466 41.7335 38.4232 41.7851 38.3948 41.8343C38.3664 41.8835 38.3335 41.9295 38.296 41.9723C38.2585 42.015 38.2173 42.0537 38.1722 42.0883C38.1271 42.123 38.0791 42.1529 38.0282 42.1781C37.9772 42.2033 37.9243 42.2233 37.8694 42.2381L37.8675 42.2386C37.8127 42.2534 37.757 42.2626 37.7004 42.2664C37.6439 42.2702 37.5874 42.2684 37.5312 42.261C37.475 42.2537 37.42 42.2409 37.3663 42.2227C37.3126 42.2045 37.2612 42.1812 37.212 42.1528C37.1629 42.1245 37.117 42.0916 37.0744 42.0542C37.0318 42.0168 36.9932 41.9756 36.9587 41.9305C36.9242 41.8855 36.8945 41.8375 36.8695 41.7866C36.8444 41.7357 36.8246 41.6829 36.81 41.6281L36.5628 40.6996C36.5482 40.6447 36.539 40.5889 36.5354 40.5322C36.5317 40.4754 36.5336 40.4189 36.5411 40.3625C36.5485 40.3062 36.5614 40.2511 36.5797 40.1973C36.598 40.1435 36.6214 40.0919 36.6498 40.0427C36.6782 39.9935 36.7111 39.9475 36.7486 39.9047C36.7861 39.862 36.8273 39.8233 36.8724 39.7887C36.9175 39.754 36.9655 39.7241 37.0164 39.6989C37.0674 39.6737 37.1203 39.6537 37.1752 39.6389L37.1752 39.6389L37.1752 39.6389Z" id="Rectangle-4-Copy-3" fill="#8A2121" fill-rule="evenodd" stroke="none" />
        <g id="menorah-image" transform="translate(153.86412 2.2844086)">
          <g id="Group">
            <path d="M38.3976 0.0622966C37.0896 0.157586 36.9683 0.192232 36.9683 0.40013C36.9683 0.573377 37.4621 1.00649 37.6613 1.00649C37.7306 1.00649 37.7479 1.07579 37.7219 1.1884C37.6873 1.30968 37.7479 1.43095 37.9212 1.57821C38.1464 1.78611 38.1637 1.83808 38.1291 2.32317C38.1031 2.72164 38.1291 2.92954 38.2503 3.16342C38.4496 3.54456 38.4236 3.63119 37.9558 4.14226C37.488 4.64468 37.4707 4.89589 37.8605 5.58022C38.1117 6.03066 38.2763 6.4118 38.4149 6.83626C38.4409 6.93154 38.3976 7.03549 38.311 7.10479C38.1637 7.20874 38.1637 7.24339 38.285 7.51192C38.5362 8.05765 38.5535 8.17892 38.3629 8.30019C38.1464 8.43013 38.1377 8.56873 38.311 8.83726C38.4409 9.02783 38.5968 9.66885 38.6488 10.1973C38.6661 10.3185 38.7354 10.5178 38.8134 10.6304C39.0992 11.0288 38.9433 13.7055 38.5362 15.5246C38.181 17.0925 37.488 18.7383 36.6391 20.0117C36.0847 20.8433 34.3263 22.5844 33.3301 23.2861C30.792 25.0792 28.2193 25.8934 24.1827 26.1706L23.4897 26.2139L23.1259 25.7635C22.8747 25.4603 22.788 25.2871 22.8487 25.2264C22.9613 25.1138 22.9613 23.8145 22.8487 23.7452C22.6841 23.6412 22.7621 23.3987 23.0912 23.0349L23.4117 22.6624L24.4945 22.5324C28.0201 22.108 30.9913 20.4708 32.6285 18.0367C33.7719 16.3475 34.1877 14.8749 34.3696 11.9817C34.4043 11.3147 34.4822 10.7343 34.5255 10.691C34.5775 10.639 34.5948 10.4831 34.5688 10.3532C34.5428 10.2059 34.5688 10.05 34.6381 9.96337C34.6988 9.8854 34.7594 9.68617 34.7594 9.50426C34.7681 9.33102 34.8374 9.06248 34.9153 8.8979C35.1059 8.51675 35.0972 8.39548 34.8893 8.32618C34.6728 8.25688 34.6728 8.06631 34.8893 7.63319L35.0713 7.2867L34.8893 7.13944L34.6988 6.99218L34.9327 6.40314C35.0626 6.07397 35.2618 5.64085 35.3744 5.42429C35.487 5.20774 35.5823 4.96519 35.5823 4.87856C35.5823 4.63602 35.3658 4.28953 35.0279 3.96036C34.6988 3.63985 34.6295 3.35399 34.846 3.17208C34.9413 3.09412 34.976 2.88622 34.976 2.40113C34.976 1.79477 35.0019 1.70815 35.1925 1.52624C35.3138 1.41363 35.4091 1.27503 35.4091 1.20573C35.4091 1.14509 35.565 0.954518 35.7556 0.781271C36.1454 0.426116 36.1887 0.252869 35.9115 0.192232C34.9673 -0.00700116 31.2338 0.122934 30.9999 0.356819C30.8873 0.469428 30.896 0.51274 31.0866 0.711973C31.1992 0.833248 31.3984 0.989169 31.5283 1.05847C31.6843 1.13643 31.7449 1.22305 31.7103 1.34432C31.6843 1.44827 31.7362 1.55222 31.8662 1.64751C32.0394 1.76878 32.0654 1.87273 32.0914 2.44445C32.1087 2.9382 32.1607 3.15476 32.282 3.31934C32.4899 3.57055 32.4639 3.66584 32.0308 4.11628C31.8489 4.30685 31.6756 4.58405 31.641 4.73131C31.5803 4.99118 31.6063 5.04315 32.0481 5.90072C32.1261 6.03932 32.2733 6.35116 32.3773 6.58505L32.5678 7.01817L32.3686 7.15676L32.178 7.30402L32.3599 7.55523C32.6545 7.96236 32.6891 8.24822 32.4466 8.37816C32.3426 8.43013 32.2387 8.49077 32.2213 8.49943C32.204 8.51675 32.2993 8.68134 32.4206 8.88057C32.5852 9.11446 32.6545 9.33967 32.6545 9.57356C32.6458 9.80744 32.6891 9.92872 32.7844 9.96337C32.8797 10.0067 32.9057 10.0846 32.8624 10.2752C32.8277 10.4571 32.871 10.6477 33.0009 10.8989C33.1655 11.2194 33.1915 11.3927 33.1915 12.692C33.1915 14.0173 33.1742 14.1906 32.949 14.9096C31.7796 18.7297 29.0509 20.8519 24.5552 21.4496C23.4637 21.5882 23.2558 21.5709 22.9959 21.2937C22.7274 21.0165 22.7101 20.8866 22.9007 20.696C23.0133 20.5834 23.0219 20.4448 22.9786 19.9424C22.944 19.6046 22.8833 19.2927 22.84 19.2407C22.6928 19.0935 22.7707 18.8943 23.1345 18.4958L23.4984 18.0973L24.2346 18.0453C26.3483 17.9067 27.9941 16.5381 28.5225 14.4765C28.6005 14.1906 28.6958 13.2897 28.7477 12.4841C28.7997 11.6699 28.8777 10.9769 28.9123 10.9335C28.9556 10.8902 28.9556 10.7863 28.9037 10.691C28.8344 10.5697 28.8517 10.4658 28.947 10.3185C29.0249 10.1973 29.1809 9.8161 29.2935 9.45229C29.5014 8.80261 29.5014 8.80261 29.3281 8.68134C29.1549 8.56006 29.1549 8.54274 29.2935 8.14427C29.4667 7.62453 29.4667 7.50326 29.2848 7.37332C29.1722 7.2867 29.1549 7.23472 29.2328 7.1481C29.2848 7.0788 29.3454 6.8709 29.3714 6.68034C29.3888 6.48976 29.536 6.04798 29.6833 5.70149C29.8652 5.2857 29.9431 4.99984 29.8998 4.87856C29.8652 4.78328 29.6486 4.48876 29.4061 4.23755L28.9643 3.76978L29.1289 3.50125C29.2415 3.30202 29.2848 3.06813 29.2761 2.5917C29.2761 2.05464 29.3021 1.94203 29.4407 1.87273C29.5273 1.82076 29.6053 1.69082 29.6053 1.57821C29.6053 1.45694 29.7439 1.2577 29.9518 1.05847C30.4109 0.634015 30.3936 0.51274 29.8912 0.434777C29.4407 0.365479 26.123 0.469428 25.5773 0.564712C25.2741 0.616689 25.2308 0.651335 25.2568 0.833248C25.2655 0.954518 25.4127 1.16242 25.5773 1.30968C25.7419 1.44827 25.8805 1.63019 25.8805 1.71681C25.8805 1.79477 25.9758 1.93336 26.0884 2.01999C26.2703 2.14992 26.305 2.26254 26.3396 2.75629C26.3569 3.14609 26.4176 3.3973 26.5128 3.50125C26.7207 3.72647 26.7034 3.82176 26.3223 4.36749C25.8112 5.09512 25.8025 5.25105 26.175 5.84875C26.3483 6.1346 26.4869 6.40314 26.4869 6.46378C26.4869 6.52441 26.5562 6.76696 26.6428 7.0095C26.7554 7.33867 26.7641 7.45128 26.6861 7.47727C26.5215 7.53791 26.5475 7.85842 26.7467 8.15294C26.9633 8.47344 26.9633 8.49943 26.7467 8.69C26.5822 8.85459 26.5822 8.85459 26.79 9.31369C26.9113 9.5649 27.0066 9.85942 27.0066 9.96337C27.0066 10.076 27.0846 10.2319 27.1885 10.3272C27.3011 10.4311 27.3444 10.5524 27.3184 10.6737C27.2925 10.7776 27.3271 11.0028 27.3964 11.1761C27.5783 11.6005 27.5697 13.3503 27.3964 14.0433C26.9027 15.9404 25.8199 16.9452 24.1047 17.0925L23.4637 17.1445L23.2212 16.8586C22.8487 16.4082 22.7361 16.0876 22.8747 15.8711C22.9699 15.7238 22.9873 15.2647 22.9353 13.411C22.8833 11.1328 22.8573 10.9769 22.5801 10.9682C22.5108 10.9682 22.6235 10.3445 22.7274 10.1799C22.7621 10.1106 22.788 9.97203 22.7794 9.86808C22.7621 9.76413 22.84 9.48694 22.944 9.24439C23.1172 8.8286 23.1172 8.78528 22.9873 8.63803C22.8054 8.43879 22.814 8.30886 23.0219 7.89306C23.1778 7.58988 23.1778 7.54657 23.0566 7.40797C22.9266 7.26937 22.9353 7.20874 23.1085 6.74963C23.2125 6.47244 23.4031 6.03932 23.5503 5.79677C23.6889 5.54557 23.8015 5.22506 23.8015 5.09512C23.8015 4.83525 23.3684 4.15093 23.1519 4.0643C22.9699 4.00367 22.9959 3.63119 23.1952 3.37132C23.3251 3.19807 23.3598 3.05081 23.3338 2.60037C23.3078 2.08929 23.3164 2.02865 23.507 1.89872C23.6456 1.81209 23.7149 1.68216 23.7149 1.51757C23.7149 1.33566 23.7755 1.24038 23.9575 1.14509C24.0874 1.07579 24.2693 0.937197 24.3559 0.841908C24.5985 0.573377 24.4512 0.478088 23.6543 0.391465C22.866 0.313507 19.6349 0.287521 19.4357 0.365479C19.1845 0.460768 19.2885 0.746624 19.6869 1.02382C19.9901 1.24038 20.0594 1.33566 20.0247 1.48292C19.9901 1.62152 20.0421 1.70815 20.198 1.82076C20.4146 1.95935 20.4232 1.98534 20.3712 2.55706C20.3193 3.08546 20.3366 3.18941 20.5012 3.42329C20.7177 3.71781 20.7177 3.71781 20.1893 4.36749C19.7389 4.92188 19.7216 5.12111 20.0681 5.8141C20.2153 6.09996 20.4059 6.52441 20.5012 6.76696C20.6744 7.20008 20.6744 7.20008 20.5098 7.34733C20.3366 7.48593 20.3366 7.48593 20.5098 7.86708C20.7177 8.31752 20.7264 8.54274 20.5532 8.54274C20.3279 8.54274 20.3106 8.77662 20.5012 9.17509C20.6051 9.39165 20.6831 9.66885 20.6658 9.80744C20.6571 9.94604 20.6918 10.1366 20.7437 10.2319C20.8996 10.5264 20.865 10.9422 20.6918 10.9942C20.5445 11.0288 20.5272 11.2107 20.4752 13.0991C20.4319 14.4678 20.4405 15.3254 20.5012 15.6372C20.5705 15.9577 20.5705 16.1396 20.5098 16.2003C20.4665 16.2436 20.4232 16.3475 20.4232 16.4168C20.4232 16.4948 20.3019 16.6854 20.1547 16.8413L19.8948 17.1271L19.2711 17.0752C17.5213 16.9192 16.4818 16.1829 16.0141 14.7623C15.6503 13.6709 15.5723 11.4706 15.8755 10.8816C15.9361 10.7603 15.9708 10.5611 15.9448 10.4398C15.9188 10.3012 15.9534 10.1799 16.0401 10.1106C16.118 10.0413 16.1787 9.89407 16.1787 9.76413C16.1787 9.64286 16.2653 9.33102 16.3692 9.0798C16.5598 8.6207 16.5598 8.61204 16.3952 8.49077C16.2393 8.36949 16.2393 8.36083 16.3866 7.87574C16.5252 7.43396 16.5338 7.37332 16.4126 7.2867C16.2913 7.20008 16.2913 7.1481 16.3952 6.84492C16.4645 6.66301 16.5165 6.42913 16.5252 6.3425C16.5252 6.24722 16.6464 5.97002 16.785 5.71015C17.1662 5.03449 17.1402 4.76595 16.6118 4.1336C16.3779 3.84775 16.1787 3.58787 16.1787 3.56189C16.1787 3.52724 16.2566 3.3973 16.3606 3.27603C16.5078 3.08546 16.5252 2.96419 16.4905 2.47043C16.4559 1.97668 16.4732 1.87273 16.6118 1.74279C16.7071 1.65617 16.785 1.48292 16.785 1.35299C16.785 1.16242 16.8543 1.09312 17.1402 0.963183C17.5213 0.789936 17.7206 0.5214 17.582 0.382805C17.3481 0.14892 13.1209 0.0969481 12.6964 0.322167C12.4452 0.460768 12.5145 0.642675 12.9303 0.937197C13.1902 1.1191 13.3201 1.27503 13.3201 1.3963C13.3201 1.50025 13.3894 1.64751 13.476 1.72547C13.5886 1.82942 13.6319 2.01999 13.6493 2.53107C13.6579 2.98151 13.7099 3.25004 13.7965 3.34533C13.9871 3.56189 13.9611 3.65718 13.5886 4.04698C13.3981 4.23755 13.1988 4.53207 13.1468 4.69666C13.0516 4.96519 13.0689 5.05181 13.2941 5.5369C13.6579 6.30785 13.9091 7.17409 13.7705 7.22606C13.6233 7.26937 13.6406 7.46861 13.8138 7.96236C13.9698 8.38682 13.9438 8.45612 13.6493 8.56006C13.606 8.57739 13.6666 8.7593 13.7705 8.9672C13.8745 9.17509 13.9611 9.46961 13.9698 9.61687C13.9698 9.76413 14.0391 9.99801 14.117 10.1453C14.1863 10.2839 14.2296 10.4571 14.2037 10.5178C14.1863 10.5871 14.2037 10.7257 14.2556 10.8209C14.3076 10.9249 14.4115 11.6785 14.4808 12.4928C14.5761 13.5323 14.6801 14.1819 14.8273 14.6584C15.4857 16.7373 16.9496 17.8634 19.2278 18.054C19.9035 18.1146 19.9555 18.132 20.0594 18.3572C20.12 18.4871 20.2673 18.6604 20.3886 18.7297C20.6225 18.8856 20.6658 19.1801 20.4665 19.2494C20.3712 19.2927 20.3366 19.4573 20.3366 19.9511C20.3366 20.3062 20.3799 20.67 20.4232 20.7567C20.5012 20.8953 20.4579 20.9819 20.1633 21.2764C19.7476 21.6922 19.5916 21.7095 18.0844 21.4496C15.3557 20.9819 13.6319 20.1503 12.0641 18.5564C10.0457 16.4948 9.3354 13.9827 9.8205 10.6477C9.8465 10.4485 9.92445 10.2406 9.99374 10.1799C10.063 10.1279 10.115 10.024 10.115 9.9547C10.115 9.89407 10.193 9.59955 10.2969 9.30503C10.4702 8.77662 10.4615 8.70732 10.1757 8.61204C10.141 8.59472 10.167 8.43879 10.245 8.26554C10.3922 7.89306 10.4182 7.44262 10.2796 7.39931C10.1583 7.356 10.3836 6.58505 10.7301 5.8141C11.1025 4.98251 11.0852 4.88723 10.3576 4.10762C10.0804 3.8131 10.0544 3.63985 10.2536 3.42329C10.4009 3.25871 10.4442 2.65234 10.3402 2.32317C10.2883 2.15859 10.3229 2.0633 10.4962 1.88139C10.6174 1.75146 10.7214 1.56088 10.7214 1.45694C10.7214 1.34432 10.86 1.16242 11.0679 0.997829C11.2671 0.841908 11.4057 0.651335 11.3971 0.582038C11.3537 0.374144 10.9986 0.330833 8.98892 0.322167C7.2218 0.322167 6.55479 0.374144 6.37289 0.556052C6.25162 0.677327 6.38155 0.902546 6.70206 1.10178C6.86664 1.19707 6.99658 1.34432 6.99658 1.43095C6.99658 1.51757 7.09186 1.6735 7.21313 1.78611C7.3604 1.9247 7.42104 2.07196 7.42104 2.29718C7.42104 2.47043 7.42104 2.74763 7.42104 2.92088C7.4297 3.12011 7.49033 3.28469 7.60294 3.38864C7.8195 3.58787 7.8195 3.70049 7.60294 3.96036C7.16116 4.4801 6.90994 4.85258 6.90994 5.0085C6.90994 5.09512 7.03123 5.40697 7.1785 5.70149C7.32574 5.99601 7.49899 6.42913 7.55963 6.67167C7.62894 6.91422 7.70689 7.18275 7.73288 7.26071C7.77618 7.37332 7.7502 7.41663 7.65492 7.41663C7.48167 7.41663 7.48167 7.43396 7.68089 8.023C7.84549 8.49077 7.84549 8.49943 7.67224 8.62936C7.50766 8.76796 7.50766 8.76796 7.68089 9.14911C7.77618 9.36566 7.86281 9.66018 7.86281 9.80744C7.86281 9.9547 7.92345 10.1279 7.99275 10.1886C8.06204 10.2492 8.12268 10.4138 8.12268 10.5611C8.12268 10.7083 8.18332 10.8902 8.25262 10.9769C8.35657 11.0808 8.40854 11.4533 8.46918 12.3802C8.59045 14.3205 8.86765 15.412 9.62128 16.9019C11.2151 20.0983 14.2037 21.9347 18.7687 22.5498L19.8428 22.6884L20.2153 23.0695C20.6225 23.4766 20.6744 23.6152 20.4665 23.7885C20.3193 23.9098 20.276 25.0445 20.4232 25.1311C20.5618 25.2178 20.5272 25.6076 20.3799 25.6076C20.3019 25.6076 20.1807 25.7462 20.094 25.9194L19.9468 26.2399L18.786 26.1793C15.7022 26.0234 12.9823 25.417 10.8513 24.3948C8.59045 23.3207 6.65875 21.4323 5.32475 19.0155C4.35455 17.2657 3.72221 14.5024 3.69621 11.9644C3.68756 10.4485 3.69621 10.3012 3.83482 10.1886C3.90411 10.1279 3.96477 10.0153 3.96477 9.93738C3.96477 9.85942 4.04272 9.55623 4.12933 9.25305C4.29393 8.73331 4.29393 8.69866 4.14667 8.57739C4.00807 8.45612 4.00807 8.41281 4.12933 7.92771C4.25928 7.44262 4.25928 7.39931 4.12933 7.32135C3.9994 7.25205 4.00807 7.17409 4.19864 6.48976C4.31992 6.06531 4.49316 5.59754 4.58846 5.44162C4.83099 5.04315 4.74437 4.67933 4.3026 4.24621C3.85214 3.8131 3.77419 3.62252 3.93877 3.35399C4.04272 3.18941 4.06004 3.0075 4.01672 2.52241C3.96477 1.96802 3.98209 1.89005 4.138 1.74279C4.23329 1.65617 4.31125 1.51757 4.31125 1.43095C4.31125 1.33566 4.45851 1.17974 4.65775 1.04981C5.1255 0.755285 5.23811 0.530066 4.99557 0.391465C4.77902 0.278855 0.404526 0.322167 0.127335 0.443442C-0.115204 0.547391 -0.011261 0.76395 0.439178 1.09312C0.664398 1.2577 0.846313 1.45694 0.846313 1.5349C0.846313 1.61286 0.924271 1.74279 1.01956 1.82942C1.15816 1.95935 1.19279 2.09795 1.19279 2.60903C1.19279 3.12011 1.22745 3.25871 1.36604 3.38864C1.57394 3.57055 1.59126 3.83042 1.40936 3.92571C1.22745 4.02965 0.673065 4.83525 0.673065 4.99984C0.673065 5.0778 0.811661 5.39831 0.976242 5.71015C1.14082 6.022 1.27943 6.33384 1.27943 6.40314C1.27943 6.46378 1.36604 6.689 1.46133 6.89689C1.63458 7.25205 1.63458 7.27804 1.49599 7.38199C1.33141 7.50326 1.37471 7.86708 1.59993 8.30886C1.72987 8.56873 1.68655 8.71599 1.48732 8.71599C1.38338 8.71599 1.39204 8.77662 1.53931 9.06248C1.63458 9.24439 1.71255 9.53025 1.71255 9.69483C1.71255 9.8854 1.78185 10.05 1.89446 10.1539C2.01573 10.2665 2.05904 10.3792 2.03305 10.5351C1.9984 10.6737 2.04172 10.8296 2.14566 10.9682C2.24095 11.0895 2.31891 11.3234 2.31891 11.4966C2.31891 12.103 2.67407 14.6584 2.88196 15.5852C3.51431 18.3658 4.53647 20.3668 6.24297 22.1166C7.68958 23.6066 9.07555 24.6027 10.9379 25.4776C13.1555 26.5258 15.5723 27.0715 18.6821 27.2188L19.9295 27.2794L20.094 27.5653C20.1807 27.7212 20.3193 27.8684 20.3972 27.8944C20.4925 27.9377 20.5098 28.0157 20.4752 28.1716C20.4319 28.3276 20.4665 28.4488 20.5705 28.5701C20.7091 28.726 20.7091 28.752 20.5878 28.8386C20.4405 28.9512 20.3193 30.3026 20.3019 32.0437C20.3019 32.5548 20.2673 32.9706 20.224 32.9706C20.0594 32.9706 20.0681 33.2564 20.2413 33.4383L20.4232 33.6376L20.1633 34.1227C19.8515 34.7204 19.8428 34.8676 20.12 35.3094C20.2413 35.5 20.3366 35.6819 20.3366 35.7165C20.3366 35.7512 20.4232 35.8638 20.5185 35.9677C20.8477 36.3229 20.8477 37.501 20.5185 37.5876C20.3453 37.6309 20.25 38.1073 20.25 38.9649C20.25 39.6839 20.0854 40.6801 19.9208 40.9659C19.7562 41.2431 19.505 41.3297 19.0979 41.2518C18.3443 41.0959 17.8159 41.0872 17.6686 41.2345C17.5127 41.3644 16.2999 41.7195 15.9794 41.7195C15.8928 41.7195 15.7022 41.7802 15.5463 41.8668C15.3904 41.9448 14.9226 42.0747 14.4895 42.1613C13.4847 42.3692 13.3894 42.4732 13.4154 43.3134L13.4327 43.9284L13.1382 43.9891C12.9736 44.0237 12.7051 44.0757 12.5405 44.1104C12.3759 44.1363 12.1334 44.2143 12.0034 44.2836C11.8735 44.3529 11.7002 44.4049 11.6136 44.4049C11.527 44.4049 11.3711 44.4568 11.2758 44.5261C11.1805 44.5955 10.9466 44.6907 10.7474 44.7427C10.3662 44.8467 10.2883 45.0112 10.2883 45.7129L10.2883 46.0507L21.7226 46.0507L33.1569 46.0507L33.1569 45.4097C33.1569 44.8033 33.1395 44.7514 32.923 44.5955C32.7844 44.5088 32.2127 44.3096 31.641 44.1537C30.1424 43.7465 30.177 43.7639 30.1164 43.53C30.0817 43.4174 30.0558 43.1228 30.0471 42.8803C30.0384 42.2826 29.8912 42.17 28.9296 42.0227C28.5052 41.9621 28.0721 41.8668 27.9768 41.8148C27.8728 41.7629 27.6823 41.7195 27.5437 41.7195C27.2578 41.7195 26.3309 41.4597 25.6553 41.1825C25.2395 41.0179 25.1875 41.0092 24.6591 41.1305C23.8535 41.3211 23.5936 41.2604 23.4637 40.8706C23.4031 40.6887 23.3338 39.9438 23.3078 39.2075L23.2645 37.8648L22.9959 37.6309C22.7707 37.423 22.7274 37.3191 22.6928 36.8773C22.6581 36.3922 22.6754 36.3402 22.9613 35.9851C23.3164 35.5433 23.6283 34.9543 23.6283 34.7117C23.6283 34.6164 23.533 34.3912 23.4117 34.218C23.1605 33.8455 23.1345 33.6116 23.3424 33.3777C23.4897 33.2218 23.4897 33.2045 23.2905 33.0485C23.1085 32.9013 23.0999 32.858 23.1865 32.6414C23.2905 32.3902 23.2905 31.1601 23.1865 31.0215C23.1519 30.9696 23.1085 30.5105 23.0912 29.9994C23.0739 29.2284 23.0392 29.0379 22.918 28.9512C22.7274 28.8126 22.7187 28.7347 22.9007 28.5961C23.0219 28.5095 23.0306 28.4662 22.9353 28.2929C22.8487 28.1283 22.8573 28.0677 23.0133 27.8684C23.1172 27.7472 23.2645 27.5393 23.3424 27.418C23.481 27.2014 23.5243 27.1928 24.6158 27.1321C27.4917 26.9849 29.9345 26.3699 32.1347 25.2438C33.7286 24.4382 34.7334 23.7105 36.0414 22.4198C38.6488 19.8644 39.9655 16.5121 40.2253 11.7911C40.2513 11.2194 40.312 10.7083 40.3466 10.665C40.3813 10.613 40.4332 10.4398 40.4592 10.2752C40.5892 9.47827 40.6931 9.05382 40.823 8.80261C40.979 8.49943 40.9443 8.28287 40.7364 8.28287C40.5545 8.28287 40.5718 8.10096 40.7971 7.63319L40.9876 7.24339L40.7971 7.07014L40.6152 6.89689L40.7797 6.53307C40.875 6.32518 40.953 6.11728 40.953 6.05664C40.953 6.00467 41.0916 5.71881 41.2648 5.43296C41.542 4.96519 41.568 4.87856 41.4814 4.63602C41.4294 4.48876 41.2302 4.18558 41.0396 3.95169C40.6498 3.48393 40.6411 3.4666 40.8144 3.12011C40.953 2.85157 41.005 2.19324 40.9183 1.91604C40.875 1.78611 40.927 1.70815 41.1349 1.58687C41.3428 1.4656 41.3948 1.3963 41.3515 1.24038C41.3168 1.09312 41.3688 1.00649 41.6113 0.841908C42.0271 0.556052 42.1397 0.330833 41.9578 0.157586C41.8452 0.0363107 41.594 0.0103247 40.6238 0.00165915C39.9741 -0.00700116 38.9693 0.0189848 38.3976 0.0622966L38.3976 0.0622966L38.3976 0.0622966Z" id="Shape" fill="#8A2121" fill-rule="evenodd" stroke="none" />
          </g>
        </g>
      </g>
    </g>
  </g>
</svg>