<?xml version="1.0" encoding="utf-8"?>
<svg width="313px" height="61px" viewBox="0 0 313 61" version="1.1" xmlns:xlink="http://www.w3.org/1999/xlink" xmlns="http://www.w3.org/2000/svg">
  <g id="Group-6" transform="translate(0.25 0.25)">
    <g id="flameshot-Copy-2" transform="translate(0 4.104248)">
      <path d="M25.882 0C40.198 0 51.764 11.572 51.764 25.8954C51.764 40.2188 40.198 51.7908 25.882 51.7908C11.566 51.7908 0 40.2188 0 25.8954C0 11.572 11.566 0 25.882 0L25.882 0Z" id="Shape" fill="#FFFFFF" fill-rule="evenodd" stroke="none" />
      <path d="M27.7441 22.4675C42.7508 19.5694 43.3273 13.0212 43.3273 13.0212C43.3273 13.0212 42.1455 33.315 31.1784 34.3886C17.2805 35.7492 15.2041 42.309 15.2041 42.309C15.2041 42.309 18.9207 24.1715 27.7441 22.4675L27.7441 22.4675Z" id="Shape" fill="#031932" fill-rule="evenodd" stroke="none" />
      <path d="M18.6888 21.5718C31.4045 16.1838 30.2399 7.39429 30.2399 7.39429C30.2399 7.39429 37.2603 25.3254 26.7358 29.5058C14.9788 34.1757 15.502 42.1525 15.502 42.1525C15.502 42.1525 11.2207 24.7363 18.6888 21.5718L18.6888 21.5718Z" id="Shape" fill="#031932" fill-rule="evenodd" stroke="#FFFFFF" stroke-width="0.5" />
      <path d="M11.1981 26.3385C18.3422 16.9132 16.7353 10.3025 16.7353 10.3025C16.7353 10.3025 25.8885 21.7858 19.66 28.8981C12.7022 36.8434 15.7324 42.3709 15.7324 42.3709C15.7324 42.3709 7.10052 31.7445 11.1981 26.3385L11.1981 26.3385Z" id="Shape" fill="#031932" fill-rule="evenodd" stroke="#FFFFFF" stroke-width="0.5" />
    </g>
    <g fill="#FFFFFF" stroke="none" id="Flameshot" transform="translate(64.97241 0)">
      <path d="M2.78125 46L2.78125 14L23.9688 14L23.9688 19.5781L9.54688 19.5781L9.54688 27.2031L22.5625 27.2031L22.5625 32.7813L9.54688 32.7813L9.54688 46L2.78125 46ZM35.0469 14L35.0469 46L28.3906 46L28.3906 14L35.0469 14ZM163.688 46L163.688 32.125Q163.703 29.7969 164.992 28.5078Q166.281 27.2188 168.313 27.2188Q170.344 27.2188 171.477 28.4531Q172.609 29.6875 172.594 31.9063L172.594 46L179.25 46L179.25 30.7188Q179.266 26.5 176.984 24.0937Q174.703 21.6875 170.953 21.6875Q168.219 21.6875 166.414 22.8984Q164.609 24.1094 163.781 26.2344L163.5 26.2344L163.5 14L157.031 14L157.031 46L163.688 46ZM224.266 27L224.266 22L219.75 22L219.75 16.25L213.094 16.25L213.094 22L209.813 22L209.813 27L213.094 27L213.094 39.5Q213.078 43.0313 215.273 44.7578Q217.469 46.4844 221.094 46.3281Q222.391 46.2813 223.297 46.0703Q224.203 45.8594 224.703 45.7031L223.656 40.75Q223.406 40.7969 222.938 40.8828Q222.469 40.9688 222 40.9688Q221 40.9688 220.375 40.4844Q219.75 40 219.75 38.625L219.75 27L224.266 27ZM41.5 44.6563Q43.7656 46.4531 47.2031 46.4531Q49.8594 46.4531 51.6016 45.3984Q53.3438 44.3438 54.2188 42.6719L54.4063 42.6719L54.4063 46L60.7188 46L60.7188 29.8125Q60.7187 26.9531 59.2891 25.1641Q57.8594 23.375 55.5313 22.5313Q53.2031 21.6875 50.5313 21.6875Q46.2188 21.6875 43.4922 23.6094Q40.7656 25.5313 40.0781 28.8125L46.2344 29.3125Q46.5781 28.1094 47.6406 27.3281Q48.7031 26.5469 50.5 26.5469Q52.2031 26.5469 53.1328 27.3594Q54.0625 28.1719 54.0625 29.6563L54.0625 29.75Q54.0625 30.9063 52.7188 31.25Q51.375 31.5938 48.25 31.9063Q45.875 32.125 43.8203 32.8359Q41.7656 33.5469 40.5 35.0781Q39.2344 36.6094 39.2344 39.2969Q39.2344 42.8594 41.5 44.6563ZM65.8906 46L65.8906 22L72.2344 22L72.2344 26.2344L72.5156 26.2344Q73.2656 24.1094 75.0234 22.8984Q76.7813 21.6875 79.2031 21.6875Q81.6719 21.6875 83.4063 22.9141Q85.1406 24.1406 85.7188 26.2344L85.9688 26.2344Q86.7031 24.1719 88.6328 22.9297Q90.5625 21.6875 93.2031 21.6875Q96.5625 21.6875 98.6641 23.8203Q100.766 25.9531 100.766 29.8594L100.766 46L94.125 46L94.125 31.1719Q94.125 29.1719 93.0625 28.1719Q92 27.1719 90.4063 27.1719Q88.5938 27.1719 87.5781 28.3281Q86.5625 29.4844 86.5625 31.3438L86.5625 46L80.1094 46L80.1094 31.0313Q80.1094 29.2656 79.1016 28.2187Q78.0938 27.1719 76.4531 27.1719Q74.7969 27.1719 73.6719 28.3828Q72.5469 29.5938 72.5469 31.5938L72.5469 46L65.8906 46ZM110.594 44.9609Q113.266 46.4688 116.953 46.4688Q121.406 46.4688 124.266 44.4688Q127.125 42.4688 127.828 39.125L121.672 38.7188Q121.172 40.0938 119.953 40.7969Q118.734 41.5 117.063 41.5Q114.563 41.5 113.094 39.9531Q111.625 38.4063 111.625 35.7188L111.625 35.7031L127.969 35.7031L127.969 33.875Q127.969 29.7969 126.469 27.0859Q124.969 24.375 122.414 23.0313Q119.859 21.6875 116.688 21.6875Q113.156 21.6875 110.539 23.25Q107.922 24.8125 106.484 27.6094Q105.047 30.4063 105.047 34.1094Q105.047 37.9063 106.484 40.6797Q107.922 43.4531 110.594 44.9609ZM152.281 28.8438L146.188 29.2188Q145.938 28.0625 144.922 27.2344Q143.906 26.4063 142.172 26.4063Q140.625 26.4063 139.555 27.0547Q138.484 27.7031 138.5 28.7813Q138.484 29.6406 139.18 30.2344Q139.875 30.8281 141.547 31.1875L145.891 32.0625Q152.813 33.4844 152.828 38.5625Q152.828 40.9219 151.445 42.7031Q150.063 44.4844 147.656 45.4766Q145.25 46.4688 142.141 46.4688Q137.375 46.4688 134.547 44.4766Q131.719 42.4844 131.25 39.0469L137.797 38.7031Q138.109 40.1719 139.242 40.9219Q140.375 41.6719 142.156 41.6719Q143.906 41.6719 144.977 40.9844Q146.047 40.2969 146.063 39.2344Q146.016 37.4531 142.984 36.8438L138.828 36.0156Q131.859 34.625 131.891 29.1563Q131.875 25.6875 134.664 23.6875Q137.453 21.6875 142.063 21.6875Q146.609 21.6875 149.227 23.6094Q151.844 25.5313 152.281 28.8438ZM195.344 46.4688Q191.703 46.4688 189.055 44.9141Q186.406 43.3594 184.969 40.5703Q183.531 37.7813 183.531 34.0938Q183.531 30.375 184.969 27.5859Q186.406 24.7969 189.055 23.2422Q191.703 21.6875 195.344 21.6875Q198.984 21.6875 201.633 23.2422Q204.281 24.7969 205.719 27.5859Q207.156 30.375 207.156 34.0938Q207.156 37.7813 205.719 40.5703Q204.281 43.3594 201.633 44.9141Q198.984 46.4688 195.344 46.4688ZM121.703 31.5781L111.625 31.5781Q111.734 29.5313 113.156 28.0938Q114.578 26.6563 116.797 26.6563Q118.969 26.6563 120.328 28.0469Q121.688 29.4375 121.703 31.5781ZM195.375 41.3125Q197.844 41.3125 199.117 39.25Q200.391 37.1875 200.391 34.0469Q200.391 30.9063 199.117 28.8359Q197.844 26.7656 195.375 26.7656Q192.859 26.7656 191.578 28.8359Q190.297 30.9063 190.297 34.0469Q190.297 37.1875 191.578 39.25Q192.859 41.3125 195.375 41.3125ZM52.7031 40.5859Q51.2969 41.8594 49.1094 41.8594Q47.5781 41.8594 46.5859 41.1563Q45.5938 40.4531 45.5938 39.0781Q45.5938 37.6719 46.6641 36.9375Q47.7344 36.2031 49.4844 35.9531Q50.2188 35.8438 51.1484 35.6953Q52.0781 35.5469 52.8984 35.3438Q53.7188 35.1406 54.1094 34.875L54.1094 37.4219Q54.1094 39.3125 52.7031 40.5859Z" />
    </g>
  </g>
</svg>