<?xml version="1.0" encoding="utf-8"?>
<svg width="283px" height="60px" viewBox="0 0 283 60" version="1.1" xmlns:xlink="http://www.w3.org/1999/xlink" xmlns="http://www.w3.org/2000/svg">
  <g id="Group-5">
    <g fill="#FFFFFF" stroke="none" id="Franklin's" transform="translate(9.8359375 7.8688965)">
      <path d="M90.1808 7.33369Q89.035 7.3337 88.3947 6.67655Q87.7544 6.0194 87.7544 5.0421Q87.7544 4.0648 88.3947 3.40765Q89.035 2.7505 90.1808 2.7505Q91.2929 2.7505 91.9501 3.40765Q92.6072 4.0648 92.6072 5.0421Q92.6072 6.0194 91.9669 6.67655Q91.3266 7.3337 90.1808 7.33369ZM69.5461 21.454L69.5461 26.846L65.0977 26.846L65.0977 2.78419L69.5461 2.78419L69.5461 17.073L74.9381 10.7711L80.3638 10.7711L74.163 17.5448L80.6671 26.846L75.3762 26.846L70.8604 20.1397L69.5461 21.454ZM85.3734 2.78419L80.9587 2.78419L80.9587 26.846L85.3734 26.846L85.3734 2.78419ZM111.287 5.0758L115.095 5.0758L114.59 12.8942L111.827 12.8942L111.287 5.0758ZM20.8627 9.18719L20.8627 5.61499L7.38272 5.61499L7.38272 26.846L11.9996 26.846L11.9996 18.3536L20.1213 18.3536L20.1213 14.8151L11.9996 14.8151L11.9996 9.18719L20.8627 9.18719ZM21.8283 10.7711L21.8283 26.846L26.2767 26.846L26.2767 18.7243Q26.2767 16.2305 27.372 15.1352Q28.4672 14.04 30.1185 14.04Q30.8936 14.04 31.4665 14.1916Q32.0394 14.3433 32.4101 14.5455L33.1515 11.007Q32.7471 10.7711 32.1405 10.6026Q31.5339 10.4341 30.7588 10.4341Q28.8716 10.4341 27.6247 11.4114Q26.3778 12.3887 25.8049 13.6693L25.2994 10.7711L21.8283 10.7711ZM33.2409 12.1865Q34.69 11.344 36.3076 10.889Q37.9252 10.4341 39.745 10.4341Q41.1941 10.4341 42.3905 10.7711Q43.5868 11.1081 44.4462 11.8326Q45.3055 12.5572 45.7605 13.6861Q46.2154 14.8151 46.2154 16.399L46.2154 26.846L42.7443 26.846L42.3399 25.1947L42.2051 25.1947Q41.43 26.1383 40.2337 26.6775Q39.0373 27.2167 37.4534 27.2167Q36.1391 27.2167 35.1281 26.8291Q34.1171 26.4416 33.4094 25.7844Q32.7017 25.1273 32.3479 24.2174Q31.994 23.3075 31.994 22.2628Q31.994 20.8811 32.5838 19.8869Q33.1735 18.8928 34.2182 18.2525Q35.2629 17.6122 36.6615 17.3089Q38.06 17.0056 39.6776 17.0056L41.6996 17.0056L41.6996 16.0283Q41.6996 14.9162 41.0088 14.3938Q40.3179 13.8715 39.071 13.8715Q38.0937 13.8715 37.0659 14.1748Q36.038 14.4781 34.7911 15.1521L33.2409 12.1865ZM48.0235 26.846L52.5056 26.846L52.5056 15.6913Q53.2807 14.8488 54.2412 14.3601Q55.2016 13.8715 56.0778 13.8715Q57.2573 13.8715 57.8639 14.596Q58.4705 15.3206 58.4705 16.5675L58.4705 26.846L62.9526 26.846L62.9526 16.0957Q62.9526 13.3323 61.5372 11.8832Q60.1218 10.4341 57.4595 10.4341Q55.8419 10.4341 54.5108 11.0575Q53.1796 11.681 52.0675 12.8268L51.5283 10.7711L48.0235 10.7711L48.0235 26.846ZM94.8534 26.846L99.3355 26.846L99.3355 15.6913Q100.111 14.8488 101.071 14.3601Q102.032 13.8715 102.908 13.8715Q104.087 13.8715 104.694 14.596Q105.3 15.3206 105.3 16.5675L105.3 26.846L109.783 26.846L109.783 16.0957Q109.783 13.3323 108.367 11.8832Q106.952 10.4341 104.289 10.4341Q102.672 10.4341 101.341 11.0575Q100.01 11.681 98.8974 12.8268L98.3582 10.7711L94.8534 10.7711L94.8534 26.846ZM122.464 13.6693Q124.318 13.6693 126.306 14.6129L127.249 11.4788Q124.992 10.4341 122.06 10.4341Q119.094 10.4341 117.443 11.8158Q115.791 13.1975 115.791 15.388Q115.791 17.2415 116.735 18.3536Q117.679 19.4657 119.701 20.1397L120.745 20.443Q122.43 20.9148 123.037 21.3023Q123.644 21.6899 123.644 22.3976Q123.644 23.0716 123.02 23.4928Q122.397 23.9141 121.049 23.9141Q119.937 23.9141 118.858 23.5939Q117.78 23.2738 116.802 22.7683L115.791 26.0709Q118.083 27.2167 121.285 27.2167Q124.419 27.2167 126.255 25.8013Q128.092 24.3859 128.092 21.9932Q128.092 20.1734 127.014 19.0276Q125.935 17.8818 123.846 17.2752L122.835 16.9719Q121.251 16.5001 120.728 16.0957Q120.206 15.6913 120.206 15.051Q120.206 14.4107 120.796 14.04Q121.386 13.6693 122.464 13.6693ZM87.9229 26.846L87.9229 10.7711L92.405 10.7711L92.405 26.846L87.9229 26.846ZM40.2842 19.8364Q38.2285 19.9038 37.4197 20.5272Q36.6109 21.1507 36.6109 22.0269Q36.6109 23.1727 37.3018 23.5939Q37.9926 24.0152 38.8688 24.0152Q39.745 24.0152 40.537 23.5097Q41.3289 23.0042 41.7333 22.3302L41.7333 19.8027L40.2842 19.8364Z" />
    </g>
    <g fill="#FFFFFF" stroke="none" id="Plumbing" transform="translate(144.58984 0)">
      <path d="M87.2919 14.7913Q87.9322 15.4485 89.078 15.4485Q90.2238 15.4485 90.8641 14.7913Q91.5044 14.1342 91.5044 13.1569Q91.5044 12.1796 90.8473 11.5224Q90.1901 10.8653 89.078 10.8653Q87.9322 10.8653 87.2919 11.5224Q86.6516 12.1796 86.6516 13.1569Q86.6516 14.1342 87.2919 14.7913ZM19.0288 10.899L19.0288 34.9608L23.4435 34.9608L23.4435 10.899L19.0288 10.899ZM85.2479 26.9739Q85.2479 28.8948 84.675 30.445Q84.1021 31.9952 83.0911 33.0904Q82.0801 34.1857 80.6984 34.7586Q79.3167 35.3315 77.6991 35.3315Q76.1152 35.3315 75.0031 34.8428Q73.891 34.3542 73.0485 33.478L72.9137 33.478L72.6104 34.9608L69.3752 34.9608L69.3752 10.899L73.8236 10.899L73.8236 20.2002Q74.6661 19.4251 75.795 18.987Q76.924 18.5489 78.2046 18.5489Q81.5072 18.5489 83.3775 20.7731Q85.2479 22.9973 85.2479 26.9739ZM9.773 13.7298L2.3253 13.7298L2.3253 34.9608L6.9422 34.9608L6.9422 27.2435L9.3686 27.2435Q11.121 27.2435 12.6712 26.8222Q14.2214 26.401 15.3841 25.5416Q16.5467 24.6823 17.2207 23.368Q17.8947 22.0537 17.8947 20.2339Q17.8947 18.6837 17.3218 17.4873Q16.7489 16.291 15.6874 15.4485Q14.6258 14.606 13.1262 14.1679Q11.6265 13.7298 9.773 13.7298ZM8.8294 23.705L6.9422 23.705L6.9422 17.2346L9.2001 17.2346Q10.9188 17.2346 12.0309 18.0097Q13.143 18.7848 13.143 20.4361Q13.143 21.3797 12.806 22.0031Q12.469 22.6266 11.8793 23.0141Q11.2895 23.4017 10.4976 23.5533Q9.7056 23.705 8.8294 23.705ZM42.528 34.9608L47.0101 34.9608L47.0101 23.8061Q47.6841 22.9636 48.6109 22.4749Q49.5376 21.9863 50.4475 21.9863Q51.5259 21.9863 52.082 22.6434Q52.638 23.3006 52.638 24.4464L52.638 34.9608L57.1201 34.9608L57.1201 23.6713Q57.7941 22.8625 58.7209 22.4244Q59.6476 21.9863 60.5575 21.9863Q61.6359 21.9863 62.192 22.6434Q62.748 23.3006 62.748 24.4464L62.748 34.9608L67.2301 34.9608L67.2301 23.9409Q67.2301 21.3123 65.8652 19.9306Q64.5004 18.5489 61.9392 18.5489Q60.3553 18.5489 58.9736 19.206Q57.5919 19.8632 56.5135 21.0427Q55.2666 18.5489 51.8292 18.5489Q50.2116 18.5489 48.931 19.1892Q47.6504 19.8295 46.572 20.9416L46.0328 18.8859L42.528 18.8859L42.528 34.9608ZM98.2327 34.9608L93.7506 34.9608L93.7506 18.8859L97.2554 18.8859L97.7946 20.9416Q98.9067 19.7958 100.238 19.1723Q101.569 18.5489 103.187 18.5489Q105.849 18.5489 107.264 19.998Q108.68 21.4471 108.68 24.2105L108.68 34.9608L104.198 34.9608L104.198 24.6823Q104.198 23.4354 103.591 22.7108Q102.984 21.9863 101.805 21.9863Q100.929 21.9863 99.9682 22.4749Q99.0078 22.9636 98.2327 23.8061L98.2327 34.9608ZM111.111 21.9526Q110.589 23.031 110.589 24.3453Q110.589 25.2552 110.842 25.9966Q111.094 26.738 111.499 27.3109Q111.903 27.8838 112.392 28.305Q112.88 28.7263 113.386 28.9959Q112.341 29.4677 111.667 30.2765Q110.993 31.0853 110.993 32.1974Q110.993 33.141 111.465 33.7644Q111.937 34.3879 112.409 34.7249Q111.094 35.1967 110.353 36.0223Q109.612 36.848 109.612 37.9601Q109.612 40.3865 111.752 41.6839Q113.891 42.9814 117.565 42.9814Q119.553 42.9814 121.171 42.5433Q122.788 42.1052 123.934 41.3132Q125.08 40.5213 125.703 39.426Q126.327 38.3308 126.327 37.0165Q126.327 34.4553 124.726 33.2926Q123.125 32.13 120.463 32.13L116.857 32.13Q115.913 32.13 115.543 31.8604Q115.172 31.5908 115.172 31.0516Q115.172 30.2765 116.015 29.9395Q116.655 30.0743 117.497 30.0743Q120.699 30.0743 122.536 28.5072Q124.372 26.9402 124.372 24.379Q124.372 23.5702 124.086 22.7614Q123.799 21.9526 123.361 21.4134L125.451 21.7167L126.9 21.7167L126.9 18.8859L120.025 18.8859Q119.452 18.7174 118.778 18.6331Q118.104 18.5489 117.531 18.5489Q116.015 18.5489 114.751 18.9533Q113.487 19.3577 112.56 20.1159Q111.634 20.8742 111.111 21.9526ZM36.0019 18.8859L40.484 18.8859L40.484 34.9608L37.1477 34.9608L36.6759 33.141L36.5411 33.141Q36.1704 33.5117 35.6818 33.8992Q35.1931 34.2868 34.5359 34.6069Q33.8788 34.9271 33.0532 35.1293Q32.2275 35.3315 31.2165 35.3315Q28.6216 35.3315 27.122 33.8824Q25.6223 32.4333 25.6223 29.6025L25.6223 18.8859L30.1044 18.8859L30.1044 29.2318Q30.1044 30.6809 30.7952 31.3212Q31.4861 31.9615 32.5645 31.9615Q33.7777 31.9615 34.6371 31.456Q35.4964 30.9505 36.0019 30.2765L36.0019 18.8859ZM86.8201 18.8859L86.8201 34.9608L91.3022 34.9608L91.3022 18.8859L86.8201 18.8859ZM119.284 22.3233Q119.991 22.9973 119.991 24.3116Q119.991 25.6259 119.3 26.2999Q118.609 26.9739 117.497 26.9739Q116.419 26.9739 115.711 26.2999Q115.004 25.6259 115.004 24.2779Q115.004 22.9973 115.694 22.3233Q116.385 21.6493 117.497 21.6493Q118.576 21.6493 119.284 22.3233ZM80.631 27.075Q80.631 24.5812 79.6537 23.2837Q78.6764 21.9863 76.8903 21.9863Q75.9467 21.9863 75.1379 22.4412Q74.3291 22.8962 73.8573 23.4691L73.8573 30.8494Q74.2954 31.3549 74.9862 31.6919Q75.6771 32.0289 76.4522 32.0289Q77.261 32.0289 78.0192 31.7256Q78.7775 31.4223 79.3672 30.8157Q79.957 30.2091 80.294 29.2823Q80.631 28.3556 80.631 27.075ZM114.06 36.2077Q114.397 35.7696 114.902 35.5L119.284 35.5Q120.632 35.5 121.272 35.8707Q121.912 36.2414 121.912 37.185Q121.912 38.1286 120.901 38.87Q119.89 39.6114 117.7 39.6114Q115.509 39.6114 114.616 38.9542Q113.723 38.2971 113.723 37.3198Q113.723 36.6458 114.06 36.2077Z" />
    </g>
    <g fill="#FFFFFF" stroke="none" id="Services" transform="translate(176.55762 33.442627)">
      <path d="M42.9622 8.05051Q42.289 8.05051 41.9128 7.66441Q41.5366 7.27831 41.5366 6.70411Q41.5366 6.12991 41.9128 5.74381Q42.289 5.35771 42.9622 5.35771Q43.6156 5.35771 44.0017 5.74381Q44.3878 6.12991 44.3878 6.70411Q44.3878 7.27831 44.0116 7.66441Q43.6354 8.05051 42.9622 8.05051ZM7.5438 7.06051Q6.6132 6.82291 5.4054 6.82291Q4.2966 6.82291 3.4353 7.10011Q2.574 7.37731 1.9899 7.87231Q1.4058 8.36731 1.1088 9.05041Q0.8118 9.73351 0.8118 10.5453Q0.8118 11.2977 1.0395 11.862Q1.2672 12.4263 1.6731 12.8421Q2.079 13.2579 2.6532 13.5747Q3.2274 13.8915 3.9204 14.1291L4.9698 14.4855Q5.6232 14.6835 6.0291 14.8914Q6.435 15.0993 6.6726 15.3072Q6.9102 15.5151 6.9993 15.7428Q7.0884 15.9705 7.0884 16.2081Q7.0884 16.9011 6.5538 17.2872Q6.0192 17.6733 4.9698 17.6733Q4.0788 17.6733 3.267 17.4456Q2.4552 17.2179 1.6038 16.8021L0.99 18.8217Q2.8512 19.7325 5.0886 19.7325Q6.2766 19.7325 7.1676 19.4355Q8.0586 19.1385 8.6526 18.6237Q9.2466 18.1089 9.5436 17.4159Q9.8406 16.7229 9.8406 15.9309Q9.8406 14.6043 8.9991 13.6935Q8.1576 12.7827 6.6726 12.2877L5.4846 11.9115Q4.4748 11.5947 4.0194 11.2581Q3.564 10.9215 3.564 10.2681Q3.564 9.63451 4.0887 9.25831Q4.6134 8.88211 5.5638 8.88211Q6.2766 8.88211 7.029 9.09001Q7.7814 9.29791 8.5932 9.69391L9.207 7.67431Q8.4744 7.29811 7.5438 7.06051ZM14.3392 15.4755L20.6158 15.4755L20.6158 14.3073Q20.6158 12.2085 19.4773 11.0403Q18.3388 9.87211 16.4182 9.87211Q15.349 9.87211 14.4778 10.2384Q13.6066 10.6047 12.9829 11.2581Q12.3592 11.9115 12.0226 12.8322Q11.686 13.7529 11.686 14.8815Q11.686 16.1487 12.1018 17.0595Q12.5176 17.9703 13.2205 18.5643Q13.9234 19.1583 14.8639 19.4454Q15.8044 19.7325 16.8736 19.7325Q17.9824 19.7325 18.7942 19.5444Q19.606 19.3563 20.1406 19.0989L19.6654 17.2575Q19.1704 17.4753 18.5665 17.6337Q17.9626 17.7921 17.1706 17.7921Q15.9232 17.7921 15.1312 17.2377Q14.3392 16.6833 14.3392 15.5547L14.3392 15.4755ZM22.877 19.5147L22.877 10.0701L24.9164 10.0701L25.2134 11.7729Q25.55 11.0205 26.2826 10.4463Q27.0152 9.87211 28.124 9.87211Q28.5794 9.87211 28.9358 9.97111Q29.2922 10.0701 29.5298 10.2087L29.0942 12.2877Q28.8764 12.1689 28.5398 12.0798Q28.2032 11.9907 27.7478 11.9907Q26.7776 11.9907 26.1341 12.6342Q25.4906 13.2777 25.4906 14.7429L25.4906 19.5147L22.877 19.5147ZM53.3513 17.6238Q52.8662 17.7921 52.2326 17.7921Q51.7178 17.7921 51.2228 17.6337Q50.7278 17.4753 50.3318 17.1189Q49.9358 16.7625 49.6883 16.1784Q49.4408 15.5943 49.4408 14.7429Q49.4408 13.2975 50.2031 12.5451Q50.9654 11.7927 52.193 11.7927Q52.688 11.7927 53.1731 11.9412Q53.6582 12.0897 54.074 12.3273L54.6284 10.5057Q53.876 10.1097 53.1929 9.99091Q52.5098 9.87211 51.896 9.87211Q50.7674 9.87211 49.817 10.2285Q48.8666 10.5849 48.1934 11.2383Q47.5202 11.8917 47.144 12.8025Q46.7678 13.7133 46.7678 14.8221Q46.7678 16.0299 47.1638 16.9407Q47.5598 17.8515 48.2429 18.4752Q48.926 19.0989 49.8566 19.4157Q50.7872 19.7325 51.8564 19.7325Q52.7474 19.7325 53.4998 19.5345Q54.2522 19.3365 54.6482 19.1187L54.1532 17.2971Q53.8364 17.4555 53.3513 17.6238ZM65.2254 15.4755L58.9488 15.4755L58.9488 15.5547Q58.9488 16.6833 59.7408 17.2377Q60.5328 17.7921 61.7802 17.7921Q62.5722 17.7921 63.1761 17.6337Q63.78 17.4753 64.275 17.2575L64.7502 19.0989Q64.2156 19.3563 63.4038 19.5444Q62.592 19.7325 61.4832 19.7325Q60.414 19.7325 59.4735 19.4454Q58.533 19.1583 57.8301 18.5643Q57.1272 17.9703 56.7114 17.0595Q56.2956 16.1487 56.2956 14.8815Q56.2956 13.7529 56.6322 12.8322Q56.9688 11.9115 57.5925 11.2581Q58.2162 10.6047 59.0874 10.2384Q59.9586 9.87211 61.0278 9.87211Q62.9484 9.87211 64.0869 11.0403Q65.2254 12.2085 65.2254 14.3073L65.2254 15.4755ZM70.9318 11.7729Q72.0208 11.7729 73.189 12.3273L73.7434 10.4859Q72.4168 9.87211 70.6942 9.87211Q68.9518 9.87211 67.9816 10.6839Q67.0114 11.4957 67.0114 12.7827Q67.0114 13.8717 67.5658 14.5251Q68.1202 15.1785 69.3082 15.5745L69.922 15.7527Q70.912 16.0299 71.2684 16.2576Q71.6248 16.4853 71.6248 16.9011Q71.6248 17.2971 71.2585 17.5446Q70.8922 17.7921 70.1002 17.7921Q69.4468 17.7921 68.8132 17.604Q68.1796 17.4159 67.6054 17.1189L67.0114 19.0593Q68.3578 19.7325 70.2388 19.7325Q72.0802 19.7325 73.1593 18.9009Q74.2384 18.0693 74.2384 16.6635Q74.2384 15.5943 73.6048 14.9211Q72.9712 14.2479 71.7436 13.8915L71.1496 13.7133Q70.219 13.4361 69.9121 13.1985Q69.6052 12.9609 69.6052 12.5847Q69.6052 12.2085 69.9517 11.9907Q70.2982 11.7729 70.9318 11.7729ZM39.6516 10.0701L36.8598 10.0701L35.4342 14.7825L34.86 17.6337L34.7808 17.6337L34.2066 14.7825L32.8206 10.0701L30.009 10.0701L33.2562 19.5147L36.3054 19.5147L39.6516 10.0701ZM41.6356 19.5147L41.6356 10.0701L44.269 10.0701L44.269 19.5147L41.6356 19.5147ZM17.8339 12.9411Q17.923 13.2975 17.923 13.6737L14.3986 13.7133Q14.4976 12.8025 15.0124 12.2679Q15.5272 11.7333 16.3192 11.7333Q16.7548 11.7333 17.0518 11.8917Q17.3488 12.0501 17.5468 12.3174Q17.7448 12.5847 17.8339 12.9411ZM62.5326 13.6737Q62.5326 13.2975 62.4435 12.9411Q62.3544 12.5847 62.1564 12.3174Q61.9584 12.0501 61.6614 11.8917Q61.3644 11.7333 60.9288 11.7333Q60.1368 11.7333 59.622 12.2679Q59.1072 12.8025 59.0082 13.7133L62.5326 13.6737Z" />
    </g>
    <path d="M3.49094 43.7708L165.231 43.7708Q165.329 43.7708 165.426 43.7899Q165.522 43.8091 165.613 43.8468Q165.704 43.8844 165.786 43.9391Q165.868 43.9938 165.937 44.0634Q166.007 44.1329 166.061 44.2147Q166.116 44.2965 166.154 44.3874Q166.191 44.4784 166.211 44.5749Q166.23 44.6714 166.23 44.7698L166.23 49.1652Q166.23 49.2636 166.211 49.3601Q166.191 49.4566 166.154 49.5475Q166.116 49.6384 166.061 49.7202Q166.007 49.802 165.937 49.8716Q165.868 49.9412 165.786 49.9958Q165.704 50.0505 165.613 50.0881Q165.522 50.1258 165.426 50.145Q165.329 50.1642 165.231 50.1642L3.49094 50.1642Q3.34361 50.1642 3.19699 50.1498Q3.05037 50.1353 2.90587 50.1066Q2.76137 50.0778 2.62038 50.0351Q2.47939 49.9923 2.34328 49.9359Q2.20716 49.8795 2.07722 49.8101Q1.94729 49.7406 1.82479 49.6588Q1.70229 49.5769 1.5884 49.4835Q1.47451 49.39 1.37033 49.2858Q1.26615 49.1816 1.17269 49.0677Q1.07922 48.9538 0.997366 48.8313Q0.915513 48.7088 0.846061 48.5789Q0.77661 48.449 0.720229 48.3129Q0.663847 48.1767 0.621079 48.0358Q0.578311 47.8948 0.549568 47.7503Q0.520825 47.6058 0.506384 47.4591Q0.491943 47.3125 0.491943 47.1652L0.491943 46.7698Q0.491943 46.6224 0.506384 46.4758Q0.520825 46.3292 0.549568 46.1847Q0.578311 46.0402 0.621079 45.8992Q0.663847 45.7582 0.720229 45.6221Q0.77661 45.486 0.846061 45.356Q0.915513 45.2261 0.997366 45.1036Q1.07922 44.9811 1.17269 44.8672Q1.26615 44.7533 1.37033 44.6491Q1.47451 44.545 1.5884 44.4515Q1.70229 44.358 1.82479 44.2762Q1.94729 44.1943 2.07722 44.1249Q2.20716 44.0554 2.34328 43.999Q2.47939 43.9427 2.62038 43.8999Q2.76137 43.8571 2.90587 43.8284Q3.05037 43.7996 3.19699 43.7852Q3.34361 43.7708 3.49094 43.7708Z" id="Rectangle-Copy" fill="#FFFFFF" fill-rule="evenodd" stroke="none" />
    <path d="M3.98264 5.40967L4.37809 5.40967Q4.52542 5.40967 4.67204 5.42411Q4.81866 5.43855 4.96316 5.46729Q5.10767 5.49604 5.24865 5.5388Q5.38964 5.58157 5.52576 5.63795Q5.66187 5.69433 5.79181 5.76379Q5.92174 5.83324 6.04424 5.91509Q6.16675 5.99694 6.28063 6.09041Q6.39452 6.18388 6.4987 6.28805Q6.60288 6.39223 6.69635 6.50612Q6.78981 6.62001 6.87167 6.74251Q6.95352 6.86501 7.02297 6.99495Q7.09242 7.12488 7.1488 7.261Q7.20518 7.39712 7.24795 7.5381Q7.29072 7.67909 7.31946 7.82359Q7.34821 7.96809 7.36265 8.11471Q7.37709 8.26134 7.37709 8.40867L7.37709 47.1648Q7.37709 47.3121 7.36265 47.4587Q7.34821 47.6054 7.31946 47.7499Q7.29072 47.8944 7.24795 48.0353Q7.20518 48.1763 7.1488 48.3124Q7.09242 48.4486 7.02297 48.5785Q6.95352 48.7084 6.87167 48.8309Q6.78981 48.9534 6.69635 49.0673Q6.60288 49.1812 6.4987 49.2854Q6.39452 49.3896 6.28063 49.483Q6.16675 49.5765 6.04424 49.6584Q5.92174 49.7402 5.79181 49.8097Q5.66187 49.8791 5.52576 49.9355Q5.38964 49.9919 5.24865 50.0346Q5.10767 50.0774 4.96316 50.1062Q4.81866 50.1349 4.67204 50.1493Q4.52542 50.1638 4.37809 50.1638L3.98264 50.1638Q3.83531 50.1638 3.68869 50.1493Q3.54207 50.1349 3.39757 50.1062Q3.25307 50.0774 3.11208 50.0346Q2.97109 49.9919 2.83497 49.9355Q2.69886 49.8791 2.56892 49.8097Q2.43899 49.7402 2.31649 49.6584Q2.19399 49.5765 2.0801 49.483Q1.96621 49.3896 1.86203 49.2854Q1.75785 49.1812 1.66438 49.0673Q1.57092 48.9534 1.48907 48.8309Q1.40721 48.7084 1.33776 48.5785Q1.26831 48.4486 1.21193 48.3124Q1.15555 48.1763 1.11278 48.0353Q1.07001 47.8944 1.04127 47.7499Q1.01252 47.6054 0.998084 47.4587Q0.983643 47.3121 0.983643 47.1648L0.983643 8.40867Q0.983643 8.26134 0.998084 8.11472Q1.01252 7.96809 1.04127 7.82359Q1.07001 7.67909 1.11278 7.5381Q1.15555 7.39712 1.21193 7.261Q1.26831 7.12488 1.33776 6.99495Q1.40721 6.86501 1.48906 6.74251Q1.57092 6.62001 1.66438 6.50612Q1.75785 6.39223 1.86203 6.28805Q1.96621 6.18388 2.0801 6.09041Q2.19399 5.99694 2.31649 5.91509Q2.43899 5.83324 2.56892 5.76379Q2.69886 5.69433 2.83497 5.63795Q2.97109 5.58157 3.11208 5.5388Q3.25307 5.49604 3.39757 5.46729Q3.54207 5.43855 3.68869 5.42411Q3.83531 5.40967 3.98264 5.40967Z" id="Rectangle-2-Copy" fill="#FFFFFF" fill-rule="evenodd" stroke="none" />
    <path d="M0.999 5.40967L6.86986 5.40967Q6.96825 5.40967 7.06475 5.42886Q7.16125 5.44806 7.25216 5.48571Q7.34306 5.52337 7.42487 5.57803Q7.50668 5.63269 7.57626 5.70227Q7.64583 5.77184 7.70049 5.85365Q7.75516 5.93546 7.79281 6.02637Q7.83046 6.11727 7.84966 6.21377Q7.86886 6.31028 7.86886 6.40867L7.86886 9.3287Q7.86886 9.4271 7.84966 9.5236Q7.83046 9.6201 7.79281 9.711Q7.75516 9.80191 7.70049 9.88372Q7.64583 9.96553 7.57626 10.0351Q7.50668 10.1047 7.42487 10.1593Q7.34306 10.214 7.25216 10.2517Q7.16125 10.2893 7.06475 10.3085Q6.96825 10.3277 6.86986 10.3277L0.999 10.3277Q0.900607 10.3277 0.804105 10.3085Q0.707602 10.2893 0.616699 10.2517Q0.525796 10.214 0.443985 10.1593Q0.362175 10.1047 0.2926 10.0351Q0.223026 9.96553 0.168362 9.88372Q0.113698 9.80191 0.0760443 9.711Q0.038391 9.6201 0.0191955 9.5236Q0 9.4271 0 9.3287L0 6.40867Q0 6.31028 0.0191955 6.21377Q0.038391 6.11727 0.0760443 6.02637Q0.113698 5.93546 0.168362 5.85365Q0.223026 5.77184 0.2926 5.70227Q0.362175 5.63269 0.443985 5.57803Q0.525796 5.52337 0.616699 5.48571Q0.707602 5.44806 0.804105 5.42886Q0.900607 5.40967 0.999 5.40967Z" id="Rectangle-3-Copy-7" fill="#FFFFFF" fill-rule="evenodd" stroke="none" />
    <path d="M0.999 20.6558L6.86986 20.6558Q6.96825 20.6558 7.06475 20.675Q7.16125 20.6942 7.25216 20.7318Q7.34306 20.7695 7.42487 20.8241Q7.50668 20.8788 7.57626 20.9484Q7.64583 21.0179 7.70049 21.0997Q7.75516 21.1816 7.79281 21.2725Q7.83046 21.3634 7.84966 21.4599Q7.86886 21.5564 7.86886 21.6548L7.86886 24.5748Q7.86886 24.6732 7.84966 24.7697Q7.83046 24.8662 7.79281 24.9571Q7.75516 25.048 7.70049 25.1298Q7.64583 25.2116 7.57626 25.2812Q7.50668 25.3508 7.42487 25.4054Q7.34306 25.4601 7.25216 25.4977Q7.16125 25.5354 7.06475 25.5546Q6.96825 25.5738 6.86986 25.5738L0.999 25.5738Q0.900607 25.5738 0.804105 25.5546Q0.707602 25.5354 0.616699 25.4977Q0.525796 25.4601 0.443985 25.4054Q0.362175 25.3508 0.2926 25.2812Q0.223026 25.2116 0.168362 25.1298Q0.113698 25.048 0.0760443 24.9571Q0.038391 24.8662 0.0191955 24.7697Q0 24.6732 0 24.5748L0 21.6548Q0 21.5564 0.0191955 21.4599Q0.038391 21.3634 0.0760443 21.2725Q0.113698 21.1816 0.168362 21.0997Q0.223026 21.0179 0.2926 20.9484Q0.362175 20.8788 0.443985 20.8241Q0.525796 20.7695 0.616699 20.7318Q0.707602 20.6942 0.804105 20.675Q0.900607 20.6558 0.999 20.6558Z" id="Rectangle-3-Copy-8" fill="#FFFFFF" fill-rule="evenodd" stroke="none" />
    <path d="M0.999 35.9016L6.86986 35.9016Q6.96825 35.9016 7.06475 35.9208Q7.16125 35.94 7.25216 35.9777Q7.34306 36.0153 7.42487 36.07Q7.50668 36.1246 7.57626 36.1942Q7.64583 36.2638 7.70049 36.3456Q7.75516 36.4274 7.79281 36.5183Q7.83046 36.6092 7.84966 36.7057Q7.86886 36.8022 7.86886 36.9006L7.86886 39.8206Q7.86886 39.919 7.84966 40.0155Q7.83046 40.112 7.79281 40.2029Q7.75516 40.2938 7.70049 40.3757Q7.64583 40.4575 7.57626 40.527Q7.50668 40.5966 7.42487 40.6513Q7.34306 40.7059 7.25216 40.7436Q7.16125 40.7813 7.06475 40.8004Q6.96825 40.8196 6.86986 40.8196L0.999 40.8196Q0.900607 40.8196 0.804105 40.8004Q0.707602 40.7813 0.616699 40.7436Q0.525796 40.7059 0.443985 40.6513Q0.362175 40.5966 0.2926 40.527Q0.223026 40.4575 0.168362 40.3757Q0.113698 40.2938 0.0760443 40.2029Q0.038391 40.112 0.0191955 40.0155Q0 39.919 0 39.8206L0 36.9006Q0 36.8022 0.0191955 36.7057Q0.038391 36.6092 0.0760443 36.5183Q0.113698 36.4274 0.168362 36.3456Q0.223026 36.2638 0.2926 36.1942Q0.362175 36.1246 0.443985 36.07Q0.525796 36.0153 0.616699 35.9777Q0.707602 35.94 0.804105 35.9208Q0.900607 35.9016 0.999 35.9016Z" id="Rectangle-3-Copy-9" fill="#FFFFFF" fill-rule="evenodd" stroke="none" />
    <path d="M10.8179 50.1414L10.8179 43.7799Q10.8179 43.6815 10.8371 43.585Q10.8563 43.4885 10.8939 43.3976Q10.9316 43.3067 10.9862 43.2248Q11.0409 43.143 11.1105 43.0735Q11.18 43.0039 11.2619 42.9492Q11.3437 42.8946 11.4346 42.8569Q11.5255 42.8193 11.622 42.8001Q11.7185 42.7809 11.8169 42.7809L14.7362 42.7809Q14.8346 42.7809 14.9311 42.8001Q15.0276 42.8193 15.1185 42.8569Q15.2094 42.8946 15.2912 42.9492Q15.3731 43.0039 15.4426 43.0735Q15.5122 43.143 15.5669 43.2248Q15.6215 43.3067 15.6592 43.3976Q15.6968 43.4885 15.716 43.585Q15.7352 43.6815 15.7352 43.7799L15.7352 50.1414Q15.7352 50.2398 15.716 50.3363Q15.6968 50.4328 15.6592 50.5237Q15.6215 50.6146 15.5669 50.6964Q15.5122 50.7782 15.4426 50.8478Q15.3731 50.9174 15.2912 50.972Q15.2094 51.0267 15.1185 51.0643Q15.0276 51.102 14.9311 51.1212Q14.8346 51.1404 14.7362 51.1404L11.8169 51.1404Q11.7185 51.1404 11.622 51.1212Q11.5255 51.102 11.4346 51.0643Q11.3437 51.0267 11.2619 50.972Q11.18 50.9174 11.1105 50.8478Q11.0409 50.7782 10.9862 50.6964Q10.9316 50.6146 10.8939 50.5237Q10.8563 50.4328 10.8371 50.3363Q10.8179 50.2398 10.8179 50.1414Z" id="Rectangle-3-Copy-10" fill="#FFFFFF" fill-rule="evenodd" stroke="none" />
    <path d="M81.1365 50.1414L81.1365 43.7799Q81.1365 43.6815 81.1557 43.585Q81.1749 43.4885 81.2125 43.3976Q81.2502 43.3067 81.3048 43.2248Q81.3595 43.143 81.4291 43.0735Q81.4986 43.0039 81.5804 42.9492Q81.6623 42.8946 81.7532 42.8569Q81.8441 42.8193 81.9406 42.8001Q82.0371 42.7809 82.1355 42.7809L85.0548 42.7809Q85.1532 42.7809 85.2497 42.8001Q85.3462 42.8193 85.4371 42.8569Q85.528 42.8946 85.6098 42.9492Q85.6917 43.0039 85.7612 43.0735Q85.8308 43.143 85.8855 43.2248Q85.9401 43.3067 85.9778 43.3976Q86.0154 43.4885 86.0346 43.585Q86.0538 43.6815 86.0538 43.7799L86.0538 50.1414Q86.0538 50.2398 86.0346 50.3363Q86.0154 50.4328 85.9778 50.5237Q85.9401 50.6146 85.8855 50.6964Q85.8308 50.7782 85.7612 50.8478Q85.6917 50.9174 85.6098 50.972Q85.528 51.0267 85.4371 51.0643Q85.3462 51.102 85.2497 51.1212Q85.1532 51.1404 85.0548 51.1404L82.1355 51.1404Q82.0371 51.1404 81.9406 51.1212Q81.8441 51.102 81.7532 51.0643Q81.6623 51.0267 81.5804 50.972Q81.4986 50.9174 81.4291 50.8478Q81.3595 50.7782 81.3048 50.6964Q81.2502 50.6146 81.2125 50.5237Q81.1749 50.4328 81.1557 50.3363Q81.1365 50.2398 81.1365 50.1414Z" id="Rectangle-3-Copy-11" fill="#FFFFFF" fill-rule="evenodd" stroke="none" />
    <path d="M148.013 50.1414L148.013 43.7799Q148.013 43.6815 148.032 43.585Q148.051 43.4885 148.089 43.3976Q148.126 43.3067 148.181 43.2248Q148.236 43.143 148.305 43.0735Q148.375 43.0039 148.457 42.9492Q148.538 42.8946 148.629 42.8569Q148.72 42.8193 148.817 42.8001Q148.913 42.7809 149.012 42.7809L151.931 42.7809Q152.029 42.7809 152.126 42.8001Q152.222 42.8193 152.313 42.8569Q152.404 42.8946 152.486 42.9492Q152.568 43.0039 152.637 43.0735Q152.707 43.143 152.762 43.2249Q152.816 43.3067 152.854 43.3976Q152.892 43.4885 152.911 43.585Q152.93 43.6815 152.93 43.7799L152.93 50.1414Q152.93 50.2398 152.911 50.3363Q152.892 50.4328 152.854 50.5237Q152.816 50.6146 152.762 50.6964Q152.707 50.7782 152.637 50.8478Q152.568 50.9174 152.486 50.972Q152.404 51.0267 152.313 51.0643Q152.222 51.102 152.126 51.1212Q152.029 51.1404 151.931 51.1404L149.012 51.1404Q148.913 51.1404 148.817 51.1212Q148.72 51.102 148.629 51.0643Q148.538 51.0267 148.457 50.972Q148.375 50.9174 148.305 50.8478Q148.236 50.7782 148.181 50.6964Q148.126 50.6146 148.089 50.5237Q148.051 50.4328 148.032 50.3363Q148.013 50.2398 148.013 50.1414Z" id="Rectangle-3-Copy-12" fill="#FFFFFF" fill-rule="evenodd" stroke="none" />
    <path d="M16.7203 45.2458L37.8699 45.2458Q37.9182 45.2458 37.9656 45.2553Q38.013 45.2647 38.0577 45.2832Q38.1023 45.3017 38.1425 45.3286Q38.1827 45.3554 38.2169 45.3896Q38.2511 45.4238 38.2779 45.464Q38.3048 45.5042 38.3233 45.5488Q38.3418 45.5935 38.3512 45.6409Q38.3607 45.6883 38.3607 45.7367L38.3607 45.7387Q38.3607 45.787 38.3512 45.8344Q38.3418 45.8818 38.3233 45.9265Q38.3048 45.9711 38.2779 46.0113Q38.2511 46.0515 38.2169 46.0857Q38.1827 46.1199 38.1425 46.1467Q38.1023 46.1736 38.0577 46.1921Q38.013 46.2106 37.9656 46.22Q37.9182 46.2295 37.8699 46.2295L16.7203 46.2295Q16.672 46.2295 16.6245 46.22Q16.5771 46.2106 16.5325 46.1921Q16.4878 46.1736 16.4476 46.1467Q16.4074 46.1199 16.3732 46.0857Q16.3391 46.0515 16.3122 46.0113Q16.2854 45.9711 16.2669 45.9265Q16.2484 45.8818 16.2389 45.8344Q16.2295 45.787 16.2295 45.7387L16.2295 45.7367Q16.2295 45.6883 16.2389 45.6409Q16.2484 45.5935 16.2669 45.5488Q16.2854 45.5042 16.3122 45.464Q16.3391 45.4238 16.3732 45.3896Q16.4074 45.3554 16.4476 45.3286Q16.4878 45.3017 16.5325 45.2832Q16.5771 45.2647 16.6245 45.2553Q16.672 45.2458 16.7203 45.2458Z" id="Rectangle-6-Copy-6" fill="#031932" fill-rule="evenodd" stroke="none" />
    <path d="M39.3431 45.2458L78.6894 45.2458Q78.7377 45.2458 78.7851 45.2553Q78.8325 45.2647 78.8772 45.2832Q78.9218 45.3017 78.962 45.3286Q79.0022 45.3554 79.0364 45.3896Q79.0706 45.4238 79.0975 45.464Q79.1243 45.5042 79.1428 45.5488Q79.1613 45.5935 79.1707 45.6409Q79.1802 45.6883 79.1802 45.7367L79.1802 45.7387Q79.1802 45.787 79.1707 45.8344Q79.1613 45.8818 79.1428 45.9265Q79.1243 45.9711 79.0975 46.0113Q79.0706 46.0515 79.0364 46.0857Q79.0022 46.1199 78.962 46.1467Q78.9218 46.1736 78.8772 46.1921Q78.8325 46.2106 78.7851 46.22Q78.7377 46.2295 78.6894 46.2295L39.3431 46.2295Q39.2948 46.2295 39.2473 46.22Q39.1999 46.2106 39.1553 46.1921Q39.1106 46.1736 39.0704 46.1467Q39.0302 46.1199 38.996 46.0857Q38.9619 46.0515 38.935 46.0113Q38.9081 45.9711 38.8896 45.9265Q38.8712 45.8818 38.8617 45.8344Q38.8523 45.787 38.8523 45.7387L38.8523 45.7367Q38.8523 45.6883 38.8617 45.6409Q38.8712 45.5935 38.8896 45.5488Q38.9081 45.5042 38.935 45.464Q38.9619 45.4238 38.996 45.3896Q39.0302 45.3554 39.0704 45.3286Q39.1106 45.3017 39.1553 45.2832Q39.1999 45.2647 39.2473 45.2553Q39.2948 45.2458 39.3431 45.2458Z" id="Rectangle-6-Copy-7" fill="#031932" fill-rule="evenodd" stroke="none" />
    <path d="M88.0318 45.2458L146.558 45.2458Q146.607 45.2458 146.654 45.2553Q146.702 45.2647 146.746 45.2832Q146.791 45.3017 146.831 45.3286Q146.871 45.3554 146.905 45.3896Q146.94 45.4238 146.967 45.464Q146.993 45.5042 147.012 45.5488Q147.03 45.5935 147.04 45.6409Q147.049 45.6883 147.049 45.7367L147.049 45.7387Q147.049 45.787 147.04 45.8344Q147.03 45.8818 147.012 45.9265Q146.993 45.9711 146.967 46.0113Q146.94 46.0515 146.905 46.0857Q146.871 46.1199 146.831 46.1467Q146.791 46.1736 146.746 46.1921Q146.702 46.2106 146.654 46.22Q146.607 46.2295 146.558 46.2295L88.0318 46.2295Q87.9835 46.2295 87.9361 46.22Q87.8886 46.2106 87.844 46.1921Q87.7993 46.1736 87.7591 46.1467Q87.7189 46.1199 87.6848 46.0857Q87.6506 46.0515 87.6237 46.0113Q87.5969 45.9711 87.5784 45.9265Q87.5599 45.8818 87.5504 45.8344Q87.541 45.787 87.541 45.7387L87.541 45.7367Q87.541 45.6883 87.5504 45.6409Q87.5599 45.5935 87.5784 45.5488Q87.5969 45.5042 87.6237 45.464Q87.6506 45.4238 87.6848 45.3896Q87.7189 45.3554 87.7591 45.3286Q87.7993 45.3017 87.844 45.2832Q87.8886 45.2647 87.9361 45.2553Q87.9835 45.2458 88.0318 45.2458Z" id="Rectangle-6-Copy-8" fill="#031932" fill-rule="evenodd" stroke="none" />
    <path d="M1.4751 34.9141L1.4751 25.5691Q1.4751 25.5207 1.48453 25.4733Q1.49396 25.4259 1.51245 25.3813Q1.53095 25.3366 1.5578 25.2964Q1.58465 25.2562 1.61883 25.2221Q1.65301 25.1879 1.69319 25.161Q1.73338 25.1342 1.77804 25.1157Q1.82269 25.0972 1.8701 25.0878Q1.9175 25.0783 1.96583 25.0783L1.96783 25.0783Q2.01617 25.0783 2.06357 25.0878Q2.11098 25.0972 2.15563 25.1157Q2.20028 25.1342 2.24047 25.161Q2.28066 25.1879 2.31484 25.2221Q2.34901 25.2562 2.37586 25.2964Q2.40272 25.3366 2.42121 25.3813Q2.43971 25.4259 2.44914 25.4733Q2.45857 25.5207 2.45857 25.5691L2.45857 34.9141Q2.45857 34.9624 2.44914 35.0098Q2.43971 35.0572 2.42121 35.1018Q2.40272 35.1465 2.37587 35.1867Q2.34901 35.2269 2.31484 35.2611Q2.28066 35.2952 2.24047 35.3221Q2.20028 35.3489 2.15563 35.3674Q2.11098 35.3859 2.06357 35.3954Q2.01617 35.4048 1.96783 35.4048L1.96583 35.4048Q1.9175 35.4048 1.8701 35.3954Q1.82269 35.3859 1.77804 35.3674Q1.73338 35.3489 1.6932 35.3221Q1.65301 35.2952 1.61883 35.2611Q1.58465 35.2269 1.5578 35.1867Q1.53095 35.1465 1.51245 35.1018Q1.49396 35.0572 1.48453 35.0098Q1.4751 34.9624 1.4751 34.9141Z" id="Rectangle-6-Copy-9" fill="#031932" fill-rule="evenodd" stroke="none" />
    <path d="M1.4751 19.1787L1.4751 11.3089Q1.4751 11.2606 1.48453 11.2132Q1.49396 11.1658 1.51245 11.1211Q1.53095 11.0765 1.5578 11.0363Q1.58465 10.9961 1.61883 10.9619Q1.65301 10.9277 1.69319 10.9009Q1.73338 10.874 1.77804 10.8555Q1.82269 10.837 1.8701 10.8276Q1.9175 10.8182 1.96583 10.8182L1.96783 10.8182Q2.01617 10.8182 2.06357 10.8276Q2.11098 10.837 2.15563 10.8555Q2.20028 10.874 2.24047 10.9009Q2.28066 10.9277 2.31484 10.9619Q2.34901 10.9961 2.37586 11.0363Q2.40272 11.0765 2.42121 11.1211Q2.43971 11.1658 2.44914 11.2132Q2.45857 11.2606 2.45857 11.3089L2.45857 19.1787Q2.45857 19.227 2.44914 19.2744Q2.43971 19.3218 2.42121 19.3665Q2.40272 19.4111 2.37586 19.4513Q2.34901 19.4915 2.31484 19.5257Q2.28066 19.5599 2.24047 19.5867Q2.20028 19.6136 2.15563 19.6321Q2.11098 19.6506 2.06357 19.66Q2.01617 19.6694 1.96783 19.6694L1.96583 19.6694Q1.9175 19.6694 1.8701 19.66Q1.82269 19.6506 1.77804 19.6321Q1.73338 19.6136 1.69319 19.5867Q1.65301 19.5599 1.61883 19.5257Q1.58465 19.4915 1.5578 19.4513Q1.53095 19.4111 1.51245 19.3665Q1.49396 19.3218 1.48453 19.2744Q1.4751 19.227 1.4751 19.1787Z" id="Rectangle-6-Copy-10" fill="#031932" fill-rule="evenodd" stroke="none" />
    <path d="M156.901 41.3115L161.296 41.3115Q161.395 41.3115 161.491 41.3307Q161.588 41.3499 161.679 41.3876Q161.769 41.4252 161.851 41.4799Q161.933 41.5345 162.003 41.6041Q162.072 41.6737 162.127 41.7555Q162.182 41.8373 162.219 41.9282Q162.257 42.0191 162.276 42.1156Q162.295 42.2121 162.295 42.3105L162.295 49.1322Q162.295 49.2795 162.281 49.4262Q162.266 49.5728 162.238 49.7173Q162.209 49.8618 162.166 50.0028Q162.123 50.1437 162.067 50.2799Q162.011 50.416 161.941 50.5459Q161.872 50.6758 161.79 50.7983Q161.708 50.9209 161.615 51.0347Q161.521 51.1486 161.417 51.2528Q161.313 51.357 161.199 51.4505Q161.085 51.5439 160.962 51.6258Q160.84 51.7076 160.71 51.7771Q160.58 51.8465 160.444 51.9029Q160.308 51.9593 160.167 52.0021Q160.026 52.0448 159.881 52.0736Q159.737 52.1023 159.59 52.1168Q159.444 52.1312 159.296 52.1312L158.901 52.1312Q158.754 52.1312 158.607 52.1168Q158.46 52.1023 158.316 52.0736Q158.171 52.0448 158.03 52.0021Q157.889 51.9593 157.753 51.9029Q157.617 51.8465 157.487 51.7771Q157.357 51.7076 157.235 51.6258Q157.112 51.5439 156.998 51.4505Q156.884 51.357 156.78 51.2528Q156.676 51.1486 156.583 51.0347Q156.489 50.9209 156.407 50.7984Q156.325 50.6759 156.256 50.5459Q156.187 50.416 156.13 50.2799Q156.074 50.1437 156.031 50.0028Q155.988 49.8618 155.959 49.7173Q155.931 49.5728 155.916 49.4262Q155.902 49.2795 155.902 49.1322L155.902 42.3105Q155.902 42.2121 155.921 42.1156Q155.94 42.0191 155.978 41.9282Q156.016 41.8373 156.07 41.7555Q156.125 41.6737 156.194 41.6041Q156.264 41.5345 156.346 41.4799Q156.428 41.4252 156.519 41.3876Q156.609 41.3499 156.706 41.3307Q156.802 41.3115 156.901 41.3115Z" id="Rectangle-13" fill="#FFFFFF" fill-rule="evenodd" stroke="none" />
    <path d="M166.066 43.7708L167.165 43.7708Q167.313 43.7708 167.459 43.7852Q167.606 43.7996 167.75 43.8284Q167.895 43.8571 168.036 43.8999Q168.177 43.9427 168.313 43.999Q168.449 44.0554 168.579 44.1249Q168.709 44.1943 168.831 44.2762Q168.954 44.358 169.068 44.4515Q169.182 44.545 169.286 44.6491Q169.39 44.7533 169.484 44.8672Q169.577 44.9811 169.659 45.1036Q169.741 45.2261 169.81 45.356Q169.88 45.486 169.936 45.6221Q169.992 45.7582 170.035 45.8992Q170.078 46.0402 170.107 46.1847Q170.135 46.3292 170.15 46.4758Q170.164 46.6224 170.164 46.7698L170.164 53.5914Q170.164 53.6898 170.145 53.7863Q170.126 53.8828 170.088 53.9737Q170.051 54.0646 169.996 54.1464Q169.941 54.2282 169.872 54.2978Q169.802 54.3674 169.72 54.4221Q169.638 54.4767 169.548 54.5144Q169.457 54.552 169.36 54.5712Q169.264 54.5904 169.165 54.5904L164.606 54.5904Q164.507 54.5904 164.411 54.5712Q164.314 54.552 164.224 54.5144Q164.133 54.4767 164.051 54.4221Q163.969 54.3674 163.899 54.2978Q163.83 54.2282 163.775 54.1464Q163.721 54.0646 163.683 53.9737Q163.645 53.8828 163.626 53.7863Q163.607 53.6898 163.607 53.5914C163.607 52.886 163.607 52.0659 163.607 52.0659C163.607 52.0659 163.607 51.1856 163.279 50.7544C162.951 50.3231 162.295 50.3408 162.295 50.3408L163.125 46.1827Q163.151 46.0564 163.187 45.9327Q163.223 45.8089 163.269 45.6888Q163.315 45.5686 163.372 45.4529Q163.429 45.3371 163.495 45.2267Q163.561 45.1162 163.637 45.0118Q163.712 44.9074 163.796 44.8099Q163.881 44.7124 163.973 44.6225Q164.065 44.5326 164.165 44.4509Q164.264 44.3692 164.371 44.2963Q164.477 44.2235 164.589 44.16Q164.701 44.0965 164.818 44.0429Q164.935 43.9893 165.057 43.9459Q165.178 43.9025 165.302 43.8697Q165.427 43.8369 165.554 43.8149Q165.681 43.7929 165.809 43.7818Q165.938 43.7708 166.066 43.7708Z" id="Rectangle-14" fill="#FFFFFF" fill-rule="evenodd" stroke="none" />
    <path d="M163.77 53.1147L169.674 53.1147Q169.77 53.1147 169.865 53.1336Q169.96 53.1525 170.05 53.1895Q170.139 53.2266 170.219 53.2803Q170.3 53.3341 170.368 53.4025Q170.437 53.471 170.491 53.5514Q170.544 53.6319 170.581 53.7213Q170.618 53.8107 170.637 53.9057Q170.656 54.0006 170.656 54.0974L170.656 54.0994Q170.656 54.1961 170.637 54.291Q170.618 54.386 170.581 54.4754Q170.544 54.5648 170.491 54.6453Q170.437 54.7257 170.368 54.7942Q170.3 54.8626 170.22 54.9164Q170.139 54.9701 170.05 55.0072Q169.96 55.0442 169.865 55.0631Q169.77 55.082 169.674 55.082L163.77 55.082Q163.673 55.082 163.578 55.0631Q163.483 55.0442 163.394 55.0072Q163.304 54.9701 163.224 54.9164Q163.144 54.8626 163.075 54.7942Q163.007 54.7257 162.953 54.6453Q162.899 54.5648 162.862 54.4754Q162.825 54.386 162.806 54.291Q162.787 54.1961 162.787 54.0994L162.787 54.0974Q162.787 54.0006 162.806 53.9056Q162.825 53.8107 162.862 53.7213Q162.899 53.6319 162.953 53.5514Q163.007 53.471 163.075 53.4025Q163.144 53.3341 163.224 53.2803Q163.304 53.2266 163.394 53.1895Q163.483 53.1525 163.578 53.1336Q163.673 53.1147 163.77 53.1147Z" id="Rectangle-15" fill="#FFFFFF" fill-rule="evenodd" stroke="none" />
    <path d="M159.097 39.3442L159.099 39.3442Q159.172 39.3442 159.243 39.3584Q159.314 39.3725 159.381 39.4003Q159.448 39.4281 159.509 39.4684Q159.569 39.5087 159.62 39.56Q159.672 39.6113 159.712 39.6716Q159.752 39.732 159.78 39.799Q159.808 39.866 159.822 39.9372Q159.836 40.0084 159.836 40.0809L159.836 42.0502Q159.836 42.1227 159.822 42.1939Q159.808 42.265 159.78 42.3321Q159.752 42.3991 159.712 42.4594Q159.672 42.5198 159.62 42.5711Q159.569 42.6224 159.509 42.6627Q159.448 42.703 159.381 42.7308Q159.314 42.7585 159.243 42.7727Q159.172 42.7869 159.099 42.7869L159.097 42.7869Q159.025 42.7869 158.954 42.7727Q158.882 42.7585 158.815 42.7308Q158.748 42.703 158.688 42.6627Q158.628 42.6224 158.576 42.5711Q158.525 42.5198 158.485 42.4594Q158.444 42.3991 158.417 42.3321Q158.389 42.265 158.375 42.1939Q158.361 42.1227 158.361 42.0502L158.361 40.0809Q158.361 40.0084 158.375 39.9372Q158.389 39.866 158.417 39.799Q158.444 39.732 158.485 39.6716Q158.525 39.6113 158.576 39.56Q158.628 39.5087 158.688 39.4684Q158.748 39.4281 158.815 39.4003Q158.882 39.3725 158.954 39.3584Q159.025 39.3442 159.097 39.3442Z" id="Rectangle-16" fill="#FFFFFF" fill-rule="evenodd" stroke="none" />
    <path d="M157.869 39.0984C157.869 38.4194 158.419 37.8689 159.098 37.8689C159.777 37.8689 160.328 38.4194 160.328 39.0984C160.328 39.7774 159.777 40.3279 159.098 40.3279C158.419 40.3279 157.869 39.7774 157.869 39.0984Z" id="Ellipse" fill="#FFFFFF" fill-rule="evenodd" stroke="none" />
    <path d="M163.279 39.0984C163.279 38.4194 163.829 37.8689 164.508 37.8689C165.187 37.8689 165.738 38.4194 165.738 39.0984C165.738 39.7774 165.187 40.3279 164.508 40.3279C163.829 40.3279 163.279 39.7774 163.279 39.0984Z" id="Ellipse-Copy" fill="#FFFFFF" fill-rule="evenodd" stroke="none" />
    <path d="M151.967 39.0984C151.967 38.4194 152.518 37.8689 153.197 37.8689C153.876 37.8689 154.426 38.4194 154.426 39.0984C154.426 39.7774 153.876 40.3279 153.197 40.3279C152.518 40.3279 151.967 39.7774 151.967 39.0984Z" id="Ellipse-Copy-2" fill="#FFFFFF" fill-rule="evenodd" stroke="none" />
    <path d="M153.196 38.3608L163.526 38.3608Q163.598 38.3608 163.669 38.375Q163.74 38.3891 163.807 38.4169Q163.875 38.4447 163.935 38.485Q163.995 38.5253 164.046 38.5766Q164.098 38.6279 164.138 38.6882Q164.178 38.7486 164.206 38.8156Q164.234 38.8827 164.248 38.9538Q164.262 39.025 164.262 39.0975L164.262 39.0995Q164.262 39.1721 164.248 39.2433Q164.234 39.3144 164.206 39.3815Q164.178 39.4485 164.138 39.5088Q164.098 39.5692 164.046 39.6205Q163.995 39.6718 163.935 39.7121Q163.875 39.7524 163.807 39.7802Q163.74 39.8079 163.669 39.8221Q163.598 39.8363 163.526 39.8363L153.196 39.8363Q153.123 39.8363 153.052 39.8221Q152.981 39.8079 152.914 39.7802Q152.847 39.7524 152.786 39.7121Q152.726 39.6718 152.675 39.6205Q152.623 39.5692 152.583 39.5088Q152.543 39.4485 152.515 39.3815Q152.487 39.3144 152.473 39.2433Q152.459 39.1721 152.459 39.0995L152.459 39.0975Q152.459 39.025 152.473 38.9538Q152.487 38.8827 152.515 38.8156Q152.543 38.7486 152.583 38.6883Q152.623 38.6279 152.675 38.5766Q152.726 38.5253 152.786 38.485Q152.847 38.4447 152.914 38.4169Q152.981 38.3891 153.052 38.375Q153.123 38.3608 153.196 38.3608Z" id="Rectangle-17" fill="#FFFFFF" fill-rule="evenodd" stroke="none" />
  </g>
</svg>