<?xml version="1.0" encoding="utf-8"?>
<svg width="313px" height="62px" viewBox="0 0 313 62" version="1.1" xmlns:xlink="http://www.w3.org/1999/xlink" xmlns="http://www.w3.org/2000/svg">
  <defs>
    <path d="M0 0L21.495 0L21.495 38L0 38L0 0Z" id="path_1" />
    <clipPath id="mask_1">
      <use xlink:href="#path_1" />
    </clipPath>
  </defs>
  <g id="Group-7" transform="translate(1 1)">
    <g fill="#FFFFFF" stroke="none" id="Gimel-Studio" transform="translate(63.78369 0)">
      <path d="M34.0371 12.6152Q34.751 12.6152 35.3914 12.8882Q36.0317 13.1611 36.5042 13.6335Q36.9766 14.106 37.2495 14.7463Q37.5225 15.3867 37.5225 16.1006Q37.5225 16.8354 37.2495 17.4653Q36.9766 18.0952 36.5042 18.5781Q36.0317 19.061 35.3914 19.334Q34.751 19.6069 34.0371 19.6069Q33.3022 19.6069 32.6724 19.334Q32.0425 19.061 31.5596 18.5781Q31.0767 18.0952 30.8037 17.4653Q30.5308 16.8354 30.5308 16.1006Q30.5308 15.3867 30.8037 14.7463Q31.0767 14.106 31.5596 13.6335Q32.0425 13.1611 32.6724 12.8882Q33.3022 12.6152 34.0371 12.6152ZM210.151 12.6152Q210.865 12.6152 211.505 12.8882Q212.146 13.1611 212.618 13.6335Q213.09 14.106 213.363 14.7463Q213.636 15.3867 213.636 16.1006Q213.636 16.8354 213.363 17.4653Q213.09 18.0952 212.618 18.5781Q212.146 19.061 211.505 19.334Q210.865 19.6069 210.151 19.6069Q209.416 19.6069 208.786 19.334Q208.156 19.061 207.673 18.5781Q207.19 18.0952 206.917 17.4653Q206.645 16.8354 206.645 16.1006Q206.645 15.3867 206.917 14.7463Q207.19 14.106 207.673 13.6335Q208.156 13.1611 208.786 12.8882Q209.416 12.6152 210.151 12.6152ZM27.3579 43.6265Q26.4341 44.0884 25.2583 44.4558Q24.0825 44.8232 22.7388 45.0752Q21.395 45.3271 19.9463 45.4636Q18.4976 45.6001 17.0488 45.6001Q13.3745 45.6001 10.624 44.8442Q7.87354 44.0884 6.04688 42.3247Q4.22021 40.561 3.31738 37.6531Q2.41455 34.7451 2.41455 30.4199Q2.41455 25.9058 3.35938 22.8403Q4.3042 19.7749 6.06787 17.8958Q7.83154 16.0166 10.3406 15.1978Q12.8496 14.3789 15.957 14.3789Q17.2798 14.3789 18.634 14.5154Q19.9883 14.6519 21.311 14.9248Q22.6338 15.1978 23.8621 15.6072Q25.0903 16.0166 26.1611 16.5415L24.5444 20.6357Q22.4238 19.6279 20.3557 19.187Q18.2876 18.7461 16.4399 18.7461Q14.3403 18.7461 12.8181 19.4075Q11.2959 20.0688 10.3091 21.4231Q9.32226 22.7773 8.84985 24.8665Q8.37744 26.9556 8.37744 29.79Q8.37744 32.7925 8.86035 34.9446Q9.34326 37.0967 10.3826 38.5034Q11.4219 39.9102 13.0281 40.5715Q14.6343 41.2329 16.9019 41.2329Q18.0356 41.2329 19.2219 41.0649Q20.4082 40.897 21.626 40.603L21.626 33.3174L16.8179 33.3174L16.8179 29.0552L27.3579 29.0552L27.3579 43.6265ZM120.152 39.8682Q121.895 40.54 123.879 40.9915Q125.863 41.4429 128.193 41.4429Q129.705 41.4429 130.965 41.1699Q132.225 40.897 133.138 40.3091Q134.051 39.7212 134.566 38.8079Q135.08 37.8945 135.08 36.6138Q135.08 35.228 134.524 34.4092Q133.967 33.5903 132.959 33.0654Q131.952 32.5405 130.524 32.1836Q129.096 31.8267 127.354 31.3857Q125.401 30.8818 123.795 30.231Q122.188 29.5801 121.055 28.5513Q119.921 27.5225 119.291 26.0107Q118.661 24.499 118.661 22.2734Q118.661 20.7827 119.155 19.6069Q119.648 18.4312 120.488 17.5598Q121.328 16.6885 122.43 16.0796Q123.532 15.4707 124.74 15.0928Q125.947 14.7148 127.207 14.5469Q128.466 14.3789 129.6 14.3789Q130.398 14.3789 131.521 14.4629Q132.645 14.5469 133.915 14.7673Q135.185 14.9878 136.539 15.3447Q137.894 15.7017 139.153 16.2476L137.663 19.9009Q135.983 19.292 134.167 18.9141Q132.351 18.5361 130.356 18.5361Q129.096 18.5361 128.046 18.7356Q126.997 18.9351 126.23 19.376Q125.464 19.8169 125.044 20.5308Q124.624 21.2446 124.624 22.2524Q124.624 23.5542 125.138 24.2891Q125.653 25.0239 126.619 25.4858Q127.584 25.9478 128.981 26.2732Q130.377 26.5986 132.141 27.0605Q134.072 27.5645 135.699 28.2468Q137.327 28.9292 138.513 30.0105Q139.699 31.0918 140.371 32.6875Q141.043 34.2832 141.043 36.6138Q141.043 38.6714 140.392 40.1411Q139.741 41.6108 138.691 42.6082Q137.642 43.6055 136.298 44.1934Q134.954 44.7813 133.568 45.0962Q132.183 45.4111 130.881 45.5056Q129.579 45.6001 128.592 45.6001Q127.626 45.5791 126.419 45.4741Q125.212 45.3691 123.889 45.1382Q122.566 44.9072 121.212 44.5188Q119.858 44.1304 118.598 43.5635L120.152 39.8682ZM104.812 39.4482Q104.78 38.2725 104.78 36.5298L104.78 14.8618L99.0273 14.8618L99.0273 41.2749Q99.0273 42.5347 99.2478 43.595Q99.4683 44.6553 99.7832 45.6001Q101.232 45.3901 102.618 45.0857Q104.003 44.7813 105.389 44.3613Q105.284 43.9624 105.211 43.637Q105.137 43.3115 105.095 42.9861Q105.053 42.6606 105.011 42.3142Q104.969 41.9678 104.927 41.5059Q104.843 40.624 104.812 39.4482ZM202.947 38.8813L202.947 14.8618L197.194 14.8618L197.194 23.0713Q196.333 22.9453 195.483 22.8613Q194.632 22.7773 193.729 22.7773Q191.252 22.7773 189.205 23.5542Q187.158 24.3311 185.688 25.8638Q184.218 27.3965 183.41 29.6746Q182.602 31.9526 182.602 34.9761Q182.602 37.1177 183.011 39.0388Q183.42 40.96 184.355 42.4192Q185.289 43.8784 186.801 44.7393Q188.313 45.6001 190.517 45.6001Q194.968 45.6001 197.404 41.6108L197.635 41.6108Q197.677 42.3457 197.74 42.8916Q197.803 43.4375 197.897 43.8994Q197.992 44.3613 198.107 44.7603Q198.223 45.1592 198.391 45.6001Q199.083 45.4951 199.713 45.3796Q200.343 45.2642 200.963 45.1277Q201.582 44.9912 202.212 44.8337Q202.842 44.6763 203.514 44.4873Q203.157 43.1436 203.052 41.8313Q202.947 40.519 202.947 38.8813ZM151.292 23.2603L151.292 18.2632L145.539 18.2632L145.539 23.2603L142.389 23.2603L142.389 27.4595L145.539 27.4595L145.539 37.7266Q145.539 40.1831 145.833 41.7683Q146.126 43.3535 147.05 44.2563Q147.449 44.6553 147.995 44.9072Q148.541 45.1592 149.181 45.3167Q149.822 45.4741 150.536 45.5371Q151.25 45.6001 151.984 45.6001Q152.761 45.6001 153.643 45.5371Q154.525 45.4741 155.386 45.3481Q156.247 45.2222 157.034 45.0437Q157.821 44.8652 158.409 44.6553Q158.283 44.2773 158.136 43.7839Q157.989 43.2905 157.832 42.7551Q157.674 42.2197 157.517 41.7158Q157.359 41.2119 157.233 40.834Q156.016 41.1069 155.123 41.2539Q154.231 41.4009 153.559 41.4009Q152.866 41.4009 152.425 41.2434Q151.984 41.0859 151.732 40.6975Q151.48 40.3091 151.386 39.6372Q151.292 38.9653 151.292 37.9365L151.292 27.4595L158.64 27.4595L158.64 23.2603L151.292 23.2603ZM62.4263 25.6223Q61.6914 26.5986 60.9985 27.9424L60.8306 27.9424Q60.2427 25.4229 58.7205 24.1001Q57.1982 22.7773 54.4897 22.7773Q53.293 22.7773 52.3481 23.0608Q51.4033 23.3442 50.6265 23.8796Q49.8496 24.415 49.1672 25.2024Q48.4849 25.9897 47.813 26.9976L47.54 26.9976Q47.4771 26.2417 47.4141 25.6538Q47.3511 25.0659 47.2671 24.5725Q47.1831 24.0791 47.0571 23.6487Q46.9312 23.2183 46.7842 22.7773Q45.3984 23.0293 44.0442 23.3127Q42.6899 23.5962 41.3252 23.9531Q41.5352 24.751 41.6611 25.5908Q41.7871 26.4307 41.8501 27.365Q41.9131 28.2993 41.9341 29.3596Q41.9551 30.4199 41.9551 31.6377L41.9551 45.0962L47.708 45.0962L47.708 31.3438Q48.1489 30.6089 48.6948 29.832Q49.2407 29.0552 49.8706 28.4253Q50.5005 27.7954 51.1934 27.386Q51.8862 26.9766 52.6421 26.9766Q53.4399 26.9766 54.0383 27.26Q54.6367 27.5435 54.9937 28.1943Q55.2456 28.6353 55.3821 29.2546Q55.5186 29.874 55.5186 30.6929L55.5186 45.0962L61.2715 45.0962L61.2715 31.8057Q61.2715 31.5747 61.2505 31.3438Q61.6914 30.6089 62.2373 29.832Q62.7832 29.0552 63.4236 28.4253Q64.064 27.7954 64.7778 27.386Q65.4917 26.9766 66.2686 26.9766Q67.0664 26.9766 67.6648 27.26Q68.2632 27.5435 68.6201 28.1943Q68.8721 28.6353 69.0085 29.2546Q69.145 29.874 69.145 30.6929L69.145 45.0962L74.8979 45.0962L74.8979 32.3306Q74.8979 29.5591 74.373 27.5854Q73.7432 25.2339 72.2419 24.0056Q70.7407 22.7773 68.1162 22.7773Q66.8564 22.7773 65.8591 23.0818Q64.8618 23.3862 64.0115 24.0161Q63.1611 24.646 62.4263 25.6223ZM96.0854 44.1094Q95.2246 44.4663 94.2063 44.7393Q93.188 45.0122 92.0752 45.2012Q90.9624 45.3901 89.8181 45.4951Q88.6738 45.6001 87.582 45.6001Q82.0601 45.6001 79.2361 42.9441Q76.4121 40.2881 76.4121 34.8081Q76.4121 32.3726 76.979 30.189Q77.5459 28.0054 78.8162 26.3572Q80.0864 24.709 82.1545 23.7432Q84.2227 22.7773 87.2251 22.7773Q92.4741 22.7773 95.0566 25.5593Q97.6392 28.3413 97.6392 34.0522L97.6392 35.7109L82.123 35.7109Q82.165 37.1387 82.459 38.2305Q82.7529 39.3223 83.4353 40.0676Q84.1177 40.813 85.2305 41.2014Q86.3433 41.5898 88.0229 41.5898Q89.4927 41.5898 91.1934 41.2224Q92.894 40.855 94.7417 40.1621L96.0854 44.1094ZM231.38 23.6382Q229.365 22.7773 226.614 22.7773Q223.864 22.7773 221.848 23.6382Q219.833 24.499 218.52 26.0212Q217.208 27.5435 216.568 29.6326Q215.927 31.7217 215.927 34.1782Q215.927 36.6348 216.568 38.7344Q217.208 40.834 218.52 42.3562Q219.833 43.8784 221.848 44.7393Q223.864 45.6001 226.614 45.6001Q229.365 45.6001 231.38 44.7393Q233.396 43.8784 234.708 42.3562Q236.021 40.834 236.661 38.7344Q237.301 36.6348 237.301 34.1782Q237.301 31.7217 236.661 29.6326Q236.021 27.5435 234.708 26.0212Q233.396 24.499 231.38 23.6382ZM36.8926 23.2603L36.8926 45.0962L31.1396 45.0962L31.1396 23.2603L36.8926 23.2603ZM180.416 23.2603L180.416 36.7397Q180.416 38.4404 180.447 39.5847Q180.479 40.729 180.563 41.6108Q180.604 42.0518 180.646 42.3877Q180.688 42.7236 180.741 43.0386Q180.793 43.3535 180.867 43.6895Q180.94 44.0254 181.045 44.4243Q179.681 44.7813 178.326 45.0647Q176.972 45.3481 175.586 45.6001Q175.418 45.1592 175.303 44.7288Q175.188 44.2983 175.104 43.8049Q175.02 43.3115 174.957 42.7236Q174.894 42.1357 174.831 41.3799L174.558 41.3799Q173.865 42.4297 173.119 43.217Q172.374 44.0044 171.524 44.5398Q170.673 45.0752 169.655 45.3376Q168.637 45.6001 167.398 45.6001Q164.773 45.6001 163.272 44.5398Q161.771 43.4795 161.099 41.5269Q160.7 40.3931 160.532 39.0283Q160.364 37.6636 160.364 36.0469L160.364 23.2603L166.117 23.2603L166.117 37.7056Q166.117 39.5112 166.947 40.4561Q167.776 41.4009 169.204 41.4009Q170.001 41.4009 170.768 41.0229Q171.534 40.645 172.248 40.0361Q172.962 39.4272 173.571 38.6399Q174.18 37.8525 174.663 37.0547L174.663 23.2603L180.416 23.2603ZM213.006 23.2603L213.006 45.0962L207.253 45.0962L207.253 23.2603L213.006 23.2603ZM91.8862 31.9736Q91.7393 26.7876 87.2251 26.7876Q84.8945 26.7876 83.6873 28.1313Q82.48 29.4751 82.207 31.9736L91.8862 31.9736ZM224.137 27.4595Q225.103 26.8926 226.614 26.8926Q228.126 26.8926 229.092 27.4595Q230.058 28.0264 230.604 29.0132Q231.149 30 231.349 31.3333Q231.548 32.6665 231.548 34.1782Q231.548 35.7109 231.349 37.0442Q231.149 38.3774 230.604 39.3643Q230.058 40.3511 229.092 40.918Q228.126 41.4849 226.614 41.4849Q225.103 41.4849 224.137 40.918Q223.171 40.3511 222.625 39.3643Q222.079 38.3774 221.88 37.0442Q221.68 35.7109 221.68 34.1782Q221.68 32.6665 221.88 31.3333Q222.079 30 222.625 29.0132Q223.171 28.0264 224.137 27.4595ZM194.128 26.9766Q195.577 26.9766 197.257 27.3965L197.257 37.3696Q196.858 38.1045 196.459 38.7449Q196.06 39.3853 195.598 39.8892Q194.989 40.603 194.244 41.002Q193.499 41.4009 192.512 41.4009Q191.147 41.4009 190.328 40.8025Q189.509 40.2041 189.068 39.1228Q188.627 38.0415 188.491 36.5508Q188.354 35.0601 188.354 33.2754Q188.354 31.5537 188.785 30.3569Q189.215 29.1602 189.992 28.4043Q190.769 27.6484 191.829 27.3125Q192.89 26.9766 194.128 26.9766Z" />
    </g>
    <g id="Group" transform="translate(0 3.243164)">
      <path d="M8.8518 4.74025L13.0489 0.917869L15.2623 0.000488281L51.8919 0.000488281L51.8919 53.5138L0 53.5138L0 12.471L8.8518 4.74025Z" id="Rectangle-Copy-18" fill="#FFFFFF" fill-rule="evenodd" stroke="#FFFFFF" stroke-width="2" stroke-linecap="round" stroke-linejoin="round" />
      <path d="M14.5752 5.31238e-05L14.1176 -1.83752e-07L0.07619 12.3849L14.1176 12.9964L14.5752 5.31238e-05Z" id="Rectangle-Copy-19" fill="#FFFFFF" fill-rule="evenodd" stroke="#031932" stroke-width="2" stroke-linecap="round" stroke-linejoin="round" />
      <g id="Gimel_Hebrew-Copy-9" transform="translate(16.90332 10.017578)">
        <path d="M0 0L21.495 0L21.495 38L0 38L0 0Z" id="Background" fill="none" fill-rule="evenodd" stroke="none" />
        <g clip-path="url(#mask_1)">
          <path d="M19.0879 36.7335L18.3466 36.7335L13.8985 26.0348L13.466 26.0348L9.32683 36.1151L1.26465 36.548L2.62379 30.1782C6.68061 29.8896 9.48126 28.8589 11.0258 27.0861C12.5702 25.3133 13.3425 22.149 13.3425 17.5933C13.3425 15.3257 13.0953 13.6869 12.6011 12.6768C12.1275 11.6461 11.0463 10.9968 9.35771 10.7287L6.85566 10.3577C5.88778 10.1928 5.06406 9.72899 4.3845 8.96624C3.72551 8.18293 3.38573 7.2656 3.36514 6.21425C3.36514 4.44146 4.01382 2.79233 5.31118 1.26685L6.1452 1.26685C6.39231 2.6068 7.32929 3.34891 8.95615 3.49318L11.2111 3.70962C13.9911 3.97764 15.3812 5.45155 15.3812 8.13136C15.3812 9.18271 15.2988 10.7597 15.1341 12.8623C14.9693 14.965 14.8869 16.542 14.8869 17.5933C14.8869 19.4692 15.7621 21.9119 17.5126 24.9216C19.3247 28.0756 20.2308 30.673 20.2308 32.7138C20.2308 34.2392 19.8499 35.5791 19.0879 36.7335" id="text1311" fill="#031932" fill-rule="evenodd" stroke="#031932" stroke-width="2" stroke-linecap="round" stroke-linejoin="round" />
        </g>
      </g>
    </g>
  </g>
</svg>