<?xml version="1.0" encoding="utf-8"?>
<svg width="246px" height="54px" viewBox="0 0 246 54" version="1.1" xmlns:xlink="http://www.w3.org/1999/xlink" xmlns="http://www.w3.org/2000/svg">
  <defs>
    <path d="M0 3.41772L55.3671 3.41772L55.3671 51.9494L0 51.9494L0 3.41772Z" id="path_1" />
    <clipPath id="mask_1">
      <use xlink:href="#path_1" />
    </clipPath>
  </defs>
  <g id="Group">
    <g fill="#FFFFFF" stroke="none" id="Pretzel" transform="translate(66.11377 4.5947266)">
      <path d="M163.669 40.0752L170.77 40.0752L170.77 4.07516L163.669 4.07516L163.669 40.0752ZM10.3125 40.0752L10.3125 28.1923L16.3594 28.1923Q20.4141 28.1923 23.3203 26.8564Q26.2266 25.5205 27.7734 23.083Q29.3203 20.6455 29.3203 17.3173Q29.3203 14.0361 27.7734 11.4697Q26.2266 8.90328 23.3203 7.42672Q20.4141 5.95016 16.3594 5.95016L2.92969 5.95016L2.92969 40.0752L10.3125 40.0752ZM95.2875 8.45797L95.2875 14.7158L99.5766 14.7158L99.5766 19.872L95.2875 19.872L95.2875 32.1533Q95.2875 33.1845 95.557 33.747Q95.8266 34.3095 96.4125 34.5205Q96.9984 34.7314 97.8656 34.7314Q98.4984 34.7314 98.9906 34.6845Q99.4828 34.6377 99.8344 34.5673L99.8109 39.9111Q98.9438 40.2158 97.9242 40.3798Q96.9047 40.5439 95.6391 40.5439Q93.3656 40.5439 91.6898 39.7822Q90.0141 39.0205 89.1117 37.3447Q88.2094 35.6689 88.2094 32.9502L88.2094 19.872L84.6 19.872L84.6 14.7158L88.2094 14.7158L88.2094 8.45797L95.2875 8.45797ZM16.3594 22.2627L10.3125 22.2627L10.3125 11.9033L16.3594 11.9033Q18.3047 11.9033 19.5117 12.665Q20.7188 13.4267 21.2813 14.6806Q21.8438 15.9345 21.8438 17.3642Q21.8438 18.7939 21.2813 19.8955Q20.7188 20.997 19.5117 21.6298Q18.3047 22.2627 16.3594 22.2627ZM51.2938 21.372Q50.7781 21.3017 50.075 21.2431Q49.3719 21.1845 48.8094 21.1845Q46.9578 21.1845 45.7625 21.7588Q44.5672 22.333 43.9813 23.458Q43.9325 23.5516 43.8875 23.6489L43.8875 40.0752L36.8094 40.0752L36.8094 14.7158L43.4656 14.7158L43.6843 17.7401Q44.3599 16.5457 45.2938 15.7119Q46.9344 14.247 49.2781 14.247Q49.8172 14.247 50.4148 14.3173Q51.0125 14.3877 51.3875 14.5517L51.2938 21.372ZM62.6617 38.8798Q65.5094 40.5439 69.5172 40.5439Q73.2438 40.5439 75.7398 39.1142Q78.2359 37.6845 79.4313 35.9736L76.0094 32.0595Q74.9078 33.4892 73.3375 34.1572Q71.7672 34.8252 69.9625 34.8252Q68.0406 34.8252 66.6813 33.9931Q65.3219 33.1611 64.5953 31.6845Q64.1536 30.7868 63.9804 29.7158L79.9938 29.7158L79.9938 26.7158Q79.9938 22.9423 78.7047 20.1416Q77.4156 17.3408 74.9078 15.7939Q72.4 14.247 68.7203 14.247Q65.0172 14.247 62.3453 15.9345Q59.6734 17.622 58.232 20.5869Q56.7906 23.5517 56.7906 27.3486L56.7906 28.2627Q56.7906 31.6377 58.3023 34.4267Q59.8141 37.2158 62.6617 38.8798ZM145.938 40.5439Q141.93 40.5439 139.082 38.8798Q136.234 37.2158 134.723 34.4267Q133.211 31.6377 133.211 28.2627L133.211 27.3486Q133.211 23.5517 134.652 20.5869Q136.094 17.622 138.766 15.9345Q141.438 14.247 145.141 14.247Q148.82 14.247 151.328 15.7939Q153.836 17.3408 155.125 20.1416Q156.414 22.9423 156.414 26.7158L156.414 29.7158L140.401 29.7158Q140.574 30.7868 141.016 31.6845Q141.742 33.1611 143.102 33.9931Q144.461 34.8252 146.383 34.8252Q148.188 34.8252 149.758 34.1572Q151.328 33.4892 152.43 32.0595L155.852 35.9736Q154.656 37.6845 152.16 39.1142Q149.664 40.5439 145.938 40.5439ZM105.566 40.0752L126.73 40.0752L126.73 34.3798L114.612 34.3798L126.378 18.8408L126.378 14.7158L105.941 14.7158L105.941 20.4111L117.273 20.4111L105.566 35.833L105.566 40.0752ZM64.0448 24.958Q64.1596 24.2319 64.3492 23.5752Q64.8297 21.9111 65.8844 20.9267Q66.9391 19.9423 68.6734 19.9423Q70.1969 19.9423 71.1461 20.5048Q72.0953 21.0673 72.5641 22.0752Q73.0328 23.083 73.0328 24.3955L73.0328 24.958L64.0448 24.958ZM140.77 23.5752Q140.58 24.2318 140.465 24.958L149.453 24.958L149.453 24.3955Q149.453 23.083 148.984 22.0752Q148.516 21.0673 147.566 20.5048Q146.617 19.9423 145.094 19.9423Q143.359 19.9423 142.305 20.9267Q141.25 21.9111 140.77 23.5752Z" />
    </g>
    <g id="Group">
      <path d="M1.36719 27C1.36719 12.0883 13.4555 0 28.3672 0C43.2789 0 55.3672 12.0883 55.3672 27C55.3672 41.9117 43.2789 54 28.3672 54C13.4555 54 1.36719 41.9117 1.36719 27Z" id="Ellipse" fill="#FFFFFF" fill-rule="evenodd" stroke="none" />
      <path d="M0 3.41772L55.3671 3.41772L55.3671 51.9494L0 51.9494L0 3.41772Z" id="Background" fill="none" fill-rule="evenodd" stroke="none" />
      <g clip-path="url(#mask_1)">
        <g id="layer1" transform="matrix(-0.6293203 0.77714604 -0.77714604 -0.6293203 51.95215 22.547363)">
          <g id="g1561" transform="matrix(1 -3.7510414E-08 3.7510414E-08 1 -0.00024414062 0)">
            <g id="layer3" transform="matrix(1 -3.7510414E-08 3.7510414E-08 1 -0.00012207031 -0.00048828125)">
              <path d="M18.3435 32.3959C15.8691 32.0692 13.8308 31.4468 11.4906 30.3032C10.5887 29.8625 9.00356 28.971 9.02637 28.9173C9.03748 28.8912 10.1575 27.9455 11.5153 26.816L13.984 24.7622L14.8968 25.2105C15.8879 25.6974 17.4772 25.8738 18.5045 26.4517C19.5318 27.0296 21.9992 32.8785 18.3435 32.3959L18.3435 32.3959Z" id="path944" fill="#031932" fill-opacity="0.998" fill-rule="evenodd" stroke="none" />
              <path d="M33.3939 28.4011C32.1609 28.1687 29.2366 26.8919 27.2362 25.7125C23.621 23.5809 21.8336 22.4517 20.1529 21.2375C19.6659 20.8857 18.8509 20.3257 18.3418 19.9932C17.2937 19.3086 16.599 18.7752 15.6341 17.9142C14.0404 16.4922 12.9488 14.648 12.9488 13.3778C12.9488 12.9606 13.2379 12.0695 13.5682 11.4685C13.9254 10.8184 14.7149 10.0513 15.3782 9.70965L15.9549 9.4126L16.1089 9.6016C17.1023 10.821 19.2617 12.9582 20.6054 14.052C21.394 14.6938 23.6879 16.3487 24.7812 17.0645C26.1312 17.9483 27.7911 18.8978 29.8522 19.9654C31.9757 21.0652 34.2081 22.6216 35.5889 23.9649C36.5098 24.8608 36.8078 25.3779 36.8105 26.0846C36.8137 26.911 36.1353 27.8535 35.266 28.2305C34.8989 28.3896 33.8436 28.4858 33.3939 28.4011L33.3939 28.4011Z" id="path946" fill="#031932" fill-opacity="0.998" fill-rule="evenodd" stroke="none" />
              <path d="M23.5462 15.2837C23.6689 14.9933 23.8822 13.4689 23.9606 11.6493C24.0389 9.82985 23.3984 9.12344 23.3984 9.12344C23.3984 9.12344 29.41 2.20232 32.0468 2.11973C34.6837 2.03713 34.8252 7.54548 34.1594 8.61988C33.2796 10.0395 29.0951 12.725 27.69 13.986C27.0054 14.6003 24.816 16.394 24.5042 16.5543C24.382 16.6171 23.4546 15.9439 23.3735 15.8058C23.2923 15.6677 23.4236 15.5742 23.5462 15.2837Z" id="path948" fill="#031932" fill-opacity="0.998" fill-rule="evenodd" stroke="none" />
              <path d="M4.02511 24.5953C0.649716 20.595 -0.772632 15.0066 0.41144 10.3971C1.11797 7.64671 2.75717 5.31834 5.10095 3.73602C6.52533 2.77439 8.3595 2.07452 10.0469 1.84876C11.0944 1.70861 13.3305 1.78872 14.3501 2.00293C16.6115 2.47805 18.7216 3.48263 20.3845 4.87569C21.651 5.93671 23.2726 8.73366 23.5965 10.4058C23.7622 11.2609 23.753 11.6652 23.6975 12.0798C23.6444 12.4759 23.5495 12.8848 23.502 13.5615C23.4048 14.9463 23.1955 15.421 22.9656 15.421C22.8601 15.421 21.7192 14.5848 20.7752 13.8156C19.6402 12.8907 17.8205 11.1171 16.6965 9.84011C15.6808 8.68616 15.4648 8.49943 14.8015 8.20177C12.87 7.33495 10.0396 7.89445 8.41624 9.46399C7.61797 10.2358 7.03635 11.3441 6.71857 12.6989C6.51728 13.5571 6.5161 15.281 6.71615 16.21C7.03281 17.6804 7.71391 19.2858 8.41985 20.2258C8.62921 20.5046 8.76192 20.7499 8.71802 20.7769C8.67449 20.8037 8.31079 21.1062 7.90978 21.449C6.80579 22.3929 5.67915 23.6591 4.93475 24.7926L4.60946 25.2879L4.02511 24.5953Z" id="path950" fill="#031932" fill-opacity="0.998" fill-rule="evenodd" stroke="none" />
              <path d="M6.04312 29.244C5.61765 29.0499 4.77144 28.2715 4.58001 27.8982C4.13823 27.0367 4.38368 26.0186 5.37415 24.6041C6.5075 22.9856 7.95662 21.6114 10.0764 20.1449C10.7811 19.6574 12.047 18.7688 12.8896 18.1703L14.4215 17.082L15.1944 17.8323C16.0926 18.7042 17.0912 19.5035 18.1465 20.1953L18.8943 20.6855L17.705 21.5652C15.7698 22.9967 13.8738 24.5029 11.1378 26.7825C9.55465 28.1015 8.39138 29.0112 8.11929 29.1432C7.52174 29.4329 6.55941 29.4797 6.04312 29.244L6.04312 29.244Z" id="path952" fill="#031932" fill-opacity="0.998" fill-rule="evenodd" stroke="none" />
            </g>
          </g>
        </g>
      </g>
    </g>
  </g>
</svg>