<?xml version="1.0" encoding="utf-8"?>
<svg width="38px" height="38px" viewBox="0 0 38 38" version="1.1" xmlns:xlink="http://www.w3.org/1999/xlink" xmlns="http://www.w3.org/2000/svg">
  <defs>
    <filter id="filter_1">
      <feColorMatrix in="SourceGraphic" type="matrix" values="0 0 0 0 0.69411767 0 0 0 0 0.8392157 0 0 0 0 0.89411765 0 0 0 1 0" />
    </filter>
    <path d="M19 38C29.4934 38 38 29.4934 38 19C38 8.50659 29.4934 0 19 0C8.50659 0 0 8.50659 0 19C0 29.4934 8.50659 38 19 38Z" id="path_1" />
    <clipPath id="clip_1">
      <use xlink:href="#path_1" />
    </clipPath>
  </defs>
  <g id="dribble" opacity="0.9" filter="url(#filter_1)">
    <path d="M0 0L38 0L38 38L0 38L0 0Z" id="Rectangle" fill="none" fill-rule="evenodd" stroke="none" />
    <g id="Oval">
      <g clip-path="url(#clip_1)">
        <use xlink:href="#path_1" fill="none" stroke="#000000" stroke-width="4" />
      </g>
    </g>
    <path d="M18.8067 7.58816C18.6827 6.97713 18.495 6.37615 18.2526 5.80199C18.0158 5.23899 17.7197 4.6961 17.3767 4.18896C17.0371 3.68628 16.6472 3.21265 16.2182 2.7837C15.7881 2.35364 15.3155 1.96378 14.8117 1.6242C14.3045 1.28015 13.7615 0.98636 13.1984 0.74731C12.6242 0.506026 12.0232 0.317244 11.4132 0.194368C10.7876 0.0659063 10.1441 0 9.50056 0C8.85594 0 8.21244 0.0659063 7.58682 0.194368C6.97683 0.317244 6.37579 0.506026 5.80155 0.74731C5.23849 0.98636 4.69554 1.28015 4.18722 1.6242C3.68448 1.96378 3.21191 2.35364 2.7818 2.7837C2.35168 3.21265 1.9629 3.68628 1.62327 4.18896C1.27918 4.6961 0.984242 5.23899 0.746281 5.80199C0.503851 6.37615 0.317281 6.97713 0.192156 7.58816C0.0647969 8.21148 0 8.85602 0 9.49944C0 10.144 0.0647969 10.7885 0.192156 11.4141C0.317281 12.0229 0.503851 12.625 0.746281 13.198C0.984242 13.761 1.27918 14.305 1.62327 14.8133C1.9629 15.316 2.35168 15.7873 2.7818 16.2174C3.21191 16.6475 3.68448 17.0362 4.18722 17.3758C4.69554 17.7199 5.23849 18.0148 5.80155 18.2527C6.37579 18.4951 6.97683 18.6805 7.58682 18.8056C8.21244 18.9352 8.85594 19 9.50056 19C10.1441 19 10.7876 18.9352 11.4132 18.8056C12.0232 18.6805 12.6242 18.4951 13.1984 18.2527C13.7615 18.0148 14.3045 17.7199 14.8117 17.3758C15.3155 17.0362 15.7881 16.6475 16.2182 16.2174C16.6472 15.7873 17.0371 15.316 17.3767 14.8133C17.7197 14.305 18.0158 13.761 18.2526 13.198C18.495 12.625 18.6827 12.0229 18.8067 11.4141C18.9352 10.7885 19 10.144 19 9.49944C19 8.85602 18.9352 8.21148 18.8067 7.58816L18.8067 7.58816ZM17.6113 9.41905C17.494 9.39335 14.748 8.80243 11.9606 9.15319C11.9025 9.01467 11.8444 8.87504 11.7852 8.73541C11.6154 8.33774 11.4344 7.94453 11.2456 7.55803C14.4497 6.24996 15.7501 4.36884 15.7657 4.3465C16.903 5.72941 17.5923 7.49436 17.6113 9.41905L17.6113 9.41905ZM14.8586 3.4115C14.8385 3.44277 13.6833 5.20214 10.62 6.34935C9.23357 3.80135 7.70972 1.77724 7.58795 1.61639C8.20129 1.46782 8.84144 1.38739 9.50058 1.38739C11.554 1.38739 13.4286 2.15369 14.8586 3.4115L14.8586 3.4115ZM7.55667 1.62305C7.55667 1.62416 7.55555 1.62416 7.55555 1.62416C7.55555 1.62416 7.5455 1.6264 7.53098 1.62975C7.5388 1.62752 7.54773 1.6264 7.55667 1.62305L7.55667 1.62305ZM6.0384 2.1626C6.14565 2.30781 7.64715 4.34086 9.05146 6.83748C5.15583 7.87299 1.7741 7.83166 1.5596 7.82831C2.08691 5.31493 3.77498 3.23162 6.0384 2.1626L6.0384 2.1626ZM1.38644 9.49942C1.38644 9.41341 1.39091 9.32851 1.39315 9.24362C1.53615 9.24697 5.54573 9.33745 9.72289 8.08746C9.95527 8.5421 10.1776 9.00457 10.3809 9.46591C10.2737 9.49607 10.1675 9.52847 10.0614 9.56309C5.68315 10.9784 3.46218 14.9171 3.46218 14.9171C3.46218 14.9171 3.46553 14.9205 3.46553 14.9216C2.17294 13.484 1.38644 11.5838 1.38644 9.49942L1.38644 9.49942ZM9.50056 17.6126C7.53654 17.6126 5.73563 16.9145 4.33133 15.7538C4.43858 15.8399 4.51343 15.8957 4.51343 15.8957C4.51343 15.8957 6.06856 12.5043 10.8803 10.8276C10.8982 10.8209 10.916 10.8153 10.935 10.8098C12.0768 13.7767 12.5471 16.261 12.6678 16.9703C11.6947 17.3836 10.6233 17.6126 9.50056 17.6126L9.50056 17.6126ZM14.0341 16.2286C13.9514 15.7393 13.5191 13.3577 12.4544 10.4344C15.0742 10.0155 17.3432 10.7338 17.5108 10.7885C17.1499 13.0483 15.8551 14.9987 14.0341 16.2286L14.0341 16.2286Z" transform="translate(9.5 9.5)" id="Shape" fill="#000000" fill-rule="evenodd" stroke="none" />
  </g>
</svg>