<?xml version="1.0" encoding="utf-8"?>
<svg width="38px" height="38px" viewBox="0 0 38 38" version="1.1" xmlns:xlink="http://www.w3.org/1999/xlink" xmlns="http://www.w3.org/2000/svg">
  <defs>
    <filter id="filter_1">
      <feColorMatrix in="SourceGraphic" type="matrix" values="0 0 0 0 0.69411767 0 0 0 0 0.8392157 0 0 0 0 0.89411765 0 0 0 1 0" />
    </filter>
    <path d="M19 38C29.4934 38 38 29.4934 38 19C38 8.50659 29.4934 0 19 0C8.50659 0 0 8.50659 0 19C0 29.4934 8.50659 38 19 38Z" id="path_1" />
    <clipPath id="clip_1">
      <use xlink:href="#path_1" />
    </clipPath>
  </defs>
  <g id="github" opacity="0.9" filter="url(#filter_1)">
    <path d="M0 0L38 0L38 38L0 38L0 0Z" id="Rectangle" fill="none" fill-rule="evenodd" stroke="none" />
    <g id="Oval">
      <g clip-path="url(#clip_1)">
        <use xlink:href="#path_1" fill="none" stroke="#000000" stroke-width="4" />
      </g>
    </g>
    <path d="M0 10.6266C0 15.3208 2.96922 19.3039 7.08744 20.7091C7.60596 20.8069 7.79491 20.4788 7.79491 20.197C7.79491 19.9445 7.78601 19.2765 7.78092 18.39C4.89822 19.0319 4.29 16.9653 4.29 16.9653C3.81857 15.7376 3.13909 15.4108 3.13909 15.4108C2.19813 14.7513 3.21034 14.765 3.21034 14.765C4.25056 14.84 4.7977 15.8602 4.7977 15.8602C5.72276 17.4839 7.22359 17.0149 7.814 16.7429C7.90816 16.056 8.17601 15.5882 8.47185 15.3221C6.17066 15.054 3.75113 14.1426 3.75113 10.0708C3.75113 8.91026 4.15512 7.96176 4.81806 7.21875C4.71181 6.94999 4.35617 5.86972 4.91986 4.40718C4.91986 4.40718 5.7902 4.12081 7.76947 5.49593C8.59655 5.26044 9.48279 5.14237 10.364 5.13845C11.2445 5.14237 12.1307 5.26044 12.9591 5.49593C14.9371 4.12081 15.8061 4.40718 15.8061 4.40718C16.3711 5.86972 16.0155 6.94999 15.9092 7.21875C16.5734 7.96176 16.9742 8.91026 16.9742 10.0708C16.9742 14.1524 14.5515 15.0507 12.2427 15.3142C12.6149 15.6424 12.9457 16.2908 12.9457 17.2817C12.9457 18.7025 12.9336 19.8486 12.9336 20.197C12.9336 20.4814 13.12 20.8115 13.6462 20.7078C17.7606 19.3 20.7273 15.3201 20.7273 10.6266C20.7273 4.75749 16.0867 0 10.3627 0C4.64056 0 0 4.75749 0 10.6266Z" transform="translate(8.636368 8.636353)" id="Shape" fill="#000000" fill-rule="evenodd" stroke="none" />
  </g>
</svg>