<?xml version="1.0" encoding="utf-8"?>
<svg width="38px" height="38px" viewBox="0 0 38 38" version="1.1" xmlns:xlink="http://www.w3.org/1999/xlink" xmlns="http://www.w3.org/2000/svg">
  <defs>
    <filter id="filter_1">
      <feColorMatrix in="SourceGraphic" type="matrix" values="0 0 0 0 0.69411767 0 0 0 0 0.8392157 0 0 0 0 0.89411765 0 0 0 1 0" />
    </filter>
    <path d="M19 38C29.4934 38 38 29.4934 38 19C38 8.50659 29.4934 0 19 0C8.50659 0 0 8.50659 0 19C0 29.4934 8.50659 38 19 38Z" id="path_1" />
    <clipPath id="clip_1">
      <use xlink:href="#path_1" />
    </clipPath>
  </defs>
  <g id="linkedin" opacity="0.9" filter="url(#filter_1)">
    <path d="M0 0L38 0L38 38L0 38L0 0Z" id="Rectangle" fill="none" fill-rule="evenodd" stroke="none" />
    <g id="Oval">
      <g clip-path="url(#clip_1)">
        <use xlink:href="#path_1" fill="none" stroke="#000000" stroke-width="4" />
      </g>
    </g>
    <path d="M0.435684 5.53857L3.80228 5.53857L3.80228 17.2716L0.435684 17.2716L0.435684 5.53857ZM2.03316 4.071L2.00879 4.071C0.790109 4.071 0 3.17408 0 2.03827C0 0.87923 0.813467 0 2.05652 0C3.29855 0 4.06226 0.877018 4.08663 2.03495C4.08663 3.17076 3.29855 4.071 2.03316 4.071L2.03316 4.071ZM17.2727 17.2727L13.4552 17.2727L13.4552 11.1999C13.4552 9.61069 12.8581 8.52687 11.5449 8.52687C10.5405 8.52687 9.98198 9.2579 9.722 9.9646C9.6245 10.2168 9.63974 10.5696 9.63974 10.9235L9.63974 17.2727L5.85777 17.2727C5.85777 17.2727 5.90652 6.51625 5.85777 5.53859L9.63974 5.53859L9.63974 7.37999C9.86316 6.57486 11.0717 5.42578 13.0002 5.42578C15.3929 5.42578 17.2727 7.11457 17.2727 10.7476L17.2727 17.2727L17.2727 17.2727Z" transform="translate(10.363632 10.363647)" id="Shape" fill="#000000" fill-rule="evenodd" stroke="none" />
  </g>
</svg>