<?xml version="1.0" encoding="utf-8"?>
<svg width="38px" height="38px" viewBox="0 0 38 38" version="1.1" xmlns:xlink="http://www.w3.org/1999/xlink" xmlns="http://www.w3.org/2000/svg">
  <defs>
    <filter id="filter_1">
      <feColorMatrix in="SourceGraphic" type="matrix" values="0 0 0 0 0.69411767 0 0 0 0 0.8392157 0 0 0 0 0.89411765 0 0 0 1 0" />
    </filter>
    <path d="M19 38C29.4934 38 38 29.4934 38 19C38 8.50659 29.4934 0 19 0C8.50659 0 0 8.50659 0 19C0 29.4934 8.50659 38 19 38Z" id="path_1" />
    <clipPath id="clip_1">
      <use xlink:href="#path_1" />
    </clipPath>
  </defs>
  <g id="mail" opacity="0.9" filter="url(#filter_1)">
    <path d="M0 0L38 0L38 38L0 38L0 0Z" id="Rectangle" fill="none" fill-rule="evenodd" stroke="none" />
    <g id="Oval">
      <g clip-path="url(#clip_1)">
        <use xlink:href="#path_1" fill="none" stroke="#000000" stroke-width="4" />
      </g>
    </g>
    <path d="M3.99716 5.6579C2.78845 4.88263 2.06397 4.41634 1.82361 4.25938C1.38544 3.98462 0.971863 3.60674 0.583144 3.12588C0.194425 2.64501 0 2.19835 0 1.78615C0 1.27589 0.146664 0.850552 0.439993 0.510259Q0.879986 0 1.69634 0L17.3035 0C17.7628 0 18.1605 0.153704 18.4962 0.461232C18.832 0.768761 19 1.13845 19 1.57029C19 2.08717 18.8269 2.58117 18.4804 3.05204C18.1339 3.52315 17.7029 3.9256 17.1869 4.25914C14.5293 5.96687 12.8751 7.03003 12.2249 7.44874C12.1543 7.49464 12.004 7.59425 11.7743 7.74808C11.5446 7.9019 11.3538 8.02634 11.2018 8.12114C11.0498 8.21594 10.866 8.32218 10.6505 8.43999C10.435 8.55755 10.2316 8.64609 10.0408 8.70475C9.84994 8.76378 9.67321 8.79305 9.51067 8.79305L9.48933 8.79305C9.32679 8.79305 9.15006 8.76378 8.95915 8.70475C8.76837 8.64609 8.5651 8.55767 8.34946 8.43999C8.13382 8.3223 7.95007 8.21594 7.79807 8.12114C7.6462 8.02634 7.45529 7.9019 7.2256 7.74808C6.9959 7.59437 6.84573 7.49464 6.77506 7.44874C6.13179 7.03015 5.20587 6.43316 3.99716 5.6579ZM12.6597 8.69526C13.8612 7.89048 15.6214 6.76179 17.9396 5.30943C18.3427 5.0543 18.696 4.76954 19 4.45563L19 12.2478C19 12.6798 18.8341 13.0492 18.5017 13.3568C18.1695 13.6645 17.7701 13.8182 17.3037 13.8182L1.69647 13.8182C1.22992 13.8182 0.830534 13.6645 0.498295 13.3568C0.166055 13.0493 0 12.6798 0 12.2478L0 4.45563C0.311027 4.77617 0.667993 5.06093 1.0709 5.30943C3.62965 6.91887 5.38611 8.04755 6.3404 8.69526C6.74331 8.97002 7.07021 9.18443 7.32112 9.33802C7.57202 9.49184 7.90608 9.6488 8.32304 9.80913C8.74 9.96946 9.12885 10.0496 9.48933 10.0496L9.5108 10.0496C9.87128 10.0496 10.26 9.96946 10.677 9.80913C11.094 9.6488 11.428 9.49184 11.6789 9.33802C11.9299 9.18443 12.2568 8.97002 12.6597 8.69526Z" transform="translate(9.5 12.090881)" id="Shape" fill="#000000" fill-rule="evenodd" stroke="none" />
  </g>
</svg>