<?xml version="1.0" encoding="utf-8"?>
<svg width="38px" height="38px" viewBox="0 0 38 38" version="1.1" xmlns:xlink="http://www.w3.org/1999/xlink" xmlns="http://www.w3.org/2000/svg">
  <defs>
    <filter id="filter_1">
      <feColorMatrix in="SourceGraphic" type="matrix" values="0 0 0 0 0.69411767 0 0 0 0 0.8392157 0 0 0 0 0.89411765 0 0 0 1 0" />
    </filter>
    <path d="M19 38C29.4934 38 38 29.4934 38 19C38 8.50659 29.4934 0 19 0C8.50659 0 0 8.50659 0 19C0 29.4934 8.50659 38 19 38Z" id="path_1" />
    <clipPath id="clip_1">
      <use xlink:href="#path_1" />
    </clipPath>
  </defs>
  <g id="stackoverflow" opacity="0.9" filter="url(#filter_1)">
    <path d="M1.10635e-09 0L38 0L38 38L1.10635e-09 38L0 22.6425L1.10635e-09 0Z" id="Rectangle" fill="none" fill-rule="evenodd" stroke="none" />
    <g id="Oval">
      <g clip-path="url(#clip_1)">
        <use xlink:href="#path_1" fill="none" stroke="#000000" stroke-width="4" />
      </g>
    </g>
    <path d="M15.7864 0L13.9557 0.325745L15.4425 9.05949L17.2727 8.73374L15.7864 0ZM13.5874 10.2374L8.68559 2.91955L10.2212 1.84204L15.1109 9.17237L13.5874 10.2374ZM5.79865 5.9895L13.2802 10.5006L12.3342 12.1294L4.85277 7.61838L5.79865 5.9895ZM12.1868 12.6557L3.79619 10.3626L3.31699 12.192L11.7078 14.4853L12.1868 12.6557ZM1.48645 20.9635L12.8868 20.9635L12.8868 13.2197L14.3613 13.2197L14.3613 22.0033L14.349 22.4419L14.349 22.4545L0.442407 22.4545L0.0123645 22.4419L0 22.4419L0 13.2197L1.48645 13.2197L1.48645 20.9635ZM11.6095 15.1368L2.96083 14.3223L2.78879 16.202L11.4498 17.0164L11.6095 15.1368ZM11.4007 17.5553L2.71506 17.5679L2.71506 19.4596L11.4007 19.4475L11.4007 17.5553Z" transform="translate(10.363632 7.772705)" id="Shape" fill="#000000" fill-rule="evenodd" stroke="none" />
  </g>
</svg>