<?xml version="1.0" encoding="utf-8"?>
<svg width="431px" height="431px" viewBox="0 0 431 431" version="1.1" xmlns:xlink="http://www.w3.org/1999/xlink" xmlns="http://www.w3.org/2000/svg">
  <defs>
    <path d="M431 0L431 0L431 431L0 431L0 0L431 0Z" id="path_1" />
    <clipPath id="clip_1">
      <use xlink:href="#path_1" clip-rule="evenodd" fill-rule="evenodd" />
    </clipPath>
  </defs>
  <g id="logo" clip-path="url(#clip_1)">
    <path d="M431 0L431 0L431 431L0 431L0 0L431 0Z" id="logo" fill="#FFFFFF" fill-opacity="0" stroke="none" />
    <path d="M431 215.5C431 96.4664 334.534 0 215.5 0C96.4665 0 0 96.4664 0 215.5C0 334.534 96.4665 431 215.5 431C334.534 431 431 334.534 431 215.5L431 215.5ZM139.791 36.2743C163.869 26.0914 189.105 21 215.5 21C241.895 21 267.131 26.0914 291.209 36.2743C314.477 46.1142 335.087 60.01 353.038 77.9617C370.99 95.9134 384.885 116.523 394.726 139.79C404.908 163.869 410 189.105 410 215.5C410 241.895 404.908 267.131 394.726 291.21C384.886 314.477 370.99 335.087 353.038 353.038C335.087 370.99 314.477 384.886 291.209 394.726C267.131 404.909 241.895 410 215.5 410C189.105 410 163.869 404.909 139.791 394.726C116.523 384.886 95.9138 370.99 77.9617 353.038C60.0105 335.087 46.1147 314.478 36.2744 291.21C26.0916 267.131 21 241.895 21 215.5C21 189.105 26.0916 163.869 36.2744 139.79C46.1145 116.522 60.0103 95.9127 77.9617 77.9617C95.9138 60.0098 116.523 46.114 139.791 36.2743L139.791 36.2743ZM229.343 306.983L206.052 306.983L206.052 306.708L206.036 306.708L119.954 182.267L118.438 182.267L118.438 306.708L85.3428 306.708L85.3428 124.017L114.959 124.017L200.952 248.546L202.558 248.546L202.558 124.017L229.343 124.017L229.343 306.983L229.343 306.983ZM255.343 124.292L255.343 151.946L269.476 151.946C281.846 151.946 290.9 154.637 296.639 160.019C302.378 165.401 305.247 172.968 305.247 182.721C305.247 192.415 302.378 199.819 296.639 204.933C290.9 210.048 281.905 212.605 269.655 212.605L255.343 212.605L255.343 240.08L272.866 240.08L308.726 306.983L345.657 306.983L306.139 234.549C316.844 230.267 324.991 223.666 330.581 214.746C336.171 205.825 338.966 195.151 338.966 182.721C338.966 165.297 333.48 151.202 322.508 140.438C311.536 129.674 295.554 124.292 274.561 124.292L255.343 124.292L255.343 124.292Z" id="Vector" fill="#2FF9FC" fill-rule="evenodd" stroke="none" />
  </g>
</svg>